<svg width="340" height="139" viewBox="0 0 340 139" fill="none" xmlns="http://www.w3.org/2000/svg">
<path d="M0.224 117.88L6.368 82.36L77.984 0.759995H123.872L109.856 81.016H123.68L117.152 117.88H103.328L99.488 139H56.48L60.32 117.88H0.224ZM75.872 49.336L49.568 81.016H70.304L75.872 49.336ZM140.02 69.304C143.732 48.312 151.412 31.608 163.06 19.192C174.708 6.776 190.26 0.567997 209.716 0.567997C225.844 0.567997 237.748 4.91999 245.428 13.624C253.236 22.2 257.14 34.104 257.14 49.336C257.14 55.864 256.5 62.52 255.22 69.304C251.508 90.296 243.828 107.064 232.18 119.608C220.532 132.024 204.98 138.232 185.524 138.232C169.396 138.232 157.428 133.944 149.62 125.368C141.94 116.664 138.1 104.632 138.1 89.272C138.1 83.896 138.74 77.24 140.02 69.304ZM213.172 69.304C214.196 64.184 214.708 59.576 214.708 55.48C214.708 45.752 210.676 40.888 202.612 40.888C196.212 40.888 191.54 43.384 188.596 48.376C185.78 53.24 183.54 60.216 181.875 69.304C180.852 74.68 180.34 79.288 180.34 83.128C180.34 87.864 181.236 91.512 183.028 94.072C184.948 96.632 188.148 97.912 192.628 97.912C198.9 97.912 203.444 95.416 206.26 90.424C209.204 85.432 211.508 78.392 213.172 69.304ZM267.529 43L274.633 3.064H339.721L315.721 139H270.984L287.881 43H267.529Z" fill="#D7385E"/>
<path d="M-4 158.2H334.921V167.8H-4V158.2Z" fill="#D7385E"/>
</svg>
