<svg width="3572" height="1704" viewBox="0 0 3572 1704" fill="none" xmlns="http://www.w3.org/2000/svg">
<rect width="3572" height="1704" fill="#FB7B6B"/>
<path d="M1577.64 328.064C1590.18 328.064 1600.94 330.368 1609.9 334.976C1618.86 339.456 1625.7 345.792 1630.44 353.984C1635.18 362.048 1637.54 371.392 1637.54 382.016C1637.54 386.24 1637.16 390.784 1636.39 395.648C1634.09 408.576 1629.1 420.224 1621.42 430.592C1613.86 440.96 1604.2 449.152 1592.42 455.168C1580.78 461.056 1567.85 464 1553.64 464H1497L1521 328.064H1577.64ZM1556.52 425.984C1566.12 425.984 1574.18 423.36 1580.71 418.112C1587.37 412.864 1591.53 405.376 1593.19 395.648C1593.58 393.088 1593.77 390.72 1593.77 388.544C1593.77 380.992 1591.4 375.232 1586.66 371.264C1582.06 367.296 1575.59 365.312 1567.27 365.312H1557.1L1546.34 425.984H1556.52ZM1700.36 361.856L1697.48 378.752H1739.72L1733.96 410.816H1691.72L1688.26 430.016H1736.26L1730.31 464H1639.69L1663.69 328.064H1754.31L1748.36 361.856H1700.36ZM1754.63 395.84C1756.94 382.4 1761.74 370.432 1769.03 359.936C1776.33 349.44 1785.54 341.312 1796.68 335.552C1807.82 329.664 1820.23 326.72 1833.93 326.72C1845.7 326.72 1855.82 328.96 1864.26 333.44C1872.84 337.792 1879.37 344 1883.85 352.064C1888.33 360.128 1890.5 369.536 1890.38 380.288H1845.45C1844.17 375.808 1841.86 372.352 1838.54 369.92C1835.21 367.36 1831.11 366.08 1826.25 366.08C1819.08 366.08 1812.94 368.768 1807.82 374.144C1802.7 379.52 1799.37 386.752 1797.83 395.84C1797.32 398.4 1797.06 401.152 1797.06 404.096C1797.06 410.752 1798.66 416 1801.86 419.84C1805.19 423.68 1809.86 425.6 1815.88 425.6C1820.74 425.6 1825.29 424.384 1829.51 421.952C1833.74 419.392 1837.26 415.872 1840.07 411.392H1885C1881.16 422.144 1875.59 431.552 1868.3 439.616C1861 447.68 1852.3 453.952 1842.18 458.432C1832.2 462.784 1821.32 464.96 1809.54 464.96C1797.64 464.96 1787.46 462.784 1779.02 458.432C1770.57 453.952 1764.17 447.68 1759.82 439.616C1755.46 431.424 1753.29 421.952 1753.29 411.2C1753.29 405.952 1753.74 400.832 1754.63 395.84ZM1986.17 393.152L2023.8 464H1973.11L1943.93 404.864L1933.56 464H1890.94L1914.94 328.064H1957.56L1947.39 385.28L1996.54 328.064H2044.73L1986.17 393.152ZM2094.24 465.344C2077.6 465.344 2064.29 462.016 2054.31 455.36C2044.45 448.704 2039.52 438.976 2039.52 426.176C2039.52 424.896 2039.65 422.976 2039.91 420.416H2085.22C2084.84 424.384 2085.41 427.328 2086.95 429.248C2088.61 431.168 2091.3 432.128 2095.01 432.128C2097.32 432.128 2099.24 431.552 2100.77 430.4C2102.31 429.248 2103.08 427.584 2103.08 425.408C2103.08 422.336 2101.54 419.776 2098.47 417.728C2095.52 415.68 2090.72 413.248 2084.07 410.432C2076.77 407.36 2070.76 404.416 2066.02 401.6C2061.41 398.784 2057.38 394.944 2053.92 390.08C2050.47 385.216 2048.74 379.136 2048.74 371.84C2048.74 362.24 2051.11 353.984 2055.84 347.072C2060.71 340.032 2067.43 334.72 2076 331.136C2084.58 327.552 2094.37 325.76 2105.38 325.76C2115.24 325.76 2124 327.296 2131.68 330.368C2139.49 333.44 2145.57 337.92 2149.92 343.808C2154.4 349.568 2156.64 356.416 2156.64 364.352C2156.64 365.376 2156.52 367.168 2156.26 369.728H2110.37C2110.63 368.192 2110.76 367.168 2110.76 366.656C2110.76 364.224 2110.05 362.368 2108.64 361.088C2107.24 359.68 2105.32 358.976 2102.88 358.976C2100.71 358.976 2098.92 359.616 2097.51 360.896C2096.1 362.176 2095.4 363.84 2095.4 365.888C2095.4 368.704 2096.87 371.2 2099.81 373.376C2102.76 375.424 2107.43 377.984 2113.83 381.056C2121.12 384.512 2127.14 387.776 2131.88 390.848C2136.74 393.92 2140.9 398.016 2144.35 403.136C2147.81 408.128 2149.54 414.272 2149.54 421.568C2149.54 429.888 2147.3 437.376 2142.82 444.032C2138.47 450.688 2132.13 455.936 2123.81 459.776C2115.49 463.488 2105.64 465.344 2094.24 465.344Z" fill="#D7385E"/>
<path d="M1497 483.2H2159.14V492.8H1497V483.2Z" fill="#D7385E"/>
<path d="M1382.7 1234L1373.3 1225.17C1361.26 1232.34 1347.12 1235.92 1330.86 1235.92C1319.86 1235.92 1310.26 1234.19 1302.06 1230.74C1294 1227.28 1287.79 1222.42 1283.44 1216.14C1279.09 1209.74 1276.91 1202.45 1276.91 1194.26C1276.91 1186.45 1278.9 1179.34 1282.86 1172.94C1286.96 1166.42 1293.04 1160.91 1301.1 1156.43C1295.22 1149.14 1292.27 1141.46 1292.27 1133.39C1292.27 1126.48 1294.06 1120.14 1297.65 1114.38C1301.36 1108.62 1306.74 1104.08 1313.78 1100.75C1320.82 1097.3 1329.2 1095.57 1338.93 1095.57C1348.78 1095.57 1357.17 1097.36 1364.08 1100.94C1370.99 1104.4 1376.18 1109.01 1379.63 1114.77C1383.09 1120.53 1384.82 1126.74 1384.82 1133.39H1346.03C1346.03 1130.96 1345.33 1129.17 1343.92 1128.02C1342.51 1126.74 1340.85 1126.1 1338.93 1126.1C1336.88 1126.1 1335.09 1126.74 1333.55 1128.02C1332.14 1129.17 1331.44 1130.83 1331.44 1133.01C1331.44 1137.1 1334.26 1141.84 1339.89 1147.22L1370.8 1177.17C1372.59 1173.71 1374.19 1169.81 1375.6 1165.46L1376.18 1163.73H1417.46L1415.54 1168.72C1410.67 1181.52 1404.66 1192.91 1397.49 1202.9L1429.55 1234H1382.7ZM1333.94 1202.32C1338.54 1202.32 1342.83 1201.62 1346.8 1200.21L1324.14 1179.09C1321.97 1180.62 1320.3 1182.42 1319.15 1184.46C1318.13 1186.38 1317.62 1188.37 1317.62 1190.42C1317.62 1193.74 1319.02 1196.56 1321.84 1198.86C1324.78 1201.17 1328.82 1202.32 1333.94 1202.32ZM1562.8 1164.3C1570.99 1166.22 1577.32 1170.19 1581.8 1176.21C1586.41 1182.1 1588.72 1188.94 1588.72 1196.75C1588.72 1208.66 1584.75 1217.87 1576.81 1224.4C1569 1230.8 1557.74 1234 1543.02 1234H1471.79V1098.06H1541.1C1554.92 1098.06 1565.8 1101.07 1573.74 1107.09C1581.68 1113.1 1585.64 1121.87 1585.64 1133.39C1585.64 1141.33 1583.53 1148.05 1579.31 1153.55C1575.21 1158.93 1569.71 1162.51 1562.8 1164.3ZM1514.41 1151.06H1530.92C1534.76 1151.06 1537.58 1150.29 1539.37 1148.75C1541.29 1147.22 1542.25 1144.85 1542.25 1141.65C1542.25 1138.32 1541.29 1135.89 1539.37 1134.35C1537.58 1132.69 1534.76 1131.86 1530.92 1131.86H1514.41V1151.06ZM1533.8 1199.82C1537.64 1199.82 1540.46 1199.12 1542.25 1197.71C1544.17 1196.18 1545.13 1193.74 1545.13 1190.42C1545.13 1183.89 1541.36 1180.62 1533.8 1180.62H1514.41V1199.82H1533.8ZM1669.28 1235.34C1656.48 1235.34 1644.7 1232.34 1633.95 1226.32C1623.33 1220.3 1614.88 1211.98 1608.61 1201.36C1602.33 1190.74 1599.2 1178.77 1599.2 1165.46C1599.2 1152.14 1602.33 1140.18 1608.61 1129.55C1614.88 1118.93 1623.33 1110.67 1633.95 1104.78C1644.7 1098.77 1656.48 1095.76 1669.28 1095.76C1682.08 1095.76 1693.79 1098.77 1704.41 1104.78C1715.04 1110.67 1723.42 1118.93 1729.57 1129.55C1735.84 1140.18 1738.97 1152.14 1738.97 1165.46C1738.97 1178.77 1735.84 1190.74 1729.57 1201.36C1723.42 1211.98 1714.97 1220.3 1704.22 1226.32C1693.6 1232.34 1681.95 1235.34 1669.28 1235.34ZM1669.28 1195.6C1677.73 1195.6 1684.25 1192.91 1688.86 1187.54C1693.47 1182.03 1695.77 1174.67 1695.77 1165.46C1695.77 1156.11 1693.47 1148.75 1688.86 1143.38C1684.25 1137.87 1677.73 1135.12 1669.28 1135.12C1660.7 1135.12 1654.11 1137.87 1649.5 1143.38C1644.89 1148.75 1642.59 1156.11 1642.59 1165.46C1642.59 1174.67 1644.89 1182.03 1649.5 1187.54C1654.11 1192.91 1660.7 1195.6 1669.28 1195.6ZM1841.52 1213.46H1796.21L1789.49 1234H1744.75L1794.48 1098.06H1843.63L1893.17 1234H1848.24L1841.52 1213.46ZM1831.15 1181.39L1818.86 1143.57L1806.57 1181.39H1831.15ZM1971.2 1234L1945.67 1185.23H1945.47V1234H1902.85V1098.06H1966.21C1977.22 1098.06 1986.63 1100.05 1994.43 1104.02C2002.24 1107.86 2008.07 1113.17 2011.91 1119.95C2015.87 1126.61 2017.86 1134.16 2017.86 1142.61C2017.86 1151.7 2015.3 1159.76 2010.18 1166.8C2005.19 1173.84 1997.95 1178.9 1988.48 1181.97L2018.05 1234H1971.2ZM1945.47 1156.82H1962.37C1966.47 1156.82 1969.54 1155.92 1971.59 1154.13C1973.63 1152.21 1974.66 1149.26 1974.66 1145.3C1974.66 1141.71 1973.57 1138.9 1971.39 1136.85C1969.35 1134.8 1966.34 1133.78 1962.37 1133.78H1945.47V1156.82ZM2088.12 1098.06C2102.32 1098.06 2114.74 1100.94 2125.36 1106.7C2136.12 1112.46 2144.37 1120.46 2150.13 1130.7C2155.89 1140.94 2158.77 1152.59 2158.77 1165.65C2158.77 1178.58 2155.89 1190.22 2150.13 1200.59C2144.37 1210.96 2136.12 1219.15 2125.36 1225.17C2114.74 1231.06 2102.32 1234 2088.12 1234H2031.48V1098.06H2088.12ZM2084.28 1195.98C2093.88 1195.98 2101.49 1193.36 2107.12 1188.11C2112.76 1182.86 2115.57 1175.38 2115.57 1165.65C2115.57 1155.92 2112.76 1148.43 2107.12 1143.18C2101.49 1137.94 2093.88 1135.31 2084.28 1135.31H2074.1V1195.98H2084.28ZM2227.35 1235.34C2211.09 1235.34 2197.65 1231.57 2187.03 1224.02C2176.53 1216.34 2170.83 1205.14 2169.94 1190.42H2215.25C2215.89 1198.22 2219.35 1202.13 2225.62 1202.13C2227.92 1202.13 2229.84 1201.62 2231.38 1200.59C2233.04 1199.44 2233.87 1197.71 2233.87 1195.41C2233.87 1192.21 2232.15 1189.65 2228.69 1187.73C2225.23 1185.68 2219.86 1183.38 2212.56 1180.82C2203.86 1177.74 2196.63 1174.74 2190.87 1171.79C2185.23 1168.85 2180.37 1164.56 2176.27 1158.93C2172.18 1153.3 2170.19 1146.06 2170.32 1137.23C2170.32 1128.4 2172.56 1120.91 2177.04 1114.77C2181.65 1108.5 2187.86 1103.76 2195.67 1100.56C2203.6 1097.36 2212.5 1095.76 2222.35 1095.76C2238.99 1095.76 2252.18 1099.6 2261.91 1107.28C2271.76 1114.96 2276.95 1125.78 2277.46 1139.73H2231.57C2231.44 1135.89 2230.48 1133.14 2228.69 1131.47C2226.9 1129.81 2224.72 1128.98 2222.16 1128.98C2220.37 1128.98 2218.9 1129.62 2217.75 1130.9C2216.59 1132.05 2216.02 1133.71 2216.02 1135.89C2216.02 1138.96 2217.68 1141.52 2221.01 1143.57C2224.47 1145.49 2229.91 1147.86 2237.33 1150.67C2245.91 1153.87 2252.95 1156.94 2258.45 1159.89C2264.08 1162.83 2268.95 1166.93 2273.04 1172.18C2277.14 1177.42 2279.19 1184.02 2279.19 1191.95C2279.19 1200.27 2277.14 1207.76 2273.04 1214.42C2268.95 1220.94 2262.99 1226.06 2255.19 1229.78C2247.38 1233.49 2238.1 1235.34 2227.35 1235.34Z" fill="#D7385E"/>
<path d="M1270 1253.2H2284.56V1262.8H1270V1253.2Z" fill="#D7385E"/>
<path d="M1364 1455.72C1364 1455.72 1391.17 1418.72 1411.28 1413.27C1440.34 1405.4 1475.79 1436.3 1504.81 1444.78C1562.97 1461.79 1601.19 1416.99 1660 1416.48C1709.69 1416.05 1709.02 1445.36 1758.67 1441.57C1808.93 1437.74 1832.73 1414.53 1883.03 1413.27C1951.95 1411.55 1984.75 1460.1 2053.64 1455.72C2098.72 1452.85 2113.37 1411.99 2158.47 1413.27C2191.07 1414.2 2221.18 1434.82 2252 1455.72" stroke="#FF988B" stroke-width="40"/>
<g style="mix-blend-mode:multiply">
<rect x="1479.84" y="531" width="147.113" height="526.585" rx="73.5567" transform="rotate(20.8983 1479.84 531)" fill="#FFC09D"/>
</g>
<rect x="1551.84" y="502" width="147.113" height="526.585" rx="73.5567" transform="rotate(20.8983 1551.84 502)" fill="#FFC09D"/>
<g style="mix-blend-mode:multiply">
<rect x="2001.84" y="547" width="147.113" height="526.585" rx="73.5567" transform="rotate(20.8983 2001.84 547)" fill="#FFC09D"/>
</g>
<circle cx="1620.5" cy="606.5" r="13.5" fill="#313131"/>
<circle cx="1566.5" cy="585.5" r="13.5" fill="#313131"/>
<circle cx="1600.5" cy="654.5" r="13.5" fill="#313131"/>
<circle cx="1546.5" cy="633.5" r="13.5" fill="#313131"/>
<circle cx="1502.5" cy="915.5" r="13.5" fill="#313131"/>
<circle cx="1448.5" cy="894.5" r="13.5" fill="#313131"/>
<circle cx="1482.5" cy="963.5" r="13.5" fill="#313131"/>
<circle cx="1428.5" cy="942.5" r="13.5" fill="#313131"/>
<rect x="2080.84" y="503" width="147.113" height="526.585" rx="73.5567" transform="rotate(20.8983 2080.84 503)" fill="#FFC09D"/>
<circle cx="2149.5" cy="607.5" r="13.5" fill="#313131"/>
<circle cx="2095.5" cy="586.5" r="13.5" fill="#313131"/>
<circle cx="2129.5" cy="655.5" r="13.5" fill="#313131"/>
<circle cx="2075.5" cy="634.5" r="13.5" fill="#313131"/>
<circle cx="2031.5" cy="916.5" r="13.5" fill="#313131"/>
<circle cx="1977.5" cy="895.5" r="13.5" fill="#313131"/>
<circle cx="2011.5" cy="964.5" r="13.5" fill="#313131"/>
<circle cx="1957.5" cy="943.5" r="13.5" fill="#313131"/>
</svg>
