<svg width="3572" height="1704" viewBox="0 0 3572 1704" fill="none" xmlns="http://www.w3.org/2000/svg">
<rect width="3572" height="1704" fill="#FB7B6B"/>
<path d="M1549.22 471.88L1555.37 436.36L1626.98 354.76H1672.87L1658.86 435.016H1672.68L1666.15 471.88H1652.33L1648.49 493H1605.48L1609.32 471.88H1549.22ZM1624.87 403.336L1598.57 435.016H1619.3L1624.87 403.336ZM1689.02 423.304C1692.73 402.312 1700.41 385.608 1712.06 373.192C1723.71 360.776 1739.26 354.568 1758.72 354.568C1774.84 354.568 1786.75 358.92 1794.43 367.624C1802.24 376.2 1806.14 388.104 1806.14 403.336C1806.14 409.864 1805.5 416.52 1804.22 423.304C1800.51 444.296 1792.83 461.064 1781.18 473.608C1769.53 486.024 1753.98 492.232 1734.52 492.232C1718.4 492.232 1706.43 487.944 1698.62 479.368C1690.94 470.664 1687.1 458.632 1687.1 443.272C1687.1 437.896 1687.74 431.24 1689.02 423.304ZM1762.17 423.304C1763.2 418.184 1763.71 413.576 1763.71 409.48C1763.71 399.752 1759.68 394.888 1751.61 394.888C1745.21 394.888 1740.54 397.384 1737.6 402.376C1734.78 407.24 1732.54 414.216 1730.88 423.304C1729.85 428.68 1729.34 433.288 1729.34 437.128C1729.34 441.864 1730.24 445.512 1732.03 448.072C1733.95 450.632 1737.15 451.912 1741.63 451.912C1747.9 451.912 1752.44 449.416 1755.26 444.424C1758.2 439.432 1760.51 432.392 1762.17 423.304ZM1816.53 397L1823.63 357.064H1888.72L1864.72 493H1819.98L1836.88 397H1816.53Z" fill="#D7385E"/>
<path d="M1545 512.2H1883.92V521.8H1545V512.2Z" fill="#D7385E"/>
<path d="M1126.6 1130.06V1163.86H1073.22V1182.67H1111.62V1214.74H1073.22V1266H1030.6V1130.06H1126.6ZM1183.66 1130.06V1266H1141.04V1130.06H1183.66ZM1333.28 1266H1290.66L1245.54 1197.65V1266H1202.91V1130.06H1245.54L1290.66 1199.57V1130.06H1333.28V1266ZM1435.87 1176.53C1434.2 1173.84 1431.83 1171.79 1428.76 1170.38C1425.69 1168.85 1421.98 1168.08 1417.63 1168.08C1409.43 1168.08 1403.1 1170.77 1398.62 1176.14C1394.14 1181.39 1391.9 1188.62 1391.9 1197.84C1391.9 1208.46 1394.39 1216.4 1399.39 1221.65C1404.38 1226.9 1412.06 1229.52 1422.43 1229.52C1432.28 1229.52 1440.22 1225.55 1446.23 1217.62H1412.25V1187.47H1481.56V1230.1C1475.67 1240.21 1467.55 1248.91 1457.18 1256.21C1446.81 1263.38 1433.69 1266.96 1417.82 1266.96C1403.74 1266.96 1391.45 1264.08 1380.95 1258.32C1370.59 1252.43 1362.59 1244.24 1356.95 1233.74C1351.45 1223.25 1348.7 1211.28 1348.7 1197.84C1348.7 1184.4 1351.45 1172.43 1356.95 1161.94C1362.59 1151.44 1370.59 1143.31 1380.95 1137.55C1391.32 1131.66 1403.48 1128.72 1417.43 1128.72C1435.23 1128.72 1449.69 1133.01 1460.83 1141.58C1472.09 1150.16 1478.75 1161.81 1480.79 1176.53H1435.87ZM1539.54 1164.05V1180.75H1581.78V1212.82H1539.54V1232.02H1587.54V1266H1496.91V1130.06H1587.54V1164.05H1539.54ZM1671.95 1266L1646.42 1217.23H1646.22V1266H1603.6V1130.06H1666.96C1677.97 1130.06 1687.38 1132.05 1695.18 1136.02C1702.99 1139.86 1708.82 1145.17 1712.66 1151.95C1716.62 1158.61 1718.61 1166.16 1718.61 1174.61C1718.61 1183.7 1716.05 1191.76 1710.93 1198.8C1705.94 1205.84 1698.7 1210.9 1689.23 1213.97L1718.8 1266H1671.95ZM1646.22 1188.82H1663.12C1667.22 1188.82 1670.29 1187.92 1672.34 1186.13C1674.38 1184.21 1675.41 1181.26 1675.41 1177.3C1675.41 1173.71 1674.32 1170.9 1672.14 1168.85C1670.1 1166.8 1667.09 1165.78 1663.12 1165.78H1646.22V1188.82ZM1823.23 1196.3C1831.43 1198.22 1837.76 1202.19 1842.24 1208.21C1846.85 1214.1 1849.15 1220.94 1849.15 1228.75C1849.15 1240.66 1845.19 1249.87 1837.25 1256.4C1829.44 1262.8 1818.18 1266 1803.46 1266H1732.23V1130.06H1801.54C1815.36 1130.06 1826.24 1133.07 1834.18 1139.09C1842.11 1145.1 1846.08 1153.87 1846.08 1165.39C1846.08 1173.33 1843.97 1180.05 1839.75 1185.55C1835.65 1190.93 1830.15 1194.51 1823.23 1196.3ZM1774.85 1183.06H1791.36C1795.2 1183.06 1798.02 1182.29 1799.81 1180.75C1801.73 1179.22 1802.69 1176.85 1802.69 1173.65C1802.69 1170.32 1801.73 1167.89 1799.81 1166.35C1798.02 1164.69 1795.2 1163.86 1791.36 1163.86H1774.85V1183.06ZM1794.24 1231.82C1798.08 1231.82 1800.9 1231.12 1802.69 1229.71C1804.61 1228.18 1805.57 1225.74 1805.57 1222.42C1805.57 1215.89 1801.79 1212.62 1794.24 1212.62H1774.85V1231.82H1794.24ZM1929.72 1267.34C1916.92 1267.34 1905.14 1264.34 1894.39 1258.32C1883.76 1252.3 1875.32 1243.98 1869.04 1233.36C1862.77 1222.74 1859.64 1210.77 1859.64 1197.46C1859.64 1184.14 1862.77 1172.18 1869.04 1161.55C1875.32 1150.93 1883.76 1142.67 1894.39 1136.78C1905.14 1130.77 1916.92 1127.76 1929.72 1127.76C1942.52 1127.76 1954.23 1130.77 1964.85 1136.78C1975.48 1142.67 1983.86 1150.93 1990 1161.55C1996.28 1172.18 1999.41 1184.14 1999.41 1197.46C1999.41 1210.77 1996.28 1222.74 1990 1233.36C1983.86 1243.98 1975.41 1252.3 1964.66 1258.32C1954.04 1264.34 1942.39 1267.34 1929.72 1267.34ZM1929.72 1227.6C1938.16 1227.6 1944.69 1224.91 1949.3 1219.54C1953.91 1214.03 1956.21 1206.67 1956.21 1197.46C1956.21 1188.11 1953.91 1180.75 1949.3 1175.38C1944.69 1169.87 1938.16 1167.12 1929.72 1167.12C1921.14 1167.12 1914.55 1169.87 1909.94 1175.38C1905.33 1180.75 1903.03 1188.11 1903.03 1197.46C1903.03 1206.67 1905.33 1214.03 1909.94 1219.54C1914.55 1224.91 1921.14 1227.6 1929.72 1227.6ZM2101.96 1245.46H2056.64L2049.92 1266H2005.19L2054.92 1130.06H2104.07L2153.6 1266H2108.68L2101.96 1245.46ZM2091.59 1213.39L2079.3 1175.57L2067.01 1213.39H2091.59ZM2231.64 1266L2206.1 1217.23H2205.91V1266H2163.29V1130.06H2226.65C2237.66 1130.06 2247.06 1132.05 2254.87 1136.02C2262.68 1139.86 2268.5 1145.17 2272.34 1151.95C2276.31 1158.61 2278.3 1166.16 2278.3 1174.61C2278.3 1183.7 2275.74 1191.76 2270.62 1198.8C2265.62 1205.84 2258.39 1210.9 2248.92 1213.97L2278.49 1266H2231.64ZM2205.91 1188.82H2222.81C2226.9 1188.82 2229.98 1187.92 2232.02 1186.13C2234.07 1184.21 2235.1 1181.26 2235.1 1177.3C2235.1 1173.71 2234.01 1170.9 2231.83 1168.85C2229.78 1166.8 2226.78 1165.78 2222.81 1165.78H2205.91V1188.82ZM2348.55 1130.06C2362.76 1130.06 2375.18 1132.94 2385.8 1138.7C2396.55 1144.46 2404.81 1152.46 2410.57 1162.7C2416.33 1172.94 2419.21 1184.59 2419.21 1197.65C2419.21 1210.58 2416.33 1222.22 2410.57 1232.59C2404.81 1242.96 2396.55 1251.15 2385.8 1257.17C2375.18 1263.06 2362.76 1266 2348.55 1266H2291.91V1130.06H2348.55ZM2344.71 1227.98C2354.31 1227.98 2361.93 1225.36 2367.56 1220.11C2373.19 1214.86 2376.01 1207.38 2376.01 1197.65C2376.01 1187.92 2373.19 1180.43 2367.56 1175.18C2361.93 1169.94 2354.31 1167.31 2344.71 1167.31H2334.54V1227.98H2344.71ZM2487.78 1267.34C2471.53 1267.34 2458.09 1263.57 2447.46 1256.02C2436.97 1248.34 2431.27 1237.14 2430.38 1222.42H2475.69C2476.33 1230.22 2479.78 1234.13 2486.06 1234.13C2488.36 1234.13 2490.28 1233.62 2491.82 1232.59C2493.48 1231.44 2494.31 1229.71 2494.31 1227.41C2494.31 1224.21 2492.58 1221.65 2489.13 1219.73C2485.67 1217.68 2480.3 1215.38 2473 1212.82C2464.3 1209.74 2457.06 1206.74 2451.3 1203.79C2445.67 1200.85 2440.81 1196.56 2436.71 1190.93C2432.62 1185.3 2430.63 1178.06 2430.76 1169.23C2430.76 1160.4 2433 1152.91 2437.48 1146.77C2442.09 1140.5 2448.3 1135.76 2456.1 1132.56C2464.04 1129.36 2472.94 1127.76 2482.79 1127.76C2499.43 1127.76 2512.62 1131.6 2522.34 1139.28C2532.2 1146.96 2537.38 1157.78 2537.9 1171.73H2492.01C2491.88 1167.89 2490.92 1165.14 2489.13 1163.47C2487.34 1161.81 2485.16 1160.98 2482.6 1160.98C2480.81 1160.98 2479.34 1161.62 2478.18 1162.9C2477.03 1164.05 2476.46 1165.71 2476.46 1167.89C2476.46 1170.96 2478.12 1173.52 2481.45 1175.57C2484.9 1177.49 2490.34 1179.86 2497.77 1182.67C2506.34 1185.87 2513.38 1188.94 2518.89 1191.89C2524.52 1194.83 2529.38 1198.93 2533.48 1204.18C2537.58 1209.42 2539.62 1216.02 2539.62 1223.95C2539.62 1232.27 2537.58 1239.76 2533.48 1246.42C2529.38 1252.94 2523.43 1258.06 2515.62 1261.78C2507.82 1265.49 2498.54 1267.34 2487.78 1267.34Z" fill="#D7385E"/>
<path d="M1021 1285.2H2545V1294.8H1021V1285.2Z" fill="#D7385E"/>
<rect x="1360" y="895.907" width="216" height="773.161" rx="108" transform="rotate(-88.3157 1360 895.907)" fill="#FFC09D"/>
<circle cx="1448" cy="756" r="20" fill="#313131"/>
<circle cx="1448" cy="820" r="20" fill="#313131"/>
<circle cx="1508" cy="756" r="20" fill="#313131"/>
<circle cx="1508" cy="820" r="20" fill="#313131"/>
<circle cx="1972" cy="768" r="20" fill="#313131"/>
<circle cx="1972" cy="832" r="20" fill="#313131"/>
<circle cx="2032" cy="768" r="20" fill="#313131"/>
<circle cx="2032" cy="832" r="20" fill="#313131"/>
<path d="M1342 1522.72C1342 1522.72 1369.17 1485.72 1389.28 1480.27C1418.34 1472.4 1453.79 1503.3 1482.81 1511.78C1540.97 1528.79 1579.19 1483.99 1638 1483.48C1687.69 1483.05 1687.02 1512.36 1736.67 1508.57C1786.93 1504.74 1810.73 1481.53 1861.03 1480.27C1929.95 1478.55 1962.75 1527.1 2031.64 1522.72C2076.72 1519.85 2091.37 1478.99 2136.47 1480.27C2169.07 1481.2 2199.18 1501.82 2230 1522.72" stroke="#FF988B" stroke-width="40"/>
</svg>
