<svg width="5226" height="3135" viewBox="0 0 5226 3135" fill="none" xmlns="http://www.w3.org/2000/svg">
<rect width="5226" height="3135" transform="matrix(1 0 0 -1 0 3135)" fill="url(#paint0_radial_88_15)"/>
<path d="M1747.5 1369.7C1816.57 1369.7 1870.47 1388.6 1909.2 1426.4C1947.93 1464.2 1967.3 1516.47 1967.3 1583.2C1967.3 1645.73 1948.4 1694.5 1910.6 1729.5C1872.8 1764.5 1820.3 1782 1753.1 1782H1555.7V1711.3H1615.2V1440.4H1555.7V1369.7H1747.5ZM1740.5 1711.3C1787.17 1711.3 1822.4 1700.57 1846.2 1679.1C1870.47 1657.63 1882.6 1625.9 1882.6 1583.9C1882.6 1536.77 1871.17 1501.07 1848.3 1476.8C1825.43 1452.53 1791.83 1440.4 1747.5 1440.4H1696.4V1711.3H1740.5ZM2021.93 1369.7H2339.73L2381.03 1493.6L2314.53 1516L2287.93 1440.4H2162.63V1537H2281.63V1607H2162.63V1711.3H2305.43L2331.33 1641.3L2397.13 1664.4L2356.53 1782H2021.23V1711.3H2080.73L2081.43 1440.4H2021.93V1369.7ZM2729.92 1436.2C2728.52 1435.27 2724.09 1433.87 2716.62 1432C2709.62 1430.13 2700.99 1428.27 2690.72 1426.4C2680.46 1424.53 2669.72 1423.6 2658.52 1423.6C2617.92 1423.6 2586.66 1436.67 2564.72 1462.8C2542.79 1488.93 2531.82 1526.27 2531.82 1574.8C2531.82 1623.8 2543.02 1661.6 2565.42 1688.2C2587.82 1714.8 2618.86 1728.1 2658.52 1728.1C2670.19 1728.1 2681.16 1726.7 2691.42 1723.9C2701.69 1721.1 2710.32 1718.53 2717.32 1716.2C2724.32 1713.4 2728.52 1711.77 2729.92 1711.3L2744.62 1650.4L2812.52 1665.8L2791.52 1765.2C2791.52 1765.2 2785.92 1767.77 2774.72 1772.9C2763.52 1778.03 2747.89 1783.17 2727.82 1788.3C2707.76 1793.43 2684.66 1796 2658.52 1796C2616.52 1796 2579.66 1788.07 2547.92 1772.2C2516.66 1755.87 2492.16 1731.37 2474.42 1698.7C2456.69 1665.57 2447.82 1624.27 2447.82 1574.8C2447.82 1529.07 2456.46 1489.87 2473.72 1457.2C2490.99 1424.53 2515.49 1399.57 2547.22 1382.3C2578.96 1364.57 2615.82 1355.7 2657.82 1355.7C2687.22 1355.7 2711.96 1358.73 2732.02 1364.8C2752.56 1370.4 2767.96 1376.23 2778.22 1382.3C2788.49 1388.37 2793.62 1391.4 2793.62 1391.4L2813.22 1490.1L2744.62 1505.5L2729.92 1436.2ZM2870.25 1369.7H3050.15V1440.4H3010.25V1542.6H3062.05L3137.65 1440.4H3102.65V1369.7H3284.65V1440.4H3219.55L3122.95 1562.9L3231.45 1711.3H3301.45V1782H3094.95V1711.3H3143.95L3071.15 1610.5H3010.25V1711.3H3050.15V1782H2870.25V1711.3H2929.75V1440.4H2870.25V1369.7ZM3504.48 1796C3469.94 1796 3440.08 1793.2 3414.88 1787.6C3390.14 1782.47 3368.68 1776.4 3350.48 1769.4L3337.88 1673.5L3403.68 1665.8L3411.38 1716.9C3424.91 1721.57 3438.91 1725.07 3453.38 1727.4C3467.84 1729.73 3483.01 1730.9 3498.88 1730.9C3516.61 1730.9 3532.94 1728.8 3547.88 1724.6C3562.81 1719.93 3574.71 1713.17 3583.58 1704.3C3592.44 1694.97 3596.88 1683.3 3596.88 1669.3C3596.88 1654.83 3592.21 1642.23 3582.88 1631.5C3574.01 1620.77 3555.11 1613.07 3526.18 1608.4L3475.78 1600C3433.78 1592.53 3401.58 1578.53 3379.18 1558C3356.78 1537.47 3345.58 1510.63 3345.58 1477.5C3345.58 1450.9 3352.81 1428.5 3367.28 1410.3C3381.74 1392.1 3401.34 1378.57 3426.08 1369.7C3450.81 1360.37 3478.58 1355.7 3509.38 1355.7C3524.78 1355.7 3539.94 1356.63 3554.88 1358.5C3569.81 1360.37 3584.28 1363.17 3598.28 1366.9C3612.28 1370.63 3626.28 1375.53 3640.28 1381.6L3653.58 1484.5L3582.88 1492.2L3573.78 1429.2C3564.44 1425.93 3553.94 1423.37 3542.28 1421.5C3531.08 1419.63 3519.18 1418.7 3506.58 1418.7C3479.04 1418.7 3457.34 1423.6 3441.48 1433.4C3426.08 1442.73 3418.38 1455.57 3418.38 1471.9C3418.38 1488.23 3423.98 1501.07 3435.18 1510.4C3446.84 1519.27 3465.74 1526.03 3491.88 1530.7L3544.38 1539.1C3589.64 1546.1 3621.84 1559.87 3640.98 1580.4C3660.11 1600.47 3669.68 1626.6 3669.68 1658.8C3669.68 1685.87 3664.54 1708.27 3654.28 1726C3644.48 1743.73 3631.41 1757.73 3615.08 1768C3598.74 1778.27 3580.78 1785.5 3561.18 1789.7C3541.58 1793.9 3522.68 1796 3504.48 1796Z" fill="#B42C4C"/>
<path d="M1909.2 1426.4L1907.1 1428.55L1909.2 1426.4ZM1910.6 1729.5L1912.64 1731.7L1910.6 1729.5ZM1555.7 1782H1552.7V1785H1555.7V1782ZM1555.7 1711.3V1708.3H1552.7V1711.3H1555.7ZM1615.2 1711.3V1714.3H1618.2V1711.3H1615.2ZM1615.2 1440.4H1618.2V1437.4H1615.2V1440.4ZM1555.7 1440.4H1552.7V1443.4H1555.7V1440.4ZM1555.7 1369.7V1366.7H1552.7V1369.7H1555.7ZM1846.2 1679.1L1844.21 1676.85L1844.2 1676.86L1844.19 1676.87L1846.2 1679.1ZM1696.4 1440.4V1437.4H1693.4V1440.4H1696.4ZM1696.4 1711.3H1693.4V1714.3H1696.4V1711.3ZM1747.5 1372.7C1816.01 1372.7 1869.07 1391.43 1907.1 1428.55L1911.3 1424.25C1871.86 1385.77 1817.12 1366.7 1747.5 1366.7V1372.7ZM1907.1 1428.55C1945.13 1465.66 1964.3 1517.07 1964.3 1583.2H1970.3C1970.3 1515.86 1950.74 1462.74 1911.3 1424.25L1907.1 1428.55ZM1964.3 1583.2C1964.3 1645.09 1945.62 1692.99 1908.56 1727.3L1912.64 1731.7C1951.18 1696.01 1970.3 1646.38 1970.3 1583.2H1964.3ZM1908.56 1727.3C1871.47 1761.64 1819.78 1779 1753.1 1779V1785C1820.82 1785 1874.13 1767.36 1912.64 1731.7L1908.56 1727.3ZM1753.1 1779H1555.7V1785H1753.1V1779ZM1558.7 1782V1711.3H1552.7V1782H1558.7ZM1555.7 1714.3H1615.2V1708.3H1555.7V1714.3ZM1618.2 1711.3V1440.4H1612.2V1711.3H1618.2ZM1615.2 1437.4H1555.7V1443.4H1615.2V1437.4ZM1558.7 1440.4V1369.7H1552.7V1440.4H1558.7ZM1555.7 1372.7H1747.5V1366.7H1555.7V1372.7ZM1740.5 1714.3C1787.58 1714.3 1823.65 1703.48 1848.21 1681.33L1844.19 1676.87C1821.15 1697.66 1786.76 1708.3 1740.5 1708.3V1714.3ZM1848.19 1681.35C1873.28 1659.15 1885.6 1626.49 1885.6 1583.9H1879.6C1879.6 1625.31 1867.66 1656.11 1844.21 1676.85L1848.19 1681.35ZM1885.6 1583.9C1885.6 1536.32 1874.06 1499.76 1850.48 1474.74L1846.12 1478.86C1868.28 1502.37 1879.6 1537.21 1879.6 1583.9H1885.6ZM1850.48 1474.74C1826.88 1449.69 1792.38 1437.4 1747.5 1437.4V1443.4C1791.29 1443.4 1823.99 1455.37 1846.12 1478.86L1850.48 1474.74ZM1747.5 1437.4H1696.4V1443.4H1747.5V1437.4ZM1693.4 1440.4V1711.3H1699.4V1440.4H1693.4ZM1696.4 1714.3H1740.5V1708.3H1696.4V1714.3ZM2021.93 1369.7V1366.7H2018.93V1369.7H2021.93ZM2339.73 1369.7L2342.57 1368.75L2341.89 1366.7H2339.73V1369.7ZM2381.03 1493.6L2381.98 1496.44L2384.82 1495.49L2383.87 1492.65L2381.03 1493.6ZM2314.53 1516L2311.7 1517L2312.68 1519.79L2315.48 1518.84L2314.53 1516ZM2287.93 1440.4L2290.76 1439.4L2290.05 1437.4H2287.93V1440.4ZM2162.63 1440.4V1437.4H2159.63V1440.4H2162.63ZM2162.63 1537H2159.63V1540H2162.63V1537ZM2281.63 1537H2284.63V1534H2281.63V1537ZM2281.63 1607V1610H2284.63V1607H2281.63ZM2162.63 1607V1604H2159.63V1607H2162.63ZM2162.63 1711.3H2159.63V1714.3H2162.63V1711.3ZM2305.43 1711.3V1714.3H2307.52L2308.24 1712.34L2305.43 1711.3ZM2331.33 1641.3L2332.32 1638.47L2329.54 1637.49L2328.51 1640.26L2331.33 1641.3ZM2397.13 1664.4L2399.96 1665.38L2400.94 1662.56L2398.12 1661.57L2397.13 1664.4ZM2356.53 1782V1785H2358.67L2359.36 1782.98L2356.53 1782ZM2021.23 1782H2018.23V1785H2021.23V1782ZM2021.23 1711.3V1708.3H2018.23V1711.3H2021.23ZM2080.73 1711.3V1714.3H2083.72L2083.73 1711.31L2080.73 1711.3ZM2081.43 1440.4L2084.43 1440.41L2084.44 1437.4H2081.43V1440.4ZM2021.93 1440.4H2018.93V1443.4H2021.93V1440.4ZM2021.93 1372.7H2339.73V1366.7H2021.93V1372.7ZM2336.88 1370.65L2378.18 1494.55L2383.87 1492.65L2342.57 1368.75L2336.88 1370.65ZM2380.07 1490.76L2313.57 1513.16L2315.48 1518.84L2381.98 1496.44L2380.07 1490.76ZM2317.36 1515L2290.76 1439.4L2285.1 1441.4L2311.7 1517L2317.36 1515ZM2287.93 1437.4H2162.63V1443.4H2287.93V1437.4ZM2159.63 1440.4V1537H2165.63V1440.4H2159.63ZM2162.63 1540H2281.63V1534H2162.63V1540ZM2278.63 1537V1607H2284.63V1537H2278.63ZM2281.63 1604H2162.63V1610H2281.63V1604ZM2159.63 1607V1711.3H2165.63V1607H2159.63ZM2162.63 1714.3H2305.43V1708.3H2162.63V1714.3ZM2308.24 1712.34L2334.14 1642.34L2328.51 1640.26L2302.61 1710.26L2308.24 1712.34ZM2330.33 1644.13L2396.13 1667.23L2398.12 1661.57L2332.32 1638.47L2330.33 1644.13ZM2394.29 1663.42L2353.69 1781.02L2359.36 1782.98L2399.96 1665.38L2394.29 1663.42ZM2356.53 1779H2021.23V1785H2356.53V1779ZM2024.23 1782V1711.3H2018.23V1782H2024.23ZM2021.23 1714.3H2080.73V1708.3H2021.23V1714.3ZM2083.73 1711.31L2084.43 1440.41L2078.43 1440.39L2077.73 1711.29L2083.73 1711.31ZM2081.43 1437.4H2021.93V1443.4H2081.43V1437.4ZM2024.93 1440.4V1369.7H2018.93V1440.4H2024.93ZM2729.92 1436.2L2732.86 1435.58L2732.6 1434.38L2731.59 1433.7L2729.92 1436.2ZM2716.62 1432L2715.85 1434.9L2715.87 1434.9L2715.9 1434.91L2716.62 1432ZM2690.72 1426.4L2690.19 1429.35L2690.72 1426.4ZM2564.72 1462.8L2562.42 1460.87L2564.72 1462.8ZM2565.42 1688.2L2567.72 1686.27L2565.42 1688.2ZM2691.42 1723.9L2692.21 1726.79L2691.42 1723.9ZM2717.32 1716.2L2718.27 1719.05L2718.35 1719.02L2718.44 1718.99L2717.32 1716.2ZM2729.92 1711.3L2730.87 1714.15L2732.45 1713.62L2732.84 1712L2729.92 1711.3ZM2744.62 1650.4L2745.29 1647.47L2742.4 1646.82L2741.71 1649.7L2744.62 1650.4ZM2812.52 1665.8L2815.46 1666.42L2816.07 1663.53L2813.19 1662.87L2812.52 1665.8ZM2791.52 1765.2L2792.77 1767.93L2794.15 1767.3L2794.46 1765.82L2791.52 1765.2ZM2774.72 1772.9L2775.97 1775.63L2774.72 1772.9ZM2727.82 1788.3L2727.08 1785.39L2727.82 1788.3ZM2547.92 1772.2L2546.53 1774.86L2546.56 1774.87L2546.58 1774.88L2547.92 1772.2ZM2474.42 1698.7L2471.78 1700.12L2471.78 1700.12L2471.79 1700.13L2474.42 1698.7ZM2473.72 1457.2L2476.37 1458.6L2473.72 1457.2ZM2547.22 1382.3L2548.66 1384.94L2548.67 1384.93L2548.69 1384.92L2547.22 1382.3ZM2732.02 1364.8L2731.15 1367.67L2731.19 1367.68L2731.23 1367.69L2732.02 1364.8ZM2778.22 1382.3L2779.75 1379.72L2778.22 1382.3ZM2793.62 1391.4L2796.57 1390.82L2796.3 1389.5L2795.15 1388.82L2793.62 1391.4ZM2813.22 1490.1L2813.88 1493.03L2816.74 1492.39L2816.17 1489.52L2813.22 1490.1ZM2744.62 1505.5L2741.69 1506.12L2742.32 1509.09L2745.28 1508.43L2744.62 1505.5ZM2731.59 1433.7C2730.48 1432.97 2728.62 1432.27 2726.45 1431.59C2724.15 1430.86 2721.11 1430.03 2717.35 1429.09L2715.9 1434.91C2719.6 1435.84 2722.51 1436.64 2724.64 1437.31C2726.91 1438.03 2727.96 1438.5 2728.26 1438.7L2731.59 1433.7ZM2717.4 1429.1C2710.29 1427.21 2701.57 1425.32 2691.26 1423.45L2690.19 1429.35C2700.4 1431.21 2708.95 1433.06 2715.85 1434.9L2717.4 1429.1ZM2691.26 1423.45C2680.8 1421.55 2669.89 1420.6 2658.52 1420.6V1426.6C2669.56 1426.6 2680.11 1427.52 2690.19 1429.35L2691.26 1423.45ZM2658.52 1420.6C2617.22 1420.6 2585.04 1433.93 2562.42 1460.87L2567.02 1464.73C2588.27 1439.41 2618.62 1426.6 2658.52 1426.6V1420.6ZM2562.42 1460.87C2539.88 1487.73 2528.82 1525.85 2528.82 1574.8H2534.82C2534.82 1526.68 2545.7 1490.13 2567.02 1464.73L2562.42 1460.87ZM2528.82 1574.8C2528.82 1624.22 2540.12 1662.81 2563.13 1690.13L2567.72 1686.27C2545.93 1660.39 2534.82 1623.38 2534.82 1574.8H2528.82ZM2563.13 1690.13C2586.18 1717.51 2618.11 1731.1 2658.52 1731.1V1725.1C2619.6 1725.1 2589.46 1712.09 2567.72 1686.27L2563.13 1690.13ZM2658.52 1731.1C2670.43 1731.1 2681.66 1729.67 2692.21 1726.79L2690.63 1721.01C2680.65 1723.73 2669.95 1725.1 2658.52 1725.1V1731.1ZM2692.21 1726.79C2702.51 1723.99 2711.2 1721.4 2718.27 1719.05L2716.37 1713.35C2709.44 1715.66 2700.87 1718.21 2690.63 1721.01L2692.21 1726.79ZM2718.44 1718.99C2725.48 1716.17 2729.58 1714.58 2730.87 1714.15L2728.97 1708.45C2727.47 1708.96 2723.16 1710.63 2716.21 1713.41L2718.44 1718.99ZM2732.84 1712L2747.54 1651.1L2741.71 1649.7L2727.01 1710.6L2732.84 1712ZM2743.96 1653.33L2811.86 1668.73L2813.19 1662.87L2745.29 1647.47L2743.96 1653.33ZM2809.59 1665.18L2788.59 1764.58L2794.46 1765.82L2815.46 1666.42L2809.59 1665.18ZM2791.52 1765.2C2790.27 1762.47 2790.27 1762.47 2790.27 1762.47C2790.27 1762.47 2790.27 1762.47 2790.27 1762.47C2790.27 1762.47 2790.27 1762.47 2790.27 1762.47C2790.27 1762.47 2790.27 1762.47 2790.27 1762.47C2790.27 1762.48 2790.27 1762.48 2790.26 1762.48C2790.26 1762.48 2790.26 1762.48 2790.26 1762.48C2790.24 1762.49 2790.23 1762.49 2790.21 1762.5C2790.2 1762.51 2790.06 1762.57 2790.01 1762.59C2789.95 1762.62 2789.46 1762.85 2789.22 1762.95C2788.93 1763.09 2788.97 1763.07 2788.63 1763.22C2788.46 1763.3 2788.12 1763.46 2787.91 1763.56C2787.9 1763.56 2787.89 1763.56 2787.89 1763.57C2787.88 1763.57 2787.87 1763.57 2787.86 1763.58C2787.83 1763.59 2787.84 1763.59 2787.81 1763.6C2787.75 1763.63 2787.77 1763.62 2787.71 1763.65C2787.58 1763.71 2787.63 1763.68 2787.5 1763.74C2787.5 1763.74 2787.45 1763.77 2787.45 1763.77C2787.44 1763.77 2787.4 1763.79 2787.39 1763.79C2787.34 1763.82 2787.34 1763.82 2787.28 1763.84C2787.27 1763.85 2787.26 1763.85 2787.25 1763.86C2787.25 1763.86 2787.24 1763.86 2787.23 1763.87C2787.22 1763.87 2787.21 1763.88 2787.2 1763.88C2787.19 1763.89 2787.18 1763.89 2787.17 1763.89C2787.1 1763.93 2787.13 1763.91 2787.06 1763.95C2787 1763.97 2786.65 1764.14 2786.58 1764.16C2786.45 1764.22 2786.47 1764.22 2786.33 1764.28C2786.33 1764.28 2786.21 1764.34 2786.2 1764.34C2786.18 1764.35 2786.16 1764.36 2786.14 1764.37C2786.13 1764.37 2786.08 1764.39 2786.07 1764.4C2785.87 1764.49 2786.01 1764.42 2785.81 1764.52C2785.79 1764.53 2785.76 1764.54 2785.74 1764.55C2785.73 1764.56 2785.72 1764.56 2785.7 1764.57C2785.69 1764.57 2785.68 1764.58 2785.67 1764.58C2785.67 1764.58 2785.6 1764.61 2785.6 1764.61C2785.58 1764.62 2785.55 1764.64 2785.53 1764.65C2785.2 1764.8 2785.29 1764.75 2784.96 1764.91C2784.92 1764.93 2784.85 1764.96 2784.81 1764.98C2784.69 1765.03 2784.78 1764.99 2784.66 1765.05C2784.65 1765.05 2784.51 1765.11 2784.5 1765.12C2784.44 1765.14 2784.41 1765.16 2784.35 1765.19C2784.02 1765.34 2784.05 1765.33 2783.71 1765.48C2783.41 1765.62 2783.35 1765.65 2783.04 1765.79C2783.02 1765.8 2783.01 1765.8 2782.99 1765.81C2782.98 1765.82 2782.97 1765.82 2782.95 1765.83C2782.94 1765.84 2782.92 1765.84 2782.91 1765.85C2782.89 1765.86 2782.88 1765.86 2782.86 1765.87C2782.76 1765.92 2782.8 1765.9 2782.69 1765.95C2782.5 1766.03 2782.52 1766.03 2782.33 1766.11C2782.21 1766.17 2782.27 1766.14 2782.15 1766.2C2782.09 1766.22 2782.12 1766.21 2782.06 1766.24C2782.04 1766.24 2782.03 1766.25 2782.01 1766.26C2782 1766.27 2781.98 1766.27 2781.97 1766.28C2781.78 1766.37 2781.78 1766.36 2781.59 1766.45C2781.32 1766.58 2781.49 1766.5 2781.21 1766.63C2781.21 1766.63 2781.12 1766.67 2781.12 1766.67C2781.1 1766.68 2781.08 1766.68 2781.07 1766.69C2781.05 1766.7 2781.03 1766.71 2781.02 1766.71C2781 1766.72 2780.99 1766.73 2780.97 1766.74C2780.95 1766.74 2780.94 1766.75 2780.92 1766.76C2780.88 1766.78 2780.86 1766.79 2780.82 1766.8C2780.78 1766.82 2780.47 1766.97 2780.42 1766.99C2780.14 1767.12 2780.31 1767.04 2780.02 1767.17C2779.88 1767.24 2779.95 1767.2 2779.81 1767.27C2779.8 1767.27 2779.78 1767.28 2779.76 1767.29C2779.74 1767.3 2779.73 1767.31 2779.71 1767.31C2779.69 1767.32 2779.67 1767.33 2779.66 1767.34C2779.64 1767.35 2779.62 1767.35 2779.6 1767.36C2779.34 1767.49 2779.45 1767.43 2779.18 1767.56C2779.16 1767.56 2779.15 1767.57 2779.13 1767.58C2779.11 1767.59 2779.09 1767.6 2779.08 1767.6C2779.06 1767.61 2779.04 1767.62 2779.02 1767.63C2779 1767.64 2778.99 1767.65 2778.97 1767.65C2778.91 1767.68 2778.81 1767.73 2778.75 1767.75C2778.63 1767.81 2778.44 1767.9 2778.31 1767.95C2778.21 1768 2777.98 1768.11 2777.87 1768.16C2777.83 1768.18 2777.68 1768.24 2777.64 1768.26C2777.54 1768.31 2777.51 1768.32 2777.41 1768.37C2777.39 1768.38 2777.37 1768.39 2777.35 1768.39C2777.33 1768.4 2777.31 1768.41 2777.3 1768.42C2777.22 1768.46 2777.26 1768.44 2777.18 1768.47C2777.09 1768.51 2777.03 1768.54 2776.95 1768.58C2776.93 1768.59 2776.5 1768.79 2776.48 1768.8C2776.46 1768.81 2776.44 1768.81 2776.42 1768.82C2776.4 1768.83 2776.38 1768.84 2776.36 1768.85C2776.34 1768.86 2776.32 1768.87 2776.3 1768.88C2776.28 1768.89 2776.26 1768.9 2776.24 1768.91C2776.23 1768.91 2776.12 1768.96 2776.12 1768.96C2776.1 1768.97 2776.08 1768.98 2776.06 1768.99C2776.04 1769 2776.02 1769.01 2776 1769.02C2776 1769.02 2775.51 1769.24 2775.51 1769.24C2775.47 1769.26 2775.42 1769.28 2775.38 1769.3C2775.36 1769.31 2775.34 1769.32 2775.32 1769.33C2775.3 1769.33 2775.28 1769.34 2775.26 1769.35C2775.19 1769.39 2775.21 1769.38 2775.14 1769.41C2775.13 1769.42 2775.02 1769.46 2775.01 1769.47C2774.93 1769.51 2774.85 1769.54 2774.76 1769.58C2774.69 1769.61 2774.58 1769.67 2774.51 1769.7C2774.38 1769.76 2774.12 1769.88 2773.99 1769.93C2773.83 1770.01 2773.64 1770.09 2773.47 1770.17L2775.97 1775.63C2775.99 1775.62 2776.02 1775.61 2776.04 1775.6C2776.06 1775.59 2776.08 1775.58 2776.1 1775.57C2776.21 1775.52 2776.12 1775.56 2776.23 1775.51C2776.26 1775.5 2776.28 1775.49 2776.3 1775.48C2776.32 1775.47 2776.34 1775.46 2776.36 1775.45C2776.43 1775.42 2776.43 1775.42 2776.49 1775.39C2776.52 1775.38 2776.54 1775.37 2776.56 1775.36C2776.58 1775.35 2776.6 1775.34 2776.62 1775.33C2776.64 1775.32 2776.67 1775.31 2776.69 1775.3C2776.71 1775.29 2776.73 1775.28 2776.75 1775.27C2776.76 1775.27 2777 1775.16 2777.01 1775.15C2777.03 1775.14 2777.49 1774.93 2777.51 1774.92C2777.6 1774.88 2777.92 1774.73 2778.01 1774.69C2778.8 1774.33 2779.16 1774.16 2779.91 1773.82C2779.93 1773.81 2779.95 1773.8 2779.97 1773.8C2779.99 1773.79 2780.01 1773.78 2780.02 1773.77C2780.04 1773.76 2780.06 1773.75 2780.08 1773.74C2780.1 1773.74 2780.12 1773.73 2780.14 1773.72C2780.17 1773.7 2780.22 1773.68 2780.25 1773.67C2780.27 1773.66 2780.29 1773.65 2780.31 1773.64C2780.33 1773.63 2780.35 1773.62 2780.37 1773.61C2780.38 1773.61 2780.4 1773.6 2780.42 1773.59C2780.44 1773.58 2780.46 1773.57 2780.48 1773.56C2780.55 1773.53 2780.52 1773.54 2780.59 1773.51C2780.61 1773.5 2780.63 1773.49 2780.65 1773.49C2780.66 1773.48 2780.68 1773.47 2780.7 1773.46C2780.79 1773.42 2780.73 1773.45 2780.81 1773.41C2780.84 1773.4 2781.01 1773.32 2781.03 1773.31C2781.09 1773.28 2781.08 1773.28 2781.14 1773.26C2781.18 1773.24 2781.21 1773.23 2781.25 1773.21C2781.26 1773.21 2781.35 1773.16 2781.36 1773.16C2781.46 1773.11 2781.36 1773.16 2781.47 1773.11C2781.54 1773.07 2781.61 1773.05 2781.68 1773.01C2781.75 1772.98 2781.72 1772.99 2781.79 1772.96C2781.89 1772.92 2781.79 1772.96 2781.89 1772.91C2781.91 1772.91 2781.93 1772.9 2781.95 1772.89C2781.96 1772.88 2781.98 1772.87 2782 1772.86C2782.04 1772.85 2782.07 1772.83 2782.1 1772.82C2782.11 1772.81 2782.51 1772.63 2782.52 1772.63C2782.75 1772.52 2783.11 1772.36 2783.32 1772.26C2783.74 1772.07 2783.69 1772.09 2784.09 1771.91C2784.11 1771.9 2784.13 1771.89 2784.14 1771.88C2784.16 1771.88 2784.17 1771.87 2784.19 1771.86C2784.2 1771.85 2784.22 1771.85 2784.23 1771.84C2784.25 1771.83 2784.27 1771.83 2784.28 1771.82C2784.35 1771.79 2784.4 1771.77 2784.47 1771.73C2784.48 1771.73 2784.82 1771.57 2784.83 1771.57C2784.85 1771.56 2784.86 1771.55 2784.88 1771.55C2784.89 1771.54 2784.91 1771.53 2784.92 1771.53C2784.97 1771.51 2784.97 1771.5 2785.01 1771.48C2785.04 1771.47 2785.08 1771.45 2785.1 1771.44C2785.1 1771.44 2785.18 1771.41 2785.19 1771.4C2785.38 1771.32 2785.35 1771.33 2785.54 1771.24C2785.67 1771.18 2785.75 1771.14 2785.88 1771.09C2785.93 1771.06 2786.16 1770.96 2786.21 1770.93C2786.48 1770.81 2786.27 1770.91 2786.53 1770.79C2786.84 1770.65 2786.55 1770.78 2786.85 1770.64C2787.04 1770.55 2787.28 1770.45 2787.46 1770.36C2787.66 1770.27 2787.55 1770.32 2787.75 1770.23C2787.84 1770.19 2787.8 1770.21 2787.89 1770.16C2787.96 1770.13 2787.96 1770.13 2788.03 1770.1C2788.09 1770.07 2788.53 1769.87 2788.57 1769.85C2788.65 1769.82 2788.76 1769.77 2788.83 1769.73C2788.86 1769.72 2788.87 1769.72 2788.89 1769.7C2788.95 1769.68 2788.91 1769.7 2788.96 1769.68C2789.07 1769.62 2788.97 1769.67 2789.08 1769.62C2789.12 1769.6 2789.53 1769.41 2789.56 1769.4C2789.91 1769.24 2790.1 1769.15 2790.41 1769.01C2790.62 1768.91 2790.59 1768.93 2790.79 1768.84C2790.82 1768.82 2790.93 1768.77 2790.96 1768.76C2791.05 1768.71 2791.04 1768.72 2791.13 1768.68C2791.4 1768.56 2791.19 1768.65 2791.44 1768.54C2791.49 1768.51 2791.54 1768.49 2791.59 1768.47C2791.59 1768.47 2791.6 1768.47 2791.6 1768.46C2791.61 1768.46 2791.62 1768.46 2791.62 1768.45C2791.63 1768.45 2791.63 1768.45 2791.64 1768.45C2791.64 1768.44 2791.65 1768.44 2791.66 1768.44C2791.67 1768.43 2791.68 1768.43 2791.69 1768.42C2791.7 1768.42 2791.7 1768.42 2791.71 1768.42C2791.71 1768.41 2791.72 1768.41 2791.72 1768.41C2791.82 1768.36 2791.88 1768.34 2791.97 1768.3C2791.99 1768.29 2792.01 1768.28 2792.03 1768.27C2792.04 1768.26 2792.04 1768.27 2792.05 1768.26C2792.06 1768.26 2792.06 1768.25 2792.07 1768.25C2792.07 1768.25 2792.08 1768.25 2792.08 1768.24C2792.12 1768.23 2792.14 1768.21 2792.18 1768.2C2792.28 1768.15 2792.45 1768.07 2792.51 1768.05C2792.52 1768.04 2792.52 1768.04 2792.53 1768.04C2792.53 1768.04 2792.54 1768.03 2792.54 1768.03C2792.55 1768.03 2792.56 1768.02 2792.57 1768.02C2792.57 1768.02 2792.58 1768.02 2792.58 1768.02C2792.58 1768.01 2792.58 1768.01 2792.59 1768.01C2792.59 1768.01 2792.6 1768.01 2792.6 1768.01C2792.6 1768 2792.62 1768 2792.62 1767.99C2792.67 1767.98 2792.63 1767.99 2792.67 1767.97C2792.68 1767.97 2792.68 1767.97 2792.69 1767.97C2792.7 1767.96 2792.7 1767.96 2792.71 1767.96C2792.71 1767.96 2792.71 1767.95 2792.71 1767.95C2792.72 1767.95 2792.72 1767.95 2792.72 1767.95C2792.72 1767.95 2792.72 1767.95 2792.72 1767.95C2792.72 1767.95 2792.72 1767.95 2792.73 1767.95C2792.73 1767.95 2792.73 1767.95 2792.73 1767.95C2792.73 1767.95 2792.73 1767.95 2792.73 1767.95C2792.73 1767.95 2792.73 1767.94 2792.74 1767.94C2792.74 1767.94 2792.75 1767.94 2792.76 1767.93C2792.76 1767.93 2792.76 1767.93 2792.76 1767.93C2792.76 1767.93 2792.76 1767.93 2792.76 1767.93C2792.76 1767.93 2792.76 1767.93 2792.76 1767.93C2792.77 1767.93 2792.76 1767.93 2792.77 1767.93C2792.77 1767.93 2792.77 1767.93 2792.77 1767.93C2792.77 1767.93 2792.77 1767.93 2792.77 1767.93C2792.77 1767.93 2792.77 1767.93 2792.77 1767.93C2792.77 1767.93 2792.77 1767.93 2792.77 1767.93C2792.77 1767.93 2792.77 1767.93 2792.77 1767.93C2792.77 1767.93 2792.77 1767.93 2792.77 1767.93C2792.77 1767.93 2792.77 1767.93 2792.77 1767.93C2792.77 1767.93 2792.77 1767.93 2792.77 1767.93C2792.77 1767.93 2792.77 1767.93 2791.52 1765.2ZM2773.47 1770.17C2762.51 1775.2 2747.07 1780.28 2727.08 1785.39L2728.57 1791.21C2748.71 1786.05 2764.54 1780.87 2775.97 1775.63L2773.47 1770.17ZM2727.08 1785.39C2707.31 1790.45 2684.47 1793 2658.52 1793V1799C2684.84 1799 2708.2 1796.42 2728.57 1791.21L2727.08 1785.39ZM2658.52 1793C2616.9 1793 2580.51 1785.14 2549.26 1769.52L2546.58 1774.88C2578.8 1790.99 2616.14 1799 2658.52 1799V1793ZM2549.31 1769.54C2518.6 1753.5 2494.52 1729.44 2477.06 1697.27L2471.79 1700.13C2489.79 1733.29 2514.71 1758.23 2546.53 1774.86L2549.31 1769.54ZM2477.07 1697.28C2459.63 1664.7 2450.82 1623.92 2450.82 1574.8H2444.82C2444.82 1624.61 2453.75 1666.43 2471.78 1700.12L2477.07 1697.28ZM2450.82 1574.8C2450.82 1529.44 2459.38 1490.75 2476.37 1458.6L2471.07 1455.8C2453.53 1488.99 2444.82 1528.69 2444.82 1574.8H2450.82ZM2476.37 1458.6C2493.37 1426.44 2517.45 1401.91 2548.66 1384.94L2545.79 1379.66C2513.52 1397.22 2488.61 1422.62 2471.07 1455.8L2476.37 1458.6ZM2548.69 1384.92C2579.91 1367.47 2616.25 1358.7 2657.82 1358.7V1352.7C2615.39 1352.7 2578.01 1361.66 2545.76 1379.68L2548.69 1384.92ZM2657.82 1358.7C2687.04 1358.7 2711.46 1361.72 2731.15 1367.67L2732.89 1361.93C2712.45 1355.75 2687.41 1352.7 2657.82 1352.7V1358.7ZM2731.23 1367.69C2751.68 1373.27 2766.77 1379.02 2776.7 1384.88L2779.75 1379.72C2769.14 1373.45 2753.44 1367.53 2732.81 1361.91L2731.23 1367.69ZM2776.7 1384.88C2776.78 1384.93 2776.73 1384.9 2776.82 1384.95C2776.89 1385 2776.86 1384.98 2776.94 1385.02C2776.99 1385.06 2777.12 1385.13 2777.17 1385.16C2777.26 1385.21 2777.56 1385.4 2777.64 1385.44C2777.91 1385.6 2778.3 1385.83 2778.56 1385.98C2779.28 1386.41 2779.63 1386.62 2780.31 1387.02C2780.32 1387.03 2780.34 1387.04 2780.36 1387.05C2780.38 1387.06 2780.39 1387.07 2780.41 1387.08C2780.44 1387.09 2780.49 1387.12 2780.52 1387.14C2780.57 1387.17 2780.67 1387.23 2780.72 1387.26C2780.83 1387.32 2781.03 1387.45 2781.13 1387.5C2781.23 1387.56 2781.44 1387.68 2781.54 1387.74C2781.65 1387.81 2781.62 1387.79 2781.73 1387.86C2781.8 1387.9 2781.87 1387.94 2781.93 1387.98C2781.93 1387.98 2782.03 1388.03 2782.03 1388.03C2782.07 1388.06 2782.08 1388.06 2782.12 1388.09C2782.14 1388.1 2782.16 1388.11 2782.17 1388.12C2782.19 1388.13 2782.21 1388.14 2782.22 1388.15C2782.24 1388.16 2782.25 1388.17 2782.27 1388.18C2782.29 1388.19 2782.3 1388.19 2782.32 1388.2C2782.35 1388.22 2782.67 1388.41 2782.7 1388.43C2782.7 1388.43 2782.88 1388.54 2782.88 1388.54C2782.9 1388.55 2783.06 1388.64 2783.07 1388.65C2783.26 1388.76 2783.25 1388.75 2783.43 1388.86C2785.32 1389.98 2787 1390.97 2788.25 1391.71C2788.33 1391.76 2788.28 1391.73 2788.37 1391.78C2788.38 1391.79 2788.41 1391.8 2788.42 1391.81C2788.43 1391.82 2788.44 1391.82 2788.45 1391.83C2788.46 1391.84 2788.47 1391.84 2788.48 1391.85C2788.51 1391.87 2788.51 1391.86 2788.54 1391.88C2788.55 1391.89 2788.56 1391.89 2788.57 1391.9C2788.58 1391.9 2788.59 1391.91 2788.6 1391.92C2788.61 1391.92 2788.62 1391.93 2788.63 1391.93C2788.64 1391.94 2788.65 1391.94 2788.66 1391.95C2788.67 1391.96 2788.7 1391.98 2788.71 1391.98C2788.72 1391.99 2789.15 1392.24 2789.15 1392.24C2789.16 1392.25 2789.17 1392.25 2789.18 1392.26C2789.18 1392.26 2789.19 1392.27 2789.2 1392.27C2789.21 1392.28 2789.24 1392.3 2789.25 1392.3C2789.32 1392.34 2789.29 1392.32 2789.36 1392.36C2789.42 1392.4 2789.49 1392.44 2789.55 1392.48C2789.69 1392.56 2789.81 1392.63 2789.93 1392.7C2790.34 1392.94 2790.23 1392.88 2790.59 1393.09C2790.61 1393.1 2790.65 1393.13 2790.67 1393.14C2790.7 1393.16 2790.71 1393.16 2790.74 1393.18C2790.77 1393.2 2790.85 1393.24 2790.88 1393.26C2790.98 1393.32 2791.05 1393.36 2791.13 1393.41C2791.16 1393.43 2791.23 1393.47 2791.25 1393.48C2791.26 1393.49 2791.35 1393.54 2791.36 1393.55C2791.5 1393.63 2791.42 1393.59 2791.56 1393.66C2791.66 1393.72 2791.63 1393.71 2791.72 1393.76C2791.76 1393.79 2791.75 1393.78 2791.79 1393.8C2791.8 1393.8 2791.85 1393.84 2791.86 1393.84C2791.92 1393.88 2791.9 1393.87 2791.96 1393.9C2791.98 1393.92 2792.02 1393.94 2792.04 1393.95C2792.04 1393.95 2792.06 1393.96 2792.06 1393.96C2792.07 1393.96 2792.08 1393.97 2792.08 1393.97C2792.08 1393.98 2792.09 1393.98 2792.09 1393.98C2792.09 1393.98 2792.1 1393.98 2792.1 1393.98C2792.1 1393.98 2792.1 1393.98 2792.1 1393.98C2792.1 1393.98 2792.1 1393.98 2792.1 1393.98C2792.1 1393.98 2792.1 1393.98 2792.1 1393.98C2792.1 1393.98 2792.1 1393.98 2793.62 1391.4C2795.15 1388.82 2795.15 1388.82 2795.15 1388.82C2795.15 1388.82 2795.15 1388.82 2795.15 1388.82C2795.15 1388.82 2795.15 1388.82 2795.15 1388.82C2795.15 1388.82 2795.15 1388.82 2795.15 1388.82C2795.15 1388.82 2795.15 1388.82 2795.15 1388.82C2795.15 1388.82 2795.15 1388.82 2795.15 1388.82C2795.15 1388.82 2795.15 1388.82 2795.15 1388.81C2795.14 1388.81 2795.14 1388.81 2795.14 1388.81C2795.14 1388.81 2795.14 1388.81 2795.14 1388.81C2795.14 1388.81 2795.14 1388.81 2795.14 1388.81C2795.14 1388.81 2795.14 1388.81 2795.14 1388.81C2795.14 1388.81 2795.14 1388.81 2795.14 1388.81C2795.14 1388.81 2795.14 1388.81 2795.14 1388.81C2795.14 1388.81 2795.14 1388.81 2795.14 1388.81C2795.14 1388.81 2795.13 1388.81 2795.13 1388.81C2795.13 1388.81 2795.1 1388.79 2795.09 1388.78C2795.04 1388.75 2795 1388.73 2794.91 1388.68C2794.74 1388.58 2794.51 1388.44 2794.19 1388.25C2794.11 1388.2 2793.76 1388 2793.64 1387.93C2793.52 1387.85 2793.47 1387.82 2793.33 1387.74C2793.26 1387.7 2793.23 1387.68 2793.16 1387.64C2793.12 1387.62 2793.11 1387.61 2793.07 1387.59C2793.07 1387.59 2792.99 1387.54 2792.98 1387.54C2792.64 1387.33 2792.59 1387.3 2792.2 1387.08C2792 1386.96 2791.54 1386.69 2791.3 1386.54C2790.84 1386.27 2789.75 1385.63 2789.13 1385.26C2789.1 1385.24 2789.02 1385.19 2788.98 1385.17C2788.95 1385.16 2788.86 1385.1 2788.83 1385.08C2788.72 1385.02 2788.63 1384.97 2788.52 1384.9C2788.48 1384.88 2788.47 1384.87 2788.44 1384.85C2788.38 1384.82 2788.41 1384.84 2788.36 1384.8C2788.34 1384.8 2788.33 1384.79 2788.32 1384.78C2788.3 1384.77 2788.29 1384.76 2788.28 1384.76C2788.27 1384.75 2788.2 1384.71 2788.2 1384.71C2787.98 1384.58 2788.09 1384.65 2787.87 1384.52C2787.81 1384.48 2787.6 1384.36 2787.54 1384.32C2787.47 1384.28 2787.43 1384.26 2787.37 1384.22C2787.25 1384.15 2787.31 1384.18 2787.19 1384.12C2787.11 1384.07 2786.93 1383.96 2786.84 1383.91C2786.83 1383.9 2786.81 1383.89 2786.8 1383.88C2786.78 1383.87 2786.77 1383.87 2786.76 1383.86C2786.72 1383.84 2786.7 1383.82 2786.67 1383.8C2786.65 1383.8 2786.64 1383.79 2786.62 1383.78C2786.61 1383.77 2786.59 1383.76 2786.58 1383.75C2786.56 1383.74 2786.5 1383.71 2786.49 1383.7C2786.47 1383.69 2786.46 1383.68 2786.44 1383.67C2786.43 1383.66 2786.41 1383.65 2786.4 1383.64C2786.37 1383.63 2786.33 1383.6 2786.3 1383.59C2786.26 1383.56 2786.17 1383.51 2786.12 1383.48C2786.08 1383.46 2786.07 1383.45 2786.03 1383.43C2786.01 1383.42 2785.96 1383.39 2785.94 1383.37C2785.92 1383.36 2785.91 1383.36 2785.89 1383.35C2785.87 1383.34 2785.86 1383.33 2785.84 1383.32C2785.82 1383.3 2785.77 1383.28 2785.75 1383.26C2785.43 1383.08 2785.31 1383 2784.98 1382.81C2784.82 1382.71 2784.36 1382.44 2784.19 1382.34C2784.18 1382.33 2784.09 1382.28 2784.08 1382.28C2784.02 1382.24 2784.05 1382.26 2783.98 1382.22C2783.93 1382.19 2783.83 1382.13 2783.78 1382.1C2783.67 1382.04 2783.46 1381.91 2783.36 1381.85C2783.15 1381.73 2782.72 1381.47 2782.5 1381.34C2782.48 1381.33 2782.3 1381.22 2782.28 1381.21C2782.21 1381.17 2782.14 1381.13 2782.06 1381.08C2782.01 1381.05 2781.89 1380.98 2781.84 1380.95C2781.81 1380.94 2781.75 1380.9 2781.73 1380.89C2781.71 1380.87 2781.69 1380.86 2781.67 1380.85C2781.65 1380.84 2781.63 1380.83 2781.61 1380.82C2781.59 1380.81 2781.58 1380.8 2781.56 1380.79C2781.54 1380.77 2781.52 1380.76 2781.5 1380.75C2781.48 1380.74 2781.46 1380.73 2781.44 1380.72C2781.43 1380.71 2781.41 1380.7 2781.39 1380.69C2781.33 1380.65 2781.22 1380.58 2781.16 1380.55C2781.05 1380.48 2780.81 1380.35 2780.7 1380.28C2780.47 1380.14 2779.99 1379.86 2779.75 1379.72L2776.7 1384.88ZM2790.68 1391.98L2810.28 1490.68L2816.17 1489.52L2796.57 1390.82L2790.68 1391.98ZM2812.57 1487.17L2743.97 1502.57L2745.28 1508.43L2813.88 1493.03L2812.57 1487.17ZM2747.56 1504.88L2732.86 1435.58L2726.99 1436.82L2741.69 1506.12L2747.56 1504.88ZM2870.25 1369.7V1366.7H2867.25V1369.7H2870.25ZM3050.15 1369.7H3053.15V1366.7H3050.15V1369.7ZM3050.15 1440.4V1443.4H3053.15V1440.4H3050.15ZM3010.25 1440.4V1437.4H3007.25V1440.4H3010.25ZM3010.25 1542.6H3007.25V1545.6H3010.25V1542.6ZM3062.05 1542.6V1545.6H3063.56L3064.46 1544.38L3062.05 1542.6ZM3137.65 1440.4L3140.06 1442.18L3143.6 1437.4H3137.65V1440.4ZM3102.65 1440.4H3099.65V1443.4H3102.65V1440.4ZM3102.65 1369.7V1366.7H3099.65V1369.7H3102.65ZM3284.65 1369.7H3287.65V1366.7H3284.65V1369.7ZM3284.65 1440.4V1443.4H3287.65V1440.4H3284.65ZM3219.55 1440.4V1437.4H3218.1L3217.2 1438.54L3219.55 1440.4ZM3122.95 1562.9L3120.6 1561.04L3119.18 1562.83L3120.53 1564.67L3122.95 1562.9ZM3231.45 1711.3L3229.03 1713.07L3229.93 1714.3H3231.45V1711.3ZM3301.45 1711.3H3304.45V1708.3H3301.45V1711.3ZM3301.45 1782V1785H3304.45V1782H3301.45ZM3094.95 1782H3091.95V1785H3094.95V1782ZM3094.95 1711.3V1708.3H3091.95V1711.3H3094.95ZM3143.95 1711.3V1714.3H3149.82L3146.38 1709.54L3143.95 1711.3ZM3071.15 1610.5L3073.58 1608.74L3072.68 1607.5H3071.15V1610.5ZM3010.25 1610.5V1607.5H3007.25V1610.5H3010.25ZM3010.25 1711.3H3007.25V1714.3H3010.25V1711.3ZM3050.15 1711.3H3053.15V1708.3H3050.15V1711.3ZM3050.15 1782V1785H3053.15V1782H3050.15ZM2870.25 1782H2867.25V1785H2870.25V1782ZM2870.25 1711.3V1708.3H2867.25V1711.3H2870.25ZM2929.75 1711.3V1714.3H2932.75V1711.3H2929.75ZM2929.75 1440.4H2932.75V1437.4H2929.75V1440.4ZM2870.25 1440.4H2867.25V1443.4H2870.25V1440.4ZM2870.25 1372.7H3050.15V1366.7H2870.25V1372.7ZM3047.15 1369.7V1440.4H3053.15V1369.7H3047.15ZM3050.15 1437.4H3010.25V1443.4H3050.15V1437.4ZM3007.25 1440.4V1542.6H3013.25V1440.4H3007.25ZM3010.25 1545.6H3062.05V1539.6H3010.25V1545.6ZM3064.46 1544.38L3140.06 1442.18L3135.24 1438.62L3059.64 1540.82L3064.46 1544.38ZM3137.65 1437.4H3102.65V1443.4H3137.65V1437.4ZM3105.65 1440.4V1369.7H3099.65V1440.4H3105.65ZM3102.65 1372.7H3284.65V1366.7H3102.65V1372.7ZM3281.65 1369.7V1440.4H3287.65V1369.7H3281.65ZM3284.65 1437.4H3219.55V1443.4H3284.65V1437.4ZM3217.2 1438.54L3120.6 1561.04L3125.31 1564.76L3221.91 1442.26L3217.2 1438.54ZM3120.53 1564.67L3229.03 1713.07L3233.87 1709.53L3125.37 1561.13L3120.53 1564.67ZM3231.45 1714.3H3301.45V1708.3H3231.45V1714.3ZM3298.45 1711.3V1782H3304.45V1711.3H3298.45ZM3301.45 1779H3094.95V1785H3301.45V1779ZM3097.95 1782V1711.3H3091.95V1782H3097.95ZM3094.95 1714.3H3143.95V1708.3H3094.95V1714.3ZM3146.38 1709.54L3073.58 1608.74L3068.72 1612.26L3141.52 1713.06L3146.38 1709.54ZM3071.15 1607.5H3010.25V1613.5H3071.15V1607.5ZM3007.25 1610.5V1711.3H3013.25V1610.5H3007.25ZM3010.25 1714.3H3050.15V1708.3H3010.25V1714.3ZM3047.15 1711.3V1782H3053.15V1711.3H3047.15ZM3050.15 1779H2870.25V1785H3050.15V1779ZM2873.25 1782V1711.3H2867.25V1782H2873.25ZM2870.25 1714.3H2929.75V1708.3H2870.25V1714.3ZM2932.75 1711.3V1440.4H2926.75V1711.3H2932.75ZM2929.75 1437.4H2870.25V1443.4H2929.75V1437.4ZM2873.25 1440.4V1369.7H2867.25V1440.4H2873.25ZM3414.88 1787.6L3415.53 1784.67L3415.51 1784.67L3415.49 1784.66L3414.88 1787.6ZM3350.48 1769.4L3347.5 1769.79L3347.74 1771.56L3349.4 1772.2L3350.48 1769.4ZM3337.88 1673.5L3337.53 1670.52L3334.51 1670.87L3334.9 1673.89L3337.88 1673.5ZM3403.68 1665.8L3406.64 1665.35L3406.21 1662.48L3403.33 1662.82L3403.68 1665.8ZM3411.38 1716.9L3408.41 1717.35L3408.68 1719.14L3410.4 1719.74L3411.38 1716.9ZM3453.38 1727.4L3452.9 1730.36L3453.38 1727.4ZM3547.88 1724.6L3548.69 1727.49L3548.73 1727.48L3548.77 1727.46L3547.88 1724.6ZM3583.58 1704.3L3585.7 1706.42L3585.73 1706.39L3585.75 1706.37L3583.58 1704.3ZM3582.88 1631.5L3580.57 1633.41L3580.59 1633.44L3580.61 1633.47L3582.88 1631.5ZM3526.18 1608.4L3525.68 1611.36L3525.69 1611.36L3525.7 1611.36L3526.18 1608.4ZM3475.78 1600L3475.25 1602.95L3475.27 1602.96L3475.28 1602.96L3475.78 1600ZM3379.18 1558L3381.21 1555.79L3379.18 1558ZM3367.28 1410.3L3369.63 1412.17L3367.28 1410.3ZM3426.08 1369.7L3427.09 1372.52L3427.11 1372.52L3427.14 1372.51L3426.08 1369.7ZM3554.88 1358.5L3554.51 1361.48L3554.88 1358.5ZM3598.28 1366.9L3599.05 1364L3598.28 1366.9ZM3640.28 1381.6L3643.25 1381.22L3643.03 1379.53L3641.47 1378.85L3640.28 1381.6ZM3653.58 1484.5L3653.9 1487.48L3656.95 1487.15L3656.55 1484.12L3653.58 1484.5ZM3582.88 1492.2L3579.91 1492.63L3580.32 1495.5L3583.2 1495.18L3582.88 1492.2ZM3573.78 1429.2L3576.75 1428.77L3576.49 1426.97L3574.77 1426.37L3573.78 1429.2ZM3542.28 1421.5L3541.78 1424.46L3541.79 1424.46L3541.8 1424.46L3542.28 1421.5ZM3441.48 1433.4L3443.03 1435.97L3443.04 1435.96L3443.05 1435.95L3441.48 1433.4ZM3435.18 1510.4L3433.26 1512.7L3433.31 1512.75L3433.36 1512.79L3435.18 1510.4ZM3491.88 1530.7L3491.35 1533.65L3491.38 1533.66L3491.4 1533.66L3491.88 1530.7ZM3544.38 1539.1L3543.9 1542.06L3543.91 1542.06L3543.92 1542.06L3544.38 1539.1ZM3640.98 1580.4L3638.78 1582.45L3638.8 1582.46L3638.81 1582.47L3640.98 1580.4ZM3654.28 1726L3651.68 1724.5L3651.67 1724.52L3651.65 1724.55L3654.28 1726ZM3615.08 1768L3616.67 1770.54L3615.08 1768ZM3561.18 1789.7L3560.55 1786.77L3561.18 1789.7ZM3504.48 1793C3470.1 1793 3440.46 1790.21 3415.53 1784.67L3414.23 1790.53C3439.7 1796.19 3469.79 1799 3504.48 1799V1793ZM3415.49 1784.66C3390.87 1779.55 3369.57 1773.53 3351.56 1766.6L3349.4 1772.2C3367.79 1779.27 3389.42 1785.38 3414.27 1790.54L3415.49 1784.66ZM3353.45 1769.01L3340.85 1673.11L3334.9 1673.89L3347.5 1769.79L3353.45 1769.01ZM3338.23 1676.48L3404.03 1668.78L3403.33 1662.82L3337.53 1670.52L3338.23 1676.48ZM3400.71 1666.25L3408.41 1717.35L3414.34 1716.45L3406.64 1665.35L3400.71 1666.25ZM3410.4 1719.74C3424.1 1724.46 3438.27 1728 3452.9 1730.36L3453.86 1724.44C3439.56 1722.13 3425.72 1718.67 3412.36 1714.06L3410.4 1719.74ZM3452.9 1730.36C3467.54 1732.72 3482.86 1733.9 3498.88 1733.9V1727.9C3483.16 1727.9 3468.15 1726.74 3453.86 1724.44L3452.9 1730.36ZM3498.88 1733.9C3516.85 1733.9 3533.46 1731.77 3548.69 1727.49L3547.07 1721.71C3532.43 1725.83 3516.38 1727.9 3498.88 1727.9V1733.9ZM3548.77 1727.46C3564.06 1722.69 3576.42 1715.71 3585.7 1706.42L3581.46 1702.18C3573.01 1710.63 3561.57 1717.18 3546.98 1721.74L3548.77 1727.46ZM3585.75 1706.37C3595.2 1696.42 3599.88 1684 3599.88 1669.3H3593.88C3593.88 1682.6 3589.69 1693.51 3581.4 1702.23L3585.75 1706.37ZM3599.88 1669.3C3599.88 1654.12 3594.96 1640.82 3585.14 1629.53L3580.61 1633.47C3589.46 1643.65 3593.88 1655.54 3593.88 1669.3H3599.88ZM3585.19 1629.59C3580.33 1623.7 3572.9 1618.85 3563.19 1614.9C3553.46 1610.93 3541.26 1607.79 3526.66 1605.44L3525.7 1611.36C3540.03 1613.67 3551.75 1616.72 3560.92 1620.45C3570.11 1624.2 3576.56 1628.56 3580.57 1633.41L3585.19 1629.59ZM3526.67 1605.44L3476.27 1597.04L3475.28 1602.96L3525.68 1611.36L3526.67 1605.44ZM3476.3 1597.05C3434.65 1589.64 3403.05 1575.81 3381.21 1555.79L3377.15 1560.21C3400.11 1581.26 3432.91 1595.43 3475.25 1602.95L3476.3 1597.05ZM3381.21 1555.79C3359.49 1535.88 3348.58 1509.88 3348.58 1477.5H3342.58C3342.58 1511.39 3354.07 1539.05 3377.15 1560.21L3381.21 1555.79ZM3348.58 1477.5C3348.58 1451.48 3355.64 1429.76 3369.63 1412.17L3364.93 1408.43C3349.98 1427.24 3342.58 1450.32 3342.58 1477.5H3348.58ZM3369.63 1412.17C3383.7 1394.46 3402.81 1381.23 3427.09 1372.52L3425.07 1366.88C3399.88 1375.91 3379.79 1389.74 3364.93 1408.43L3369.63 1412.17ZM3427.14 1372.51C3451.48 1363.32 3478.88 1358.7 3509.38 1358.7V1352.7C3478.28 1352.7 3450.14 1357.41 3425.02 1366.89L3427.14 1372.51ZM3509.38 1358.7C3524.66 1358.7 3539.7 1359.63 3554.51 1361.48L3555.25 1355.52C3540.19 1353.64 3524.9 1352.7 3509.38 1352.7V1358.7ZM3554.51 1361.48C3569.31 1363.33 3583.64 1366.1 3597.51 1369.8L3599.05 1364C3584.91 1360.23 3570.31 1357.41 3555.25 1355.52L3554.51 1361.48ZM3597.51 1369.8C3611.35 1373.49 3625.21 1378.34 3639.09 1384.35L3641.47 1378.85C3627.34 1372.72 3613.2 1367.77 3599.05 1364L3597.51 1369.8ZM3637.3 1381.98L3650.6 1484.88L3656.55 1484.12L3643.25 1381.22L3637.3 1381.98ZM3653.25 1481.52L3582.55 1489.22L3583.2 1495.18L3653.9 1487.48L3653.25 1481.52ZM3585.85 1491.77L3576.75 1428.77L3570.81 1429.63L3579.91 1492.63L3585.85 1491.77ZM3574.77 1426.37C3565.24 1423.03 3554.56 1420.43 3542.75 1418.54L3541.8 1424.46C3553.33 1426.31 3563.65 1428.83 3572.79 1432.03L3574.77 1426.37ZM3542.77 1418.54C3531.39 1416.64 3519.33 1415.7 3506.58 1415.7V1421.7C3519.03 1421.7 3530.76 1422.62 3541.78 1424.46L3542.77 1418.54ZM3506.58 1415.7C3478.74 1415.7 3456.42 1420.65 3439.9 1430.85L3443.05 1435.95C3458.27 1426.55 3479.35 1421.7 3506.58 1421.7V1415.7ZM3439.92 1430.83C3423.74 1440.64 3415.38 1454.39 3415.38 1471.9H3421.38C3421.38 1456.74 3428.42 1444.82 3443.03 1435.97L3439.92 1430.83ZM3415.38 1471.9C3415.38 1489 3421.29 1502.73 3433.26 1512.7L3437.1 1508.1C3426.67 1499.4 3421.38 1487.46 3421.38 1471.9H3415.38ZM3433.36 1512.79C3445.6 1522.09 3465.07 1528.96 3491.35 1533.65L3492.41 1527.75C3466.42 1523.11 3448.09 1516.44 3436.99 1508.01L3433.36 1512.79ZM3491.4 1533.66L3543.9 1542.06L3544.85 1536.14L3492.35 1527.74L3491.4 1533.66ZM3543.92 1542.06C3588.91 1549.02 3620.32 1562.63 3638.78 1582.45L3643.17 1578.35C3623.37 1557.1 3590.38 1543.18 3544.84 1536.14L3543.92 1542.06ZM3638.81 1582.47C3657.32 1601.89 3666.68 1627.24 3666.68 1658.8H3672.68C3672.68 1625.96 3662.9 1599.04 3643.15 1578.33L3638.81 1582.47ZM3666.68 1658.8C3666.68 1685.5 3661.61 1707.34 3651.68 1724.5L3656.87 1727.5C3667.48 1709.19 3672.68 1686.23 3672.68 1658.8H3666.68ZM3651.65 1724.55C3642.09 1741.86 3629.36 1755.48 3613.48 1765.46L3616.67 1770.54C3633.46 1759.99 3646.87 1745.61 3656.9 1727.45L3651.65 1724.55ZM3613.48 1765.46C3597.46 1775.53 3579.82 1782.64 3560.55 1786.77L3561.81 1792.63C3581.74 1788.36 3600.03 1781 3616.67 1770.54L3613.48 1765.46ZM3560.55 1786.77C3541.14 1790.93 3522.45 1793 3504.48 1793V1799C3522.91 1799 3542.02 1796.87 3561.81 1792.63L3560.55 1786.77Z" fill="#B42C4C"/>
<defs>
<radialGradient id="paint0_radial_88_15" cx="0" cy="0" r="1" gradientUnits="userSpaceOnUse" gradientTransform="translate(2613 1567.5) rotate(90) scale(1567.5 2613)">
<stop stop-color="#313131"/>
<stop offset="1" stop-color="#313131"/>
</radialGradient>
</defs>
</svg>
