<svg width="3572" height="1704" viewBox="0 0 3572 1704" fill="none" xmlns="http://www.w3.org/2000/svg">
<rect width="3572" height="1704" fill="#FB7B6B"/>
<path d="M362.968 729.128C382.168 729.128 396.632 732.84 406.36 740.264C416.088 747.56 420.952 758.312 420.952 772.52C420.952 779.56 419.672 787.688 417.112 796.904C412.888 811.752 407.192 823.528 400.024 832.232C392.856 840.936 383.384 847.272 371.608 851.24C359.96 855.208 344.984 857.128 326.68 857L274.456 856.808C271.768 856.808 269.72 856.36 268.312 855.464C266.776 854.568 266.008 853.352 266.008 851.816C266.008 851.048 266.2 850.216 266.584 849.32C266.968 848.168 267.544 847.336 268.312 846.824C268.952 846.312 269.976 845.608 271.384 844.712C273.432 843.56 275.032 842.28 276.184 840.872C277.464 839.464 278.552 837.224 279.448 834.152L302.872 751.592C303.384 749.928 303.64 748.328 303.64 746.792C303.64 745.384 303.384 744.232 302.872 743.336C302.488 742.312 301.912 741.16 301.144 739.88C299.992 738.216 299.416 736.872 299.416 735.848C299.416 735.464 299.544 734.76 299.8 733.736C300.312 732.072 301.4 730.92 303.064 730.28C304.856 729.512 307.544 729.128 311.128 729.128H362.968ZM367.96 792.68C371.288 780.648 372.952 771.176 372.952 764.264C372.952 757.48 371.544 752.808 368.728 750.248C365.912 747.688 361.88 746.408 356.632 746.408H352.408L326.488 839.72H331.096C336.984 839.72 341.912 838.504 345.88 836.072C349.976 833.512 353.752 828.904 357.208 822.248C360.664 815.464 364.248 805.608 367.96 792.68ZM540.939 729.128C545.675 729.128 549.323 730.152 551.883 732.2C554.571 734.248 555.915 737.064 555.915 740.648C555.915 742.44 555.659 744.168 555.147 745.832L550.155 763.688C549.259 767.144 547.915 769.576 546.123 770.984C544.459 772.264 542.027 772.904 538.827 772.904C535.755 772.904 533.323 772.264 531.531 770.984C529.867 769.576 528.587 767.336 527.691 764.264L524.619 753.32C523.979 751.016 523.211 749.48 522.315 748.712C521.419 747.944 519.691 747.56 517.131 747.56H496.971L487.371 781.736H495.819C496.715 781.736 497.931 781.096 499.467 779.816L505.995 774.056C507.915 772.392 509.579 771.176 510.987 770.408C512.395 769.64 514.123 769.256 516.171 769.256C518.475 769.256 520.331 769.896 521.739 771.176C523.275 772.328 524.042 773.864 524.042 775.784C524.042 776.296 523.915 777.064 523.659 778.088L515.787 804.776C515.019 807.592 513.675 809.704 511.755 811.112C509.963 812.392 507.979 813.032 505.803 813.032C502.219 813.032 499.531 811.176 497.739 807.464L494.475 800.744C493.579 798.824 492.171 797.864 490.251 797.864H482.763L471.435 838.568H488.331C490.763 838.568 492.875 838.12 494.667 837.224C496.587 836.2 498.635 834.472 500.811 832.04L512.331 819.368C514.379 817.192 516.299 815.656 518.091 814.76C520.011 813.736 522.315 813.224 525.003 813.224C527.819 813.224 530.123 813.864 531.915 815.144C533.707 816.424 534.603 818.344 534.603 820.904C534.603 821.928 534.411 823.144 534.027 824.552L528.458 843.944C527.051 848.808 525.003 852.2 522.315 854.12C519.627 856.04 515.723 857 510.603 857H419.019C416.331 857 414.282 856.552 412.874 855.656C411.338 854.76 410.57 853.544 410.57 852.008C410.57 851.24 410.762 850.408 411.146 849.512C411.658 848.104 412.49 847.016 413.642 846.248C414.794 845.48 415.498 845.032 415.755 844.904C417.803 843.624 419.467 842.344 420.747 841.064C422.027 839.656 423.115 837.416 424.011 834.344L447.627 751.592C448.139 749.928 448.395 748.392 448.395 746.984C448.395 745.448 448.139 744.168 447.627 743.144C447.243 742.12 446.603 741.032 445.707 739.88C444.555 738.216 443.979 736.872 443.979 735.848C443.979 735.464 444.107 734.76 444.363 733.736C444.875 732.072 446.027 730.92 447.819 730.28C449.611 729.512 452.235 729.128 455.691 729.128H540.939ZM611.191 858.152C600.439 858.152 590.775 856.168 582.199 852.2C573.623 848.232 566.775 842.408 561.655 834.728C556.663 826.92 554.167 817.512 554.167 806.504C554.167 798.824 555.511 790.504 558.199 781.544C564.087 762.344 572.983 748.52 584.887 740.072C596.791 731.496 609.527 727.208 623.095 727.208C630.391 727.208 636.855 728.296 642.487 730.472C648.119 732.648 653.303 735.784 658.039 739.88L663.223 735.848C666.679 733.16 669.559 731.304 671.863 730.28C674.295 729.256 676.983 728.744 679.927 728.744C683.127 728.744 685.687 729.448 687.607 730.856C689.527 732.264 690.487 734.312 690.487 737C690.487 738.408 690.231 739.816 689.719 741.224L678.967 771.176C677.815 774.632 676.407 777.064 674.743 778.472C673.207 779.88 670.839 780.584 667.639 780.584C664.311 780.584 661.559 779.432 659.383 777.128C657.335 774.696 654.967 770.6 652.279 764.84C649.207 758.824 646.711 754.856 644.791 752.936C642.871 751.016 640.055 750.056 636.343 750.056C631.095 750.056 626.039 753.32 621.175 759.848C616.311 766.248 611.895 775.912 607.927 788.84C604.599 799.72 602.935 808.808 602.935 816.104C602.935 822.504 604.151 827.304 606.583 830.504C609.015 833.576 612.279 835.112 616.375 835.112C622.391 835.112 627.319 833.768 631.159 831.08C635.127 828.392 639.159 824.744 643.255 820.136C645.815 817.32 647.863 815.272 649.399 813.992C651.063 812.584 652.791 811.88 654.583 811.88C656.887 811.88 659.319 813.032 661.879 815.336C664.439 817.64 665.655 819.944 665.527 822.248C665.655 825.064 663.351 829.416 658.615 835.304C654.007 841.192 647.543 846.504 639.223 851.24C631.031 855.848 621.687 858.152 611.191 858.152ZM815.982 728.36C821.358 728.36 825.838 730.088 829.422 733.544C833.006 737 834.798 741.672 834.798 747.56C834.798 754.216 832.814 759.592 828.846 763.688C824.878 767.784 820.142 769.832 814.638 769.832C811.054 769.832 807.982 769.192 805.422 767.912C802.862 766.632 800.43 764.584 798.126 761.768L781.614 775.592L800.238 830.696C801.39 833.896 802.606 836.456 803.886 838.376C805.294 840.296 806.958 842.216 808.878 844.136C810.286 845.544 811.246 846.696 811.758 847.592C812.398 848.36 812.718 849.32 812.718 850.472C812.718 852.52 811.758 854.12 809.838 855.272C808.046 856.424 804.846 857 800.238 857H775.086C768.814 857 764.142 855.656 761.07 852.968C758.126 850.152 755.694 845.544 753.774 839.144L744.174 806.888L738.606 811.496L732.27 834.344C731.758 836.008 731.502 837.608 731.502 839.144C731.502 840.68 731.694 841.96 732.078 842.984C732.59 844.008 733.294 845.096 734.19 846.248C735.342 847.912 735.918 849.256 735.918 850.28C735.918 850.536 735.79 851.176 735.534 852.2C735.022 853.992 733.87 855.272 732.078 856.04C730.286 856.68 727.598 857 724.014 857H678.894C676.206 857 674.157 856.552 672.749 855.656C671.213 854.76 670.445 853.544 670.445 852.008C670.445 851.24 670.637 850.408 671.021 849.512C671.533 848.104 672.365 847.016 673.517 846.248C674.669 845.48 675.373 845.032 675.63 844.904C677.678 843.624 679.342 842.344 680.622 841.064C681.902 839.656 682.99 837.416 683.886 834.344L707.31 751.592C707.822 749.928 708.078 748.328 708.078 746.792C708.078 745.384 707.822 744.232 707.31 743.336C706.926 742.312 706.35 741.16 705.582 739.88C704.43 738.216 703.854 736.872 703.854 735.848C703.854 735.464 703.982 734.76 704.238 733.736C704.75 732.072 705.838 730.92 707.502 730.28C709.294 729.512 711.982 729.128 715.566 729.128H760.686C763.374 729.128 765.422 729.576 766.83 730.472C768.366 731.24 769.134 732.392 769.134 733.928C769.134 734.568 768.942 735.4 768.558 736.424C768.174 737.32 767.598 738.152 766.83 738.92C766.19 739.56 765.55 740.072 764.91 740.456C764.398 740.712 764.014 740.968 763.758 741.224C761.71 742.376 760.046 743.656 758.766 745.064C757.486 746.472 756.398 748.648 755.502 751.592L747.438 780.2L798.318 736.232C801.646 733.416 804.654 731.432 807.342 730.28C810.03 729 812.91 728.36 815.982 728.36ZM894.621 727.976C901.789 727.976 908.381 728.872 914.397 730.664C920.541 732.328 926.749 735.016 933.021 738.728L937.437 735.08C940.509 732.648 943.005 730.984 944.925 730.088C946.973 729.192 949.277 728.744 951.837 728.744C954.909 728.744 957.341 729.448 959.133 730.856C960.925 732.136 961.821 734.056 961.821 736.616C961.821 737.64 961.629 738.728 961.245 739.88L953.181 766.376C952.285 769.448 951.133 771.624 949.725 772.904C948.445 774.184 946.461 774.824 943.773 774.824C940.957 774.824 938.461 773.992 936.285 772.328C934.237 770.536 930.973 766.952 926.493 761.576C922.013 756.456 917.917 752.872 914.205 750.824C910.621 748.648 906.909 747.56 903.069 747.56C900.253 747.56 897.885 748.52 895.965 750.44C894.045 752.232 893.085 754.472 893.085 757.16C893.085 760.232 894.621 763.112 897.693 765.8C900.765 768.36 905.565 771.624 912.093 775.592C918.749 779.56 924.253 783.144 928.604 786.344C932.957 789.544 936.669 793.512 939.741 798.248C942.813 802.984 944.349 808.424 944.349 814.568C944.349 818.536 943.709 822.504 942.429 826.472C939.357 836.712 933.405 844.52 924.573 849.896C915.741 855.144 905.437 857.768 893.661 857.768C884.829 857.768 877.405 856.744 871.389 854.696C865.373 852.648 859.229 849.192 852.957 844.328L846.045 850.088C842.845 852.776 840.221 854.632 838.173 855.656C836.125 856.552 833.821 857 831.261 857C828.317 857 825.949 856.296 824.157 854.888C822.493 853.48 821.66 851.56 821.66 849.128C821.66 847.848 821.916 846.504 822.428 845.096L831.837 816.488C832.861 813.16 834.269 810.792 836.061 809.384C837.853 807.976 840.157 807.272 842.973 807.272C845.917 807.272 848.541 808.296 850.845 810.344C853.277 812.392 856.413 816.104 860.253 821.48C864.349 827.368 868.125 831.464 871.581 833.768C875.165 836.072 879.389 837.224 884.253 837.224C887.709 837.224 890.333 836.712 892.125 835.688C894.045 834.536 895.389 832.744 896.157 830.312C896.413 829.672 896.541 828.712 896.541 827.432C896.541 824.36 895.069 821.544 892.125 818.984C889.181 816.424 884.637 813.352 878.493 809.768C871.965 805.8 866.653 802.28 862.557 799.208C858.461 796.008 854.877 792.04 851.805 787.304C848.861 782.568 847.389 777 847.389 770.6C847.389 766.12 848.093 761.704 849.501 757.352C852.189 748.52 857.693 741.416 866.013 736.04C874.333 730.664 883.869 727.976 894.621 727.976ZM1110.94 834.344C1110.43 836.008 1110.17 837.672 1110.17 839.336C1110.17 840.744 1110.36 841.96 1110.75 842.984C1111.13 843.88 1111.51 844.648 1111.9 845.288C1112.41 845.8 1112.73 846.184 1112.86 846.44C1114.14 847.72 1114.78 849 1114.78 850.28C1114.78 850.536 1114.65 851.176 1114.39 852.2C1113.88 853.992 1112.73 855.272 1110.94 856.04C1109.27 856.68 1106.65 857 1103.07 857H1057.56C1054.87 857 1052.76 856.552 1051.23 855.656C1049.82 854.76 1049.11 853.544 1049.11 852.008C1049.11 851.24 1049.31 850.408 1049.69 849.512C1050.07 848.488 1050.59 847.72 1051.23 847.208C1051.99 846.568 1053.02 845.864 1054.3 845.096C1056.35 843.944 1058.01 842.664 1059.29 841.256C1060.57 839.848 1061.66 837.544 1062.55 834.344L1067.55 817.832H1037.59L1032.41 828.776C1030.23 833.512 1029.15 837.224 1029.15 839.912C1029.15 841.448 1029.4 842.728 1029.91 843.752C1030.43 844.648 1031.19 845.608 1032.22 846.632C1033.11 847.656 1033.69 848.552 1033.95 849.32C1034.33 849.96 1034.39 850.856 1034.14 852.008C1033.63 853.928 1032.54 855.272 1030.87 856.04C1029.34 856.68 1026.84 857 1023.39 857H994.777C991.833 857 989.593 856.488 988.057 855.464C986.521 854.312 985.753 852.84 985.753 851.048C985.753 849 986.521 847.4 988.057 846.248C989.465 844.968 991.641 843.624 994.585 842.216C998.425 840.296 1001.5 838.44 1003.8 836.648C1006.11 834.728 1008.09 832.104 1009.75 828.776L1043.93 757.928C1049.18 746.92 1055.32 738.984 1062.36 734.12C1069.53 729.128 1078.94 726.632 1090.58 726.632C1103.64 726.632 1113.75 729.32 1120.92 734.696C1128.09 739.944 1131.67 747.304 1131.67 756.776C1131.67 760.744 1131.03 764.84 1129.75 769.064L1110.94 834.344ZM1073.31 798.632L1083.48 764.84C1083.99 763.304 1084.25 761.704 1084.25 760.04C1084.25 757.608 1083.55 755.816 1082.14 754.664C1080.86 753.384 1079 752.744 1076.57 752.744C1073.5 752.744 1070.87 753.64 1068.7 755.432C1066.52 757.224 1064.35 760.424 1062.17 765.032L1046.43 798.632H1073.31ZM1275.38 729.128C1280.63 729.128 1283.25 730.792 1283.25 734.12C1283.25 735.016 1283.19 735.656 1283.06 736.04C1282.68 737.32 1282.1 738.344 1281.33 739.112C1280.56 739.752 1279.48 740.52 1278.07 741.416C1276.15 742.568 1274.55 743.848 1273.27 745.256C1271.99 746.664 1270.9 748.84 1270 751.784L1246.2 837.032C1244.02 844.712 1241.27 850.088 1237.94 853.16C1234.74 856.232 1230.26 857.768 1224.5 857.768C1219.38 857.768 1215.09 856.296 1211.64 853.352C1208.31 850.28 1205.17 845.608 1202.23 839.336L1173.24 778.28L1157.11 834.344C1156.72 836.008 1156.53 837.48 1156.53 838.76C1156.53 840.424 1156.79 841.832 1157.3 842.984C1157.94 844.008 1158.77 845.096 1159.8 846.248C1161.2 847.912 1161.91 849.32 1161.91 850.472C1161.91 851.24 1161.84 851.816 1161.72 852.2C1161.2 853.992 1160.05 855.272 1158.26 856.04C1156.47 856.68 1153.78 857 1150.2 857H1129.27C1124.02 857 1121.4 855.336 1121.4 852.008C1121.4 851.112 1121.46 850.472 1121.59 850.088C1121.97 848.808 1122.55 847.848 1123.32 847.208C1124.08 846.44 1125.17 845.608 1126.58 844.712C1128.5 843.56 1130.1 842.28 1131.38 840.872C1132.66 839.464 1133.75 837.288 1134.64 834.344L1159.03 748.136L1155.96 741.8C1154.68 739.24 1154.04 737 1154.04 735.08C1154.04 731.112 1156.6 729.128 1161.72 729.128H1190.13C1194.23 729.128 1197.3 730.088 1199.35 732.008C1201.52 733.8 1203.83 737.064 1206.26 741.8L1234.29 798.056L1247.54 751.784C1247.92 749.992 1248.12 748.52 1248.12 747.368C1248.12 745.704 1247.8 744.36 1247.16 743.336C1246.64 742.184 1245.88 741.032 1244.85 739.88C1243.44 738.216 1242.74 736.808 1242.74 735.656C1242.74 734.888 1242.8 734.312 1242.93 733.928C1243.44 732.136 1244.6 730.92 1246.39 730.28C1248.18 729.512 1250.87 729.128 1254.45 729.128H1275.38ZM1363.09 729.128C1382.29 729.128 1396.76 732.84 1406.49 740.264C1416.21 747.56 1421.08 758.312 1421.08 772.52C1421.08 779.56 1419.8 787.688 1417.24 796.904C1413.01 811.752 1407.32 823.528 1400.15 832.232C1392.98 840.936 1383.51 847.272 1371.73 851.24C1360.09 855.208 1345.11 857.128 1326.81 857L1274.58 856.808C1271.89 856.808 1269.84 856.36 1268.44 855.464C1266.9 854.568 1266.13 853.352 1266.13 851.816C1266.13 851.048 1266.32 850.216 1266.71 849.32C1267.09 848.168 1267.67 847.336 1268.44 846.824C1269.08 846.312 1270.1 845.608 1271.51 844.712C1273.56 843.56 1275.16 842.28 1276.31 840.872C1277.59 839.464 1278.68 837.224 1279.57 834.152L1303 751.592C1303.51 749.928 1303.77 748.328 1303.77 746.792C1303.77 745.384 1303.51 744.232 1303 743.336C1302.61 742.312 1302.04 741.16 1301.27 739.88C1300.12 738.216 1299.54 736.872 1299.54 735.848C1299.54 735.464 1299.67 734.76 1299.93 733.736C1300.44 732.072 1301.53 730.92 1303.19 730.28C1304.98 729.512 1307.67 729.128 1311.25 729.128H1363.09ZM1368.08 792.68C1371.41 780.648 1373.08 771.176 1373.08 764.264C1373.08 757.48 1371.67 752.808 1368.85 750.248C1366.04 747.688 1362.01 746.408 1356.76 746.408H1352.53L1326.61 839.72H1331.22C1337.11 839.72 1342.04 838.504 1346.01 836.072C1350.1 833.512 1353.88 828.904 1357.33 822.248C1360.79 815.464 1364.37 805.608 1368.08 792.68ZM342.808 1007.98C349.976 1007.98 356.568 1008.87 362.584 1010.66C368.728 1012.33 374.936 1015.02 381.208 1018.73L385.624 1015.08C388.696 1012.65 391.192 1010.98 393.112 1010.09C395.16 1009.19 397.464 1008.74 400.024 1008.74C403.096 1008.74 405.528 1009.45 407.32 1010.86C409.112 1012.14 410.008 1014.06 410.008 1016.62C410.008 1017.64 409.816 1018.73 409.432 1019.88L401.368 1046.38C400.472 1049.45 399.32 1051.62 397.912 1052.9C396.632 1054.18 394.648 1054.82 391.96 1054.82C389.144 1054.82 386.648 1053.99 384.472 1052.33C382.424 1050.54 379.16 1046.95 374.68 1041.58C370.2 1036.46 366.104 1032.87 362.392 1030.82C358.808 1028.65 355.096 1027.56 351.256 1027.56C348.44 1027.56 346.072 1028.52 344.152 1030.44C342.232 1032.23 341.272 1034.47 341.272 1037.16C341.272 1040.23 342.808 1043.11 345.88 1045.8C348.952 1048.36 353.752 1051.62 360.28 1055.59C366.936 1059.56 372.44 1063.14 376.792 1066.34C381.144 1069.54 384.856 1073.51 387.928 1078.25C391 1082.98 392.536 1088.42 392.536 1094.57C392.536 1098.54 391.896 1102.5 390.616 1106.47C387.544 1116.71 381.592 1124.52 372.76 1129.9C363.928 1135.14 353.624 1137.77 341.848 1137.77C333.016 1137.77 325.592 1136.74 319.576 1134.7C313.56 1132.65 307.416 1129.19 301.144 1124.33L294.232 1130.09C291.032 1132.78 288.408 1134.63 286.36 1135.66C284.312 1136.55 282.008 1137 279.448 1137C276.504 1137 274.136 1136.3 272.344 1134.89C270.68 1133.48 269.848 1131.56 269.848 1129.13C269.848 1127.85 270.104 1126.5 270.616 1125.1L280.024 1096.49C281.048 1093.16 282.456 1090.79 284.248 1089.38C286.04 1087.98 288.344 1087.27 291.16 1087.27C294.104 1087.27 296.728 1088.3 299.032 1090.34C301.464 1092.39 304.6 1096.1 308.44 1101.48C312.536 1107.37 316.312 1111.46 319.768 1113.77C323.352 1116.07 327.576 1117.22 332.44 1117.22C335.896 1117.22 338.52 1116.71 340.312 1115.69C342.232 1114.54 343.576 1112.74 344.344 1110.31C344.6 1109.67 344.728 1108.71 344.728 1107.43C344.728 1104.36 343.256 1101.54 340.312 1098.98C337.368 1096.42 332.824 1093.35 326.68 1089.77C320.152 1085.8 314.84 1082.28 310.744 1079.21C306.648 1076.01 303.064 1072.04 299.992 1067.3C297.048 1062.57 295.576 1057 295.576 1050.6C295.576 1046.12 296.28 1041.7 297.688 1037.35C300.376 1028.52 305.88 1021.42 314.2 1016.04C322.52 1010.66 332.056 1007.98 342.808 1007.98ZM557.167 1009.13C564.207 1009.13 567.727 1012.01 567.727 1017.77C567.727 1019.56 567.343 1021.8 566.575 1024.49L561.967 1040.04C560.559 1044.78 558.831 1048.1 556.783 1050.02C554.735 1051.94 551.791 1052.9 547.951 1052.9C544.751 1052.9 542.255 1052.07 540.463 1050.41C538.799 1048.74 537.199 1046.12 535.663 1042.54L532.399 1034.66C531.375 1032.23 530.287 1030.57 529.135 1029.67C527.983 1028.78 526.191 1028.33 523.759 1028.33H519.343L494.959 1114.15C494.575 1115.82 494.383 1117.29 494.383 1118.57C494.383 1120.1 494.575 1121.38 494.959 1122.41C495.471 1123.43 496.175 1124.52 497.071 1125.67C498.223 1127.46 498.799 1128.94 498.799 1130.09C498.799 1130.34 498.671 1130.98 498.415 1132.01C497.775 1133.67 496.495 1134.89 494.575 1135.66C492.783 1136.42 490.159 1136.81 486.703 1136.81H441.583C438.895 1136.81 436.783 1136.36 435.247 1135.46C433.839 1134.57 433.135 1133.29 433.135 1131.62C433.135 1130.86 433.327 1130.09 433.711 1129.32C434.223 1128.17 434.799 1127.34 435.439 1126.82C436.207 1126.18 437.295 1125.42 438.703 1124.52C440.623 1123.37 442.223 1122.09 443.503 1120.68C444.783 1119.27 445.871 1117.1 446.767 1114.15L470.959 1028.33H466.543C463.727 1028.33 461.423 1028.78 459.631 1029.67C457.839 1030.57 455.919 1032.23 453.871 1034.66L447.535 1042.54C444.591 1045.99 441.711 1048.62 438.895 1050.41C436.207 1052.07 433.263 1052.9 430.063 1052.9C427.119 1052.9 424.815 1052.14 423.151 1050.6C421.487 1049.06 420.655 1046.95 420.655 1044.26C420.655 1042.98 420.847 1041.58 421.231 1040.04L426.223 1022.57C427.247 1018.98 428.399 1016.3 429.679 1014.5C430.959 1012.58 432.751 1011.24 435.055 1010.47C437.487 1009.58 440.879 1009.13 445.231 1009.13H557.167ZM666.375 1035.05C668.807 1026.22 672.199 1019.56 676.551 1015.08C681.031 1010.6 687.175 1008.36 694.983 1008.36C701.127 1008.36 706.055 1010.34 709.767 1014.31C713.479 1018.15 715.335 1022.95 715.335 1028.71C715.335 1030.63 715.015 1032.87 714.375 1035.43C712.967 1041.06 710.471 1045.16 706.887 1047.72C703.303 1050.15 699.399 1051.37 695.175 1051.37C692.999 1051.37 691.015 1051.24 689.223 1050.98C687.559 1050.6 685.959 1050.15 684.423 1049.64L673.095 1091.3C668.999 1106.54 662.151 1118.18 652.551 1126.25C642.951 1134.18 629.895 1138.15 613.383 1138.15C598.279 1138.15 586.503 1135.27 578.055 1129.51C569.735 1123.75 565.575 1114.79 565.575 1102.63C565.575 1096.74 566.599 1090.28 568.647 1083.24L583.239 1031.59C583.751 1029.93 584.007 1028.33 584.007 1026.79C584.007 1025.26 583.751 1024.04 583.239 1023.14C582.855 1022.12 582.279 1020.97 581.511 1019.69C580.359 1018.02 579.783 1016.68 579.783 1015.66C579.783 1015.14 579.911 1014.5 580.167 1013.74C580.679 1012.07 581.831 1010.92 583.623 1010.28C585.415 1009.51 588.039 1009.13 591.495 1009.13H636.615C642.119 1009.13 644.871 1010.79 644.871 1014.12C644.871 1014.89 644.807 1015.53 644.679 1016.04C644.295 1017.19 643.719 1018.15 642.951 1018.92C642.311 1019.56 641.287 1020.33 639.879 1021.22C637.831 1022.38 636.167 1023.66 634.887 1025.06C633.607 1026.47 632.519 1028.65 631.623 1031.59L614.919 1090.34C613.767 1094.7 613.191 1098.41 613.191 1101.48C613.191 1110.06 617.799 1114.34 627.015 1114.34C632.647 1114.34 637.319 1112.55 641.031 1108.97C644.871 1105.26 648.071 1098.98 650.631 1090.15L666.375 1035.05ZM821.809 1009.13C826.545 1009.13 830.193 1010.15 832.753 1012.2C835.441 1014.25 836.785 1017.06 836.785 1020.65C836.785 1022.44 836.529 1024.17 836.017 1025.83L831.025 1043.69C830.129 1047.02 828.657 1049.38 826.609 1050.79C824.561 1052.2 821.873 1052.9 818.545 1052.9C815.345 1052.9 812.785 1052.26 810.865 1050.98C808.945 1049.58 807.537 1047.34 806.641 1044.26L803.569 1033.32C803.057 1031.4 802.417 1030.12 801.649 1029.48C800.881 1028.84 799.281 1028.52 796.849 1028.52H777.649L766.897 1066.54H770.545C772.337 1066.54 773.873 1066.28 775.153 1065.77C776.561 1065.26 778.033 1064.3 779.569 1062.89L785.521 1057.9C787.697 1055.98 789.617 1054.63 791.281 1053.86C793.073 1052.97 794.929 1052.52 796.849 1052.52C799.281 1052.52 801.265 1053.22 802.801 1054.63C804.465 1056.04 805.297 1058.02 805.297 1060.58C805.297 1061.61 805.105 1062.82 804.721 1064.23L796.273 1093.42C794.353 1099.69 790.897 1102.82 785.905 1102.82C781.809 1102.82 778.609 1100.71 776.305 1096.49L772.849 1089.96C771.953 1088.17 771.121 1087.02 770.353 1086.5C769.585 1085.99 768.433 1085.74 766.897 1085.74H761.329L753.265 1114.34C753.009 1115.11 752.881 1116.14 752.881 1117.42C752.881 1119.21 753.265 1120.68 754.033 1121.83C754.929 1122.98 756.209 1124.2 757.873 1125.48C759.281 1126.63 760.241 1127.59 760.753 1128.36C761.265 1129 761.521 1129.83 761.521 1130.86C761.521 1133.16 760.497 1134.76 758.449 1135.66C756.401 1136.55 753.393 1137 749.425 1137H701.233C697.905 1137 695.409 1136.42 693.745 1135.27C692.081 1133.99 691.505 1132.26 692.017 1130.09C692.273 1128.94 692.785 1128.04 693.553 1127.4C694.193 1126.63 695.217 1125.8 696.625 1124.9C698.801 1123.62 700.529 1122.28 701.809 1120.87C703.089 1119.46 704.113 1117.29 704.881 1114.34L728.497 1031.59C729.009 1029.93 729.265 1028.39 729.265 1026.98C729.265 1025.45 729.009 1024.17 728.497 1023.14C728.113 1022.12 727.473 1021.03 726.577 1019.88C725.425 1018.22 724.849 1016.87 724.849 1015.85C724.849 1015.46 724.977 1014.76 725.233 1013.74C725.745 1012.07 726.897 1010.92 728.689 1010.28C730.481 1009.51 733.105 1009.13 736.561 1009.13H821.809ZM941.059 1009.13C945.795 1009.13 949.443 1010.15 952.003 1012.2C954.691 1014.25 956.035 1017.06 956.035 1020.65C956.035 1022.44 955.779 1024.17 955.267 1025.83L950.275 1043.69C949.379 1047.02 947.907 1049.38 945.859 1050.79C943.811 1052.2 941.123 1052.9 937.795 1052.9C934.595 1052.9 932.035 1052.26 930.115 1050.98C928.195 1049.58 926.787 1047.34 925.891 1044.26L922.819 1033.32C922.307 1031.4 921.667 1030.12 920.899 1029.48C920.131 1028.84 918.531 1028.52 916.099 1028.52H896.899L886.147 1066.54H889.795C891.587 1066.54 893.123 1066.28 894.403 1065.77C895.811 1065.26 897.283 1064.3 898.819 1062.89L904.771 1057.9C906.947 1055.98 908.867 1054.63 910.531 1053.86C912.323 1052.97 914.179 1052.52 916.099 1052.52C918.531 1052.52 920.515 1053.22 922.051 1054.63C923.715 1056.04 924.547 1058.02 924.547 1060.58C924.547 1061.61 924.355 1062.82 923.971 1064.23L915.523 1093.42C913.603 1099.69 910.147 1102.82 905.155 1102.82C901.059 1102.82 897.859 1100.71 895.555 1096.49L892.099 1089.96C891.203 1088.17 890.371 1087.02 889.603 1086.5C888.835 1085.99 887.683 1085.74 886.147 1085.74H880.579L872.515 1114.34C872.259 1115.11 872.131 1116.14 872.131 1117.42C872.131 1119.21 872.515 1120.68 873.283 1121.83C874.179 1122.98 875.459 1124.2 877.123 1125.48C878.531 1126.63 879.491 1127.59 880.003 1128.36C880.515 1129 880.771 1129.83 880.771 1130.86C880.771 1133.16 879.747 1134.76 877.699 1135.66C875.651 1136.55 872.643 1137 868.675 1137H820.483C817.155 1137 814.659 1136.42 812.995 1135.27C811.331 1133.99 810.755 1132.26 811.267 1130.09C811.523 1128.94 812.035 1128.04 812.803 1127.4C813.443 1126.63 814.467 1125.8 815.875 1124.9C818.051 1123.62 819.779 1122.28 821.059 1120.87C822.339 1119.46 823.363 1117.29 824.131 1114.34L847.747 1031.59C848.259 1029.93 848.515 1028.39 848.515 1026.98C848.515 1025.45 848.259 1024.17 847.747 1023.14C847.363 1022.12 846.723 1021.03 845.827 1019.88C844.675 1018.22 844.099 1016.87 844.099 1015.85C844.099 1015.46 844.227 1014.76 844.483 1013.74C844.995 1012.07 846.147 1010.92 847.939 1010.28C849.731 1009.51 852.355 1009.13 855.811 1009.13H941.059Z" fill="#FFACA2"/>
<path d="M271 876.2H1419.35V885.8H271V876.2ZM271 1156.2H937.027V1165.8H271V1156.2Z" fill="#FFACA2"/>
<rect x="1771.31" y="778.856" width="335.112" height="1199.51" rx="167.556" transform="rotate(-61.3042 1771.31 778.856)" fill="#FFC09D"/>
<path d="M2361.7 932.8C2363.43 932.8 2364.83 933.133 2365.9 933.8C2366.97 934.467 2367.5 935.333 2367.5 936.4C2367.5 936.6 2367.43 936.967 2367.3 937.5C2366.57 940.567 2363.8 942.1 2359 942.1H2354.5L2352.8 948.2C2352.53 949.067 2352.4 949.933 2352.4 950.8C2352.4 951.6 2352.5 952.267 2352.7 952.8C2352.97 953.267 2353.3 953.833 2353.7 954.5C2354.3 955.367 2354.6 956.1 2354.6 956.7C2354.6 957.9 2354.1 958.767 2353.1 959.3C2352.17 959.767 2350.63 960 2348.5 960H2325.5C2323.77 960 2322.47 959.667 2321.6 959C2320.8 958.333 2320.53 957.433 2320.8 956.3C2321 955.7 2321.27 955.267 2321.6 955C2321.93 954.667 2322.5 954.233 2323.3 953.7C2324.37 953.033 2325.23 952.333 2325.9 951.6C2326.63 950.867 2327.23 949.733 2327.7 948.2L2329.4 942.3C2323.47 942.5 2317.23 943 2310.7 943.8C2304.97 944.4 2300.7 944.7 2297.9 944.7C2296.03 944.7 2294.53 944.267 2293.4 943.4C2292.27 942.467 2291.7 941.3 2291.7 939.9C2291.7 938.167 2292.27 936.7 2293.4 935.5C2294.53 934.233 2296.27 932.8 2298.6 931.2C2301 929.467 2302.87 927.933 2304.2 926.6C2305.53 925.267 2306.5 923.6 2307.1 921.6C2307.37 920.8 2307.5 919.9 2307.5 918.9C2307.5 917.5 2307.23 916.167 2306.7 914.9C2306.23 913.633 2305.47 911.967 2304.4 909.9C2303.47 908.167 2302.73 906.7 2302.2 905.5C2301.73 904.3 2301.5 903.1 2301.5 901.9C2301.5 901.1 2301.6 900.367 2301.8 899.7C2302.47 897.633 2303.73 896.067 2305.6 895C2307.47 893.933 2309.73 893.4 2312.4 893.4C2315.6 893.4 2318.67 894.267 2321.6 896C2324.6 897.733 2327.03 900.1 2328.9 903.1C2330.77 906.033 2331.7 909.2 2331.7 912.6C2331.7 914.067 2331.5 915.6 2331.1 917.2C2329.9 921.4 2327.5 924.833 2323.9 927.5C2320.3 930.167 2314.63 932.833 2306.9 935.5C2316.57 934.033 2324.93 933.2 2332 933L2340.4 903.4C2341.07 901.067 2342.07 899.467 2343.4 898.6C2344.73 897.667 2346.7 897.2 2349.3 897.2H2360.1C2361.9 897.2 2363.27 897.6 2364.2 898.4C2365.13 899.133 2365.6 900.2 2365.6 901.6C2365.6 902.467 2365.47 903.3 2365.2 904.1L2357.1 932.8H2361.7ZM2414.01 893.2C2432.21 893.2 2441.31 900.167 2441.31 914.1C2441.31 917.967 2440.65 922.233 2439.31 926.9C2435.91 938.9 2430.75 947.533 2423.81 952.8C2416.95 958 2408.21 960.6 2397.61 960.6C2379.48 960.6 2370.41 953.667 2370.41 939.8C2370.41 935.867 2371.08 931.567 2372.41 926.9C2375.81 914.9 2380.95 906.3 2387.81 901.1C2394.75 895.833 2403.48 893.2 2414.01 893.2ZM2412.91 902.4C2411.38 902.4 2409.91 903.067 2408.51 904.4C2407.18 905.733 2405.75 908.2 2404.21 911.8C2402.75 915.333 2401.11 920.367 2399.31 926.9C2396.78 936.167 2395.51 942.7 2395.51 946.5C2395.51 948.367 2395.78 949.667 2396.31 950.4C2396.91 951.133 2397.78 951.5 2398.91 951.5C2400.45 951.5 2401.88 950.833 2403.21 949.5C2404.61 948.167 2406.05 945.7 2407.51 942.1C2409.05 938.5 2410.68 933.433 2412.41 926.9C2415.01 917.367 2416.31 910.833 2416.31 907.3C2416.31 905.5 2416.01 904.233 2415.41 903.5C2414.88 902.767 2414.05 902.4 2412.91 902.4ZM2477.11 893.5C2478.84 893.167 2480.27 893 2481.41 893C2482.81 893 2483.91 893.4 2484.71 894.2C2485.51 895 2485.91 896.233 2485.91 897.9C2485.91 898.967 2485.71 900.267 2485.31 901.8L2472.21 947.7C2472.07 948.033 2472.01 948.533 2472.01 949.2C2472.01 950.133 2472.27 950.867 2472.81 951.4C2473.34 951.933 2474.14 952.5 2475.21 953.1C2476.21 953.7 2476.91 954.2 2477.31 954.6C2477.71 955 2477.91 955.567 2477.91 956.3C2477.91 956.767 2477.87 957.1 2477.81 957.3C2477.47 958.3 2476.74 959 2475.61 959.4C2474.54 959.8 2472.77 960 2470.31 960H2440.21C2438.81 960 2437.77 959.733 2437.11 959.2C2436.44 958.667 2436.11 957.933 2436.11 957C2436.11 956.6 2436.14 956.3 2436.21 956.1C2436.47 955.3 2436.97 954.7 2437.71 954.3C2438.37 953.833 2439.41 953.333 2440.81 952.8C2442.54 952.2 2443.91 951.533 2444.91 950.8C2445.97 950.067 2446.71 948.967 2447.11 947.5L2457.51 910.7C2457.64 910.3 2457.71 909.8 2457.71 909.2C2457.71 908.2 2457.41 907.367 2456.81 906.7C2456.21 905.967 2455.37 905.267 2454.31 904.6C2453.31 903.867 2452.57 903.267 2452.11 902.8C2451.64 902.267 2451.41 901.633 2451.41 900.9C2451.41 900.633 2451.47 900.3 2451.61 899.9C2451.74 899.167 2452.14 898.6 2452.81 898.2C2453.47 897.8 2454.54 897.467 2456.01 897.2L2477.11 893.5Z" fill="#D7385E"/>
<path d="M2289 970H2483.91V975H2289V970Z" fill="#D7385E"/>
<g filter="url(#filter0_d_98_98)">
<rect x="1612" y="1006" width="215" height="215" rx="107.5" fill="#D7385E"/>
<rect x="1592" y="986" width="255" height="255" rx="127.5" stroke="#FFC09D" stroke-width="40"/>
</g>
<g filter="url(#filter1_d_98_98)">
<rect x="1640" y="1034" width="160" height="160" rx="80" fill="#3A3A3A"/>
</g>
<rect x="2106" y="1183" width="151" height="151" rx="75.5" fill="#D7385E" stroke="#FFC09D" stroke-width="40"/>
<rect x="2140" y="1217" width="83" height="83" rx="41.5" fill="#3A3A3A"/>
<rect x="2379" y="409" width="151" height="151" rx="75.5" fill="#D7385E" stroke="#FFC09D" stroke-width="40"/>
<rect x="2413" y="443" width="83" height="83" rx="41.5" fill="#3A3A3A"/>
<path d="M2143.41 415.646L2140.9 410.449L2135.14 410.027L2105.93 407.887L2100.17 407.465L2096.93 412.241L2080.47 436.467L2077.22 441.243L2079.74 446.441L2092.49 472.807L2095 478.005L2100.76 478.427L2129.97 480.567L2135.73 480.989L2138.97 476.213L2155.43 451.986L2158.68 447.211L2156.16 442.013L2143.41 415.646Z" fill="#B42C4C" stroke="#FFACA2" stroke-width="20"/>
<path d="M1637.15 672.105L1634.63 666.907L1628.87 666.485L1599.66 664.345L1593.91 663.923L1590.66 668.699L1574.2 692.926L1570.96 697.701L1573.47 702.899L1586.22 729.266L1588.74 734.463L1594.5 734.885L1623.71 737.025L1629.46 737.447L1632.71 732.671L1649.17 708.445L1652.41 703.669L1649.9 698.471L1637.15 672.105Z" fill="#B42C4C" stroke="#FFACA2" stroke-width="20"/>
<path d="M3157.15 1018.1L3154.63 1012.91L3148.87 1012.49L3119.66 1010.35L3113.91 1009.92L3110.66 1014.7L3094.2 1038.93L3090.96 1043.7L3093.47 1048.9L3106.22 1075.27L3108.74 1080.46L3114.5 1080.89L3143.71 1083.03L3149.46 1083.45L3152.71 1078.67L3169.17 1054.44L3172.41 1049.67L3169.9 1044.47L3157.15 1018.1Z" fill="#B42C4C" stroke="#FFACA2" stroke-width="20"/>
<defs>
<filter id="filter0_d_98_98" x="1472" y="916" width="495" height="495" filterUnits="userSpaceOnUse" color-interpolation-filters="sRGB">
<feFlood flood-opacity="0" result="BackgroundImageFix"/>
<feColorMatrix in="SourceAlpha" type="matrix" values="0 0 0 0 0 0 0 0 0 0 0 0 0 0 0 0 0 0 127 0" result="hardAlpha"/>
<feOffset dy="50"/>
<feGaussianBlur stdDeviation="50"/>
<feComposite in2="hardAlpha" operator="out"/>
<feColorMatrix type="matrix" values="0 0 0 0 0 0 0 0 0 0 0 0 0 0 0 0 0 0 0.25 0"/>
<feBlend mode="normal" in2="BackgroundImageFix" result="effect1_dropShadow_98_98"/>
<feBlend mode="normal" in="SourceGraphic" in2="effect1_dropShadow_98_98" result="shape"/>
</filter>
<filter id="filter1_d_98_98" x="1540" y="984" width="360" height="360" filterUnits="userSpaceOnUse" color-interpolation-filters="sRGB">
<feFlood flood-opacity="0" result="BackgroundImageFix"/>
<feColorMatrix in="SourceAlpha" type="matrix" values="0 0 0 0 0 0 0 0 0 0 0 0 0 0 0 0 0 0 127 0" result="hardAlpha"/>
<feOffset dy="50"/>
<feGaussianBlur stdDeviation="50"/>
<feComposite in2="hardAlpha" operator="out"/>
<feColorMatrix type="matrix" values="0 0 0 0 0 0 0 0 0 0 0 0 0 0 0 0 0 0 0.25 0"/>
<feBlend mode="normal" in2="BackgroundImageFix" result="effect1_dropShadow_98_98"/>
<feBlend mode="normal" in="SourceGraphic" in2="effect1_dropShadow_98_98" result="shape"/>
</filter>
</defs>
</svg>
