<svg width="5226" height="3135" viewBox="0 0 5226 3135" fill="none" xmlns="http://www.w3.org/2000/svg">
<rect width="5226" height="3135" transform="matrix(1 0 0 -1 0 3135)" fill="url(#paint0_radial_84_4)"/>
<path d="M2223.4 1618V1547.3H2306V1501.1H2090.4L2089.7 1440.2L2250 1180.5L2313 1215.5L2174.4 1434.6H2306V1286.9H2386.5V1434.6L2441.8 1433.9V1501.1H2386.5V1547.3H2439V1618H2223.4ZM2684.27 1191.7C2709.47 1191.7 2732.57 1195.2 2753.57 1202.2C2775.03 1209.2 2793.93 1221.1 2810.27 1237.9C2826.6 1254.23 2839.2 1276.63 2848.07 1305.1C2856.93 1333.57 2861.37 1369.27 2861.37 1412.2C2861.37 1454.67 2856.93 1490.13 2848.07 1518.6C2839.2 1547.07 2826.6 1569.7 2810.27 1586.5C2793.93 1602.83 2775.03 1614.5 2753.57 1621.5C2732.57 1628.5 2709.47 1632 2684.27 1632C2659.07 1632 2635.73 1628.5 2614.27 1621.5C2592.8 1614.5 2573.9 1602.83 2557.57 1586.5C2541.7 1569.7 2529.33 1547.07 2520.47 1518.6C2511.6 1490.13 2507.17 1454.67 2507.17 1412.2C2507.17 1369.27 2511.6 1333.57 2520.47 1305.1C2529.33 1276.63 2541.7 1254.23 2557.57 1237.9C2573.9 1221.1 2592.8 1209.2 2614.27 1202.2C2635.73 1195.2 2659.07 1191.7 2684.27 1191.7ZM2684.27 1264.5C2672.13 1264.5 2660.47 1266.37 2649.27 1270.1C2638.53 1273.37 2628.73 1280.13 2619.87 1290.4C2611.47 1300.2 2604.7 1314.9 2599.57 1334.5C2594.9 1354.1 2592.57 1380 2592.57 1412.2C2592.57 1443.93 2594.9 1469.6 2599.57 1489.2C2604.7 1508.33 2611.47 1523.03 2619.87 1533.3C2628.73 1543.57 2638.53 1550.57 2649.27 1554.3C2660.47 1557.57 2672.13 1559.2 2684.27 1559.2C2696.4 1559.2 2707.83 1557.57 2718.57 1554.3C2729.77 1550.57 2739.8 1543.57 2748.67 1533.3C2757.53 1523.03 2764.3 1508.33 2768.97 1489.2C2774.1 1469.6 2776.67 1443.93 2776.67 1412.2C2776.67 1380 2774.1 1354.1 2768.97 1334.5C2764.3 1314.9 2757.53 1300.2 2748.67 1290.4C2739.8 1280.13 2729.77 1273.37 2718.57 1270.1C2707.83 1266.37 2696.4 1264.5 2684.27 1264.5ZM3066.91 1194.5H3119.41V1547.3H3224.41V1618H2926.91V1547.3H3038.21V1314.2L2955.61 1382.8L2909.41 1325.4L3066.91 1194.5Z" fill="#B42C4C"/>
<path d="M2223.4 1618H2220.4V1621H2223.4V1618ZM2223.4 1547.3V1544.3H2220.4V1547.3H2223.4ZM2306 1547.3V1550.3H2309V1547.3H2306ZM2306 1501.1H2309V1498.1H2306V1501.1ZM2090.4 1501.1L2087.4 1501.13L2087.43 1504.1H2090.4V1501.1ZM2089.7 1440.2L2087.15 1438.62L2086.69 1439.36L2086.7 1440.23L2089.7 1440.2ZM2250 1180.5L2251.46 1177.88L2248.95 1176.49L2247.45 1178.92L2250 1180.5ZM2313 1215.5L2315.54 1217.1L2317.23 1214.42L2314.46 1212.88L2313 1215.5ZM2174.4 1434.6L2171.86 1433L2168.95 1437.6H2174.4V1434.6ZM2306 1434.6V1437.6H2309V1434.6H2306ZM2306 1286.9V1283.9H2303V1286.9H2306ZM2386.5 1286.9H2389.5V1283.9H2386.5V1286.9ZM2386.5 1434.6H2383.5V1437.64L2386.54 1437.6L2386.5 1434.6ZM2441.8 1433.9H2444.8V1430.86L2441.76 1430.9L2441.8 1433.9ZM2441.8 1501.1V1504.1H2444.8V1501.1H2441.8ZM2386.5 1501.1V1498.1H2383.5V1501.1H2386.5ZM2386.5 1547.3H2383.5V1550.3H2386.5V1547.3ZM2439 1547.3H2442V1544.3H2439V1547.3ZM2439 1618V1621H2442V1618H2439ZM2226.4 1618V1547.3H2220.4V1618H2226.4ZM2223.4 1550.3H2306V1544.3H2223.4V1550.3ZM2309 1547.3V1501.1H2303V1547.3H2309ZM2306 1498.1H2090.4V1504.1H2306V1498.1ZM2093.4 1501.07L2092.7 1440.17L2086.7 1440.23L2087.4 1501.13L2093.4 1501.07ZM2092.25 1441.78L2252.55 1182.08L2247.45 1178.92L2087.15 1438.62L2092.25 1441.78ZM2248.54 1183.12L2311.54 1218.12L2314.46 1212.88L2251.46 1177.88L2248.54 1183.12ZM2310.46 1213.9L2171.86 1433L2176.94 1436.2L2315.54 1217.1L2310.46 1213.9ZM2174.4 1437.6H2306V1431.6H2174.4V1437.6ZM2309 1434.6V1286.9H2303V1434.6H2309ZM2306 1289.9H2386.5V1283.9H2306V1289.9ZM2383.5 1286.9V1434.6H2389.5V1286.9H2383.5ZM2386.54 1437.6L2441.84 1436.9L2441.76 1430.9L2386.46 1431.6L2386.54 1437.6ZM2438.8 1433.9V1501.1H2444.8V1433.9H2438.8ZM2441.8 1498.1H2386.5V1504.1H2441.8V1498.1ZM2383.5 1501.1V1547.3H2389.5V1501.1H2383.5ZM2386.5 1550.3H2439V1544.3H2386.5V1550.3ZM2436 1547.3V1618H2442V1547.3H2436ZM2439 1615H2223.4V1621H2439V1615ZM2753.57 1202.2L2752.62 1205.05L2752.63 1205.05L2752.64 1205.05L2753.57 1202.2ZM2810.27 1237.9L2808.12 1239.99L2808.13 1240.01L2808.15 1240.02L2810.27 1237.9ZM2848.07 1305.1L2845.2 1305.99L2845.2 1305.99L2848.07 1305.1ZM2848.07 1518.6L2845.2 1517.71L2845.2 1517.71L2848.07 1518.6ZM2810.27 1586.5L2812.39 1588.62L2812.4 1588.61L2812.42 1588.59L2810.27 1586.5ZM2753.57 1621.5L2752.64 1618.65L2752.63 1618.65L2752.62 1618.65L2753.57 1621.5ZM2557.57 1586.5L2555.39 1588.56L2555.42 1588.59L2555.45 1588.62L2557.57 1586.5ZM2520.47 1518.6L2523.33 1517.71L2523.33 1517.71L2520.47 1518.6ZM2520.47 1305.1L2517.6 1304.21L2517.6 1304.21L2520.47 1305.1ZM2557.57 1237.9L2555.42 1235.81L2555.42 1235.81L2557.57 1237.9ZM2649.27 1270.1L2650.14 1272.97L2650.18 1272.96L2650.22 1272.95L2649.27 1270.1ZM2619.87 1290.4L2617.6 1288.44L2617.59 1288.45L2619.87 1290.4ZM2599.57 1334.5L2596.67 1333.74L2596.66 1333.77L2596.65 1333.81L2599.57 1334.5ZM2599.57 1489.2L2596.65 1489.89L2596.66 1489.94L2596.67 1489.98L2599.57 1489.2ZM2619.87 1533.3L2617.55 1535.2L2617.57 1535.23L2617.6 1535.26L2619.87 1533.3ZM2649.27 1554.3L2648.28 1557.13L2648.35 1557.16L2648.43 1557.18L2649.27 1554.3ZM2718.57 1554.3L2719.44 1557.17L2719.48 1557.16L2719.52 1557.15L2718.57 1554.3ZM2748.67 1533.3L2746.4 1531.34L2746.4 1531.34L2748.67 1533.3ZM2768.97 1489.2L2766.07 1488.44L2766.06 1488.46L2766.05 1488.49L2768.97 1489.2ZM2768.97 1334.5L2766.05 1335.19L2766.06 1335.23L2766.07 1335.26L2768.97 1334.5ZM2748.67 1290.4L2746.4 1292.36L2746.42 1292.39L2746.44 1292.41L2748.67 1290.4ZM2718.57 1270.1L2717.58 1272.93L2717.65 1272.96L2717.73 1272.98L2718.57 1270.1ZM2684.27 1194.7C2709.19 1194.7 2731.96 1198.16 2752.62 1205.05L2754.52 1199.35C2733.17 1192.24 2709.75 1188.7 2684.27 1188.7V1194.7ZM2752.64 1205.05C2773.62 1211.9 2792.11 1223.53 2808.12 1239.99L2812.42 1235.81C2795.76 1218.67 2776.45 1206.5 2754.5 1199.35L2752.64 1205.05ZM2808.15 1240.02C2824.05 1255.93 2836.44 1277.86 2845.2 1305.99L2850.93 1304.21C2841.96 1275.41 2829.15 1252.54 2812.39 1235.78L2808.15 1240.02ZM2845.2 1305.99C2853.95 1334.07 2858.37 1369.45 2858.37 1412.2H2864.37C2864.37 1369.09 2859.92 1333.06 2850.93 1304.21L2845.2 1305.99ZM2858.37 1412.2C2858.37 1454.48 2853.95 1489.62 2845.2 1517.71L2850.93 1519.49C2859.92 1490.64 2864.37 1454.85 2864.37 1412.2H2858.37ZM2845.2 1517.71C2836.44 1545.84 2824.04 1568.03 2808.12 1584.41L2812.42 1588.59C2829.16 1571.37 2841.96 1548.29 2850.93 1519.49L2845.2 1517.71ZM2808.15 1584.38C2792.14 1600.39 2773.64 1611.8 2752.64 1618.65L2754.5 1624.35C2776.42 1617.2 2795.73 1605.28 2812.39 1588.62L2808.15 1584.38ZM2752.62 1618.65C2731.96 1625.54 2709.19 1629 2684.27 1629V1635C2709.75 1635 2733.17 1631.46 2754.52 1624.35L2752.62 1618.65ZM2684.27 1629C2659.35 1629 2636.33 1625.54 2615.2 1618.65L2613.34 1624.35C2635.14 1631.46 2658.79 1635 2684.27 1635V1629ZM2615.2 1618.65C2594.19 1611.8 2575.7 1600.39 2559.69 1584.38L2555.45 1588.62C2572.11 1605.28 2591.41 1617.2 2613.34 1624.35L2615.2 1618.65ZM2559.75 1584.44C2544.27 1568.05 2532.1 1545.86 2523.33 1517.71L2517.6 1519.49C2526.57 1548.27 2539.13 1571.35 2555.39 1588.56L2559.75 1584.44ZM2523.33 1517.71C2514.58 1489.62 2510.17 1454.48 2510.17 1412.2H2504.17C2504.17 1454.85 2508.62 1490.64 2517.6 1519.49L2523.33 1517.71ZM2510.17 1412.2C2510.17 1369.45 2514.59 1334.07 2523.33 1305.99L2517.6 1304.21C2508.62 1333.06 2504.17 1369.09 2504.17 1412.2H2510.17ZM2523.33 1305.99C2532.1 1277.84 2544.27 1255.9 2559.72 1239.99L2555.42 1235.81C2539.14 1252.57 2526.57 1275.43 2517.6 1304.21L2523.33 1305.99ZM2559.72 1239.99C2575.73 1223.53 2594.21 1211.9 2615.2 1205.05L2613.34 1199.35C2591.39 1206.5 2572.08 1218.67 2555.42 1235.81L2559.72 1239.99ZM2615.2 1205.05C2636.33 1198.16 2659.35 1194.7 2684.27 1194.7V1188.7C2658.79 1188.7 2635.14 1192.24 2613.34 1199.35L2615.2 1205.05ZM2684.27 1261.5C2671.82 1261.5 2659.83 1263.42 2648.32 1267.25L2650.22 1272.95C2661.1 1269.32 2672.45 1267.5 2684.27 1267.5V1261.5ZM2648.39 1267.23C2637.02 1270.69 2626.76 1277.83 2617.6 1288.44L2622.14 1292.36C2630.71 1282.43 2640.05 1276.04 2650.14 1272.97L2648.39 1267.23ZM2617.59 1288.45C2608.77 1298.73 2601.86 1313.93 2596.67 1333.74L2602.47 1335.26C2607.55 1315.87 2614.16 1301.67 2622.15 1292.35L2617.59 1288.45ZM2596.65 1333.81C2591.91 1353.73 2589.57 1379.89 2589.57 1412.2H2595.57C2595.57 1380.11 2597.9 1354.47 2602.49 1335.19L2596.65 1333.81ZM2589.57 1412.2C2589.57 1444.05 2591.91 1469.98 2596.65 1489.89L2602.49 1488.51C2597.9 1469.22 2595.57 1443.82 2595.57 1412.2H2589.57ZM2596.67 1489.98C2601.86 1509.34 2608.78 1524.48 2617.55 1535.2L2622.19 1531.4C2614.16 1521.58 2607.54 1507.33 2602.47 1488.42L2596.67 1489.98ZM2617.6 1535.26C2626.74 1545.85 2636.96 1553.2 2648.28 1557.13L2650.25 1551.47C2640.11 1547.94 2630.73 1541.28 2622.14 1531.34L2617.6 1535.26ZM2648.43 1557.18C2659.91 1560.53 2671.86 1562.2 2684.27 1562.2V1556.2C2672.41 1556.2 2661.02 1554.6 2650.11 1551.42L2648.43 1557.18ZM2684.27 1562.2C2696.67 1562.2 2708.4 1560.53 2719.44 1557.17L2717.69 1551.43C2707.27 1554.6 2696.13 1556.2 2684.27 1556.2V1562.2ZM2719.52 1557.15C2731.3 1553.22 2741.77 1545.87 2750.94 1535.26L2746.4 1531.34C2737.83 1541.26 2728.23 1547.92 2717.62 1551.45L2719.52 1557.15ZM2750.94 1535.26C2760.22 1524.51 2767.15 1509.31 2771.88 1489.91L2766.05 1488.49C2761.45 1507.35 2754.85 1521.56 2746.4 1531.34L2750.94 1535.26ZM2771.87 1489.96C2777.09 1470.01 2779.67 1444.06 2779.67 1412.2H2773.67C2773.67 1443.8 2771.11 1469.19 2766.07 1488.44L2771.87 1489.96ZM2779.67 1412.2C2779.67 1379.88 2777.09 1353.69 2771.87 1333.74L2766.07 1335.26C2771.11 1354.51 2773.67 1380.12 2773.67 1412.2H2779.67ZM2771.89 1333.81C2767.16 1313.95 2760.23 1298.71 2750.89 1288.39L2746.44 1292.41C2754.84 1301.69 2761.44 1315.85 2766.05 1335.19L2771.89 1333.81ZM2750.94 1288.44C2741.76 1277.81 2731.25 1270.67 2719.41 1267.22L2717.73 1272.98C2728.29 1276.06 2737.85 1282.46 2746.4 1292.36L2750.94 1288.44ZM2719.55 1267.27C2708.48 1263.42 2696.71 1261.5 2684.27 1261.5V1267.5C2696.09 1267.5 2707.19 1269.32 2717.58 1272.93L2719.55 1267.27ZM3066.91 1194.5V1191.5H3065.83L3064.99 1192.19L3066.91 1194.5ZM3119.41 1194.5H3122.41V1191.5H3119.41V1194.5ZM3119.41 1547.3H3116.41V1550.3H3119.41V1547.3ZM3224.41 1547.3H3227.41V1544.3H3224.41V1547.3ZM3224.41 1618V1621H3227.41V1618H3224.41ZM2926.91 1618H2923.91V1621H2926.91V1618ZM2926.91 1547.3V1544.3H2923.91V1547.3H2926.91ZM3038.21 1547.3V1550.3H3041.21V1547.3H3038.21ZM3038.21 1314.2H3041.21V1307.81L3036.29 1311.89L3038.21 1314.2ZM2955.61 1382.8L2953.27 1384.68L2955.18 1387.05L2957.53 1385.11L2955.61 1382.8ZM2909.41 1325.4L2907.49 1323.09L2905.22 1324.98L2907.07 1327.28L2909.41 1325.4ZM3066.91 1197.5H3119.41V1191.5H3066.91V1197.5ZM3116.41 1194.5V1547.3H3122.41V1194.5H3116.41ZM3119.41 1550.3H3224.41V1544.3H3119.41V1550.3ZM3221.41 1547.3V1618H3227.41V1547.3H3221.41ZM3224.41 1615H2926.91V1621H3224.41V1615ZM2929.91 1618V1547.3H2923.91V1618H2929.91ZM2926.91 1550.3H3038.21V1544.3H2926.91V1550.3ZM3041.21 1547.3V1314.2H3035.21V1547.3H3041.21ZM3036.29 1311.89L2953.69 1380.49L2957.53 1385.11L3040.13 1316.51L3036.29 1311.89ZM2957.95 1380.92L2911.75 1323.52L2907.07 1327.28L2953.27 1384.68L2957.95 1380.92ZM2911.33 1327.71L3068.83 1196.81L3064.99 1192.19L2907.49 1323.09L2911.33 1327.71Z" fill="#B42C4C"/>
<path d="M1132.2 1953.2H1180.8V1967H1168L1184.8 2023.6L1193.6 2052.8L1199.6 2024.6L1216 1968.2H1233.6L1247.6 2023.4L1254 2052.6L1262.6 2023.4L1281.2 1967H1268.4V1953.2H1314.2V1967H1295.2L1262.4 2071H1244L1229.8 2017.2L1223.4 1990.2L1215.6 2018.2L1201.6 2071H1184.4L1151.2 1967H1132.2V1953.2ZM1322.02 1953.2H1370.02V1967H1357.22L1357.02 2003.8H1414.62L1414.82 1967H1402.02V1953.2H1449.82V1967H1430.82L1430.22 2057.2H1449.42V2071H1401.82V2057.2H1414.62V2017.6H1357.02L1356.82 2057.2H1369.62V2071H1321.82V2057.2H1341.02L1341.22 1967H1322.02V1953.2ZM1464.8 1953.2H1553.6L1563.8 1984L1550.8 1988.4L1542.8 1967H1500V2003.2H1537.4V2017H1500L1499.8 2057.2H1546.8L1554.8 2035.8L1567.8 2040.2L1557.6 2071H1464.6V2057.2H1483.8L1484 1967H1464.8V1953.2ZM1581.98 2071V2057.2H1600.78V1967H1581.98V1953.2H1634.98C1645.78 1953.2 1654.31 1954.53 1660.58 1957.2C1666.98 1959.87 1671.51 1963.87 1674.18 1969.2C1676.98 1974.4 1678.38 1980.93 1678.38 1988.8C1678.38 2000.53 1675.18 2009.53 1668.78 2015.8C1662.38 2021.93 1651.11 2025 1634.98 2025H1616.78V2057.2H1629.38V2071H1581.98ZM1616.98 2010.8H1634.98C1640.71 2010.8 1645.51 2010.27 1649.38 2009.2C1653.24 2008.13 1656.18 2006.07 1658.18 2003C1660.31 1999.8 1661.38 1995.13 1661.38 1989C1661.38 1982.87 1660.31 1978.27 1658.18 1975.2C1656.18 1972 1653.24 1969.87 1649.38 1968.8C1645.51 1967.6 1640.71 1967 1634.98 1967H1616.98V2010.8ZM1662.18 2071L1636.38 2024L1653.38 2022L1673.78 2057.2H1691.98V2071H1662.18ZM1705.03 1953.2H1793.83L1804.03 1984L1791.03 1988.4L1783.03 1967H1740.23V2003.2H1777.63V2017H1740.23L1740.03 2057.2H1787.03L1795.03 2035.8L1808.03 2040.2L1797.83 2071H1704.83V2057.2H1724.03L1724.23 1967H1705.03V1953.2ZM1872.61 1953.2H1961.21L1971.41 1984L1958.41 1988.4L1950.41 1967H1907.61V2004.4H1940.61V2018.2H1907.41V2057.2H1931.81V2071H1872.41V2057.2H1891.61L1891.81 1967H1872.61V1953.2ZM1982.57 1953.2H2036.57V1967H2017.97L2017.57 2057.2H2036.57V2071H1982.37V2057.2H2001.77V1967H1982.57V1953.2ZM2051.51 1953.2H2095.71L2146.71 2046.6V1967H2129.91V1953.2H2182.11V1967H2162.71V2071H2143.11L2086.31 1967L2086.71 2057.2H2103.51V2071H2051.31V2057.2H2070.51L2070.31 1967H2051.51V1953.2ZM2293.87 2060.2C2289.2 2063.53 2284.94 2066.2 2281.07 2068.2C2277.2 2070.2 2273 2071.67 2268.47 2072.6C2263.94 2073.53 2258.34 2074 2251.67 2074C2241.27 2074 2231.87 2071.73 2223.47 2067.2C2215.2 2062.67 2208.6 2055.87 2203.67 2046.8C2198.74 2037.6 2196.27 2026 2196.27 2012C2196.27 1999.33 2198.6 1988.4 2203.27 1979.2C2208.07 1969.87 2214.74 1962.73 2223.27 1957.8C2231.8 1952.73 2241.87 1950.2 2253.47 1950.2C2260.67 1950.2 2267.34 1951.13 2273.47 1953C2279.74 1954.73 2285.34 1957.6 2290.27 1961.6L2294.87 1982.8L2281.07 1985.8L2277.47 1970.4C2274.4 1968.53 2271.2 1967 2267.87 1965.8C2264.67 1964.47 2259.94 1963.8 2253.67 1963.8C2246.74 1963.8 2240.14 1965.67 2233.87 1969.4C2227.74 1973.13 2222.74 1978.6 2218.87 1985.8C2215.14 1992.87 2213.27 2001.6 2213.27 2012C2213.27 2023.6 2215.07 2033 2218.67 2040.2C2222.27 2047.27 2227 2052.4 2232.87 2055.6C2238.74 2058.8 2245 2060.4 2251.67 2060.4C2258.2 2060.4 2263.34 2059.8 2267.07 2058.6C2270.94 2057.4 2274.87 2055.4 2278.87 2052.6V2026.8H2253.27V2013H2293.87V2060.2ZM2311.48 1953.2H2400.28L2410.48 1984L2397.48 1988.4L2389.48 1967H2346.68V2003.2H2384.08V2017H2346.68L2346.48 2057.2H2393.48L2401.48 2035.8L2414.48 2040.2L2404.28 2071H2311.28V2057.2H2330.48L2330.68 1967H2311.48V1953.2ZM2428.66 2071V2057.2H2447.46V1967H2428.66V1953.2H2481.66C2492.46 1953.2 2500.99 1954.53 2507.26 1957.2C2513.66 1959.87 2518.19 1963.87 2520.86 1969.2C2523.66 1974.4 2525.06 1980.93 2525.06 1988.8C2525.06 2000.53 2521.86 2009.53 2515.46 2015.8C2509.06 2021.93 2497.79 2025 2481.66 2025H2463.46V2057.2H2476.06V2071H2428.66ZM2463.66 2010.8H2481.66C2487.39 2010.8 2492.19 2010.27 2496.06 2009.2C2499.92 2008.13 2502.86 2006.07 2504.86 2003C2506.99 1999.8 2508.06 1995.13 2508.06 1989C2508.06 1982.87 2506.99 1978.27 2504.86 1975.2C2502.86 1972 2499.92 1969.87 2496.06 1968.8C2492.19 1967.6 2487.39 1967 2481.66 1967H2463.66V2010.8ZM2508.86 2071L2483.06 2024L2500.06 2022L2520.46 2057.2H2538.66V2071H2508.86ZM2551.51 2071V2057.2H2570.51V1967H2551.51V1953.2H2602.51C2616.78 1953.2 2627.64 1955.87 2635.11 1961.2C2642.71 1966.4 2646.51 1974 2646.51 1984C2646.51 1989.33 2645.04 1994.4 2642.11 1999.2C2639.31 2003.87 2635.38 2007.53 2630.31 2010.2C2635.91 2012.2 2640.64 2015.67 2644.51 2020.6C2648.38 2025.53 2650.31 2031.6 2650.31 2038.8C2650.31 2048.13 2647.11 2055.87 2640.71 2062C2634.31 2068 2624.38 2071 2610.91 2071H2551.51ZM2586.31 2057H2610.11C2617.58 2057 2623.31 2055.33 2627.31 2052C2631.31 2048.53 2633.31 2043.4 2633.31 2036.6C2633.31 2030.47 2631.38 2025.73 2627.51 2022.4C2623.78 2019.07 2618.38 2017.4 2611.31 2017.4H2586.51L2586.31 2057ZM2586.51 2005.4H2611.51C2617.38 2005.4 2621.84 2003.67 2624.91 2000.2C2627.98 1996.73 2629.51 1992.07 2629.51 1986.2C2629.51 1973.4 2621.24 1967 2604.71 1967H2586.51V2005.4ZM2718.64 1950.2C2729.71 1950.2 2739.31 1952.8 2747.44 1958C2755.71 1963.07 2762.11 1970.27 2766.64 1979.6C2771.31 1988.8 2773.64 1999.6 2773.64 2012C2773.64 2024.4 2771.31 2035.27 2766.64 2044.6C2762.11 2053.8 2755.71 2061 2747.44 2066.2C2739.31 2071.4 2729.78 2074 2718.84 2074C2707.91 2074 2698.31 2071.4 2690.04 2066.2C2681.91 2061 2675.51 2053.8 2670.84 2044.6C2666.31 2035.27 2664.04 2024.4 2664.04 2012C2664.04 1999.6 2666.31 1988.8 2670.84 1979.6C2675.38 1970.27 2681.71 1963.07 2689.84 1958C2698.11 1952.8 2707.71 1950.2 2718.64 1950.2ZM2718.84 1964.2C2706.98 1964.2 2697.71 1968.4 2691.04 1976.8C2684.38 1985.2 2681.04 1996.93 2681.04 2012C2681.04 2027.2 2684.38 2039 2691.04 2047.4C2697.71 2055.8 2706.98 2060 2718.84 2060C2730.71 2060 2739.98 2055.8 2746.64 2047.4C2753.31 2039 2756.64 2027.2 2756.64 2012C2756.64 1996.93 2753.31 1985.2 2746.64 1976.8C2739.98 1968.4 2730.71 1964.2 2718.84 1964.2ZM2773.26 2071V2057.2H2792.46L2825.66 1967H2805.46V1953.2H2844.26L2880.46 2057.2H2899.46V2071H2850.86V2057.2H2863.46L2857.06 2039H2813.86L2807.06 2057.2H2819.86V2071H2773.26ZM2818.86 2025.2H2852.26L2836.46 1973.4L2818.86 2025.2ZM2908.93 2071V2057.2H2927.73V1967H2908.93V1953.2H2961.93C2972.73 1953.2 2981.26 1954.53 2987.53 1957.2C2993.93 1959.87 2998.46 1963.87 3001.13 1969.2C3003.93 1974.4 3005.33 1980.93 3005.33 1988.8C3005.33 2000.53 3002.13 2009.53 2995.73 2015.8C2989.33 2021.93 2978.06 2025 2961.93 2025H2943.73V2057.2H2956.33V2071H2908.93ZM2943.93 2010.8H2961.93C2967.66 2010.8 2972.46 2010.27 2976.33 2009.2C2980.2 2008.13 2983.13 2006.07 2985.13 2003C2987.26 1999.8 2988.33 1995.13 2988.33 1989C2988.33 1982.87 2987.26 1978.27 2985.13 1975.2C2983.13 1972 2980.2 1969.87 2976.33 1968.8C2972.46 1967.6 2967.66 1967 2961.93 1967H2943.93V2010.8ZM2989.13 2071L2963.33 2024L2980.33 2022L3000.73 2057.2H3018.93V2071H2989.13ZM3084.98 1953.2C3104.05 1953.2 3118.92 1958.6 3129.58 1969.4C3140.25 1980.07 3145.58 1994.93 3145.58 2014C3145.58 2031.87 3140.38 2045.87 3129.98 2056C3119.58 2066 3105.12 2071 3086.58 2071H3031.78V2057.2H3050.78V1967H3031.78V1953.2H3084.98ZM3082.98 2057.2C3098.05 2057.2 3109.38 2053.53 3116.98 2046.2C3124.72 2038.87 3128.58 2028.13 3128.58 2014C3128.58 1998.53 3124.85 1986.87 3117.38 1979C3110.05 1971 3099.25 1967 3084.98 1967H3066.78V2057.2H3082.98ZM3157.96 1953.2H3211.96V1967H3193.36L3192.96 2057.2H3211.96V2071H3157.76V2057.2H3177.16V1967H3157.96V1953.2ZM3226.9 1953.2H3271.1L3322.1 2046.6V1967H3305.3V1953.2H3357.5V1967H3338.1V2071H3318.5L3261.7 1967L3262.1 2057.2H3278.9V2071H3226.7V2057.2H3245.9L3245.7 1967H3226.9V1953.2ZM3469.26 2060.2C3464.59 2063.53 3460.33 2066.2 3456.46 2068.2C3452.59 2070.2 3448.39 2071.67 3443.86 2072.6C3439.33 2073.53 3433.73 2074 3427.06 2074C3416.66 2074 3407.26 2071.73 3398.86 2067.2C3390.59 2062.67 3383.99 2055.87 3379.06 2046.8C3374.13 2037.6 3371.66 2026 3371.66 2012C3371.66 1999.33 3373.99 1988.4 3378.66 1979.2C3383.46 1969.87 3390.13 1962.73 3398.66 1957.8C3407.19 1952.73 3417.26 1950.2 3428.86 1950.2C3436.06 1950.2 3442.73 1951.13 3448.86 1953C3455.13 1954.73 3460.73 1957.6 3465.66 1961.6L3470.26 1982.8L3456.46 1985.8L3452.86 1970.4C3449.79 1968.53 3446.59 1967 3443.26 1965.8C3440.06 1964.47 3435.33 1963.8 3429.06 1963.8C3422.13 1963.8 3415.53 1965.67 3409.26 1969.4C3403.13 1973.13 3398.13 1978.6 3394.26 1985.8C3390.53 1992.87 3388.66 2001.6 3388.66 2012C3388.66 2023.6 3390.46 2033 3394.06 2040.2C3397.66 2047.27 3402.39 2052.4 3408.26 2055.6C3414.13 2058.8 3420.39 2060.4 3427.06 2060.4C3433.59 2060.4 3438.73 2059.8 3442.46 2058.6C3446.33 2057.4 3450.26 2055.4 3454.26 2052.6V2026.8H3428.66V2013H3469.26V2060.2ZM3539.41 1953.2H3583.61L3617.21 2039L3650.41 1953.2H3693.01V1967H3674.21V2057.2H3693.01V2071H3645.41V2057.2H3658.21V1967L3649.21 1993L3624.81 2056.8H3607.61L3582.01 1992.6L3572.81 1967L3572.21 2057.2H3585.41V2071H3538.61V2057.2H3557.81L3558.01 1967H3539.41V1953.2ZM3707.96 1953.2H3796.76L3806.96 1984L3793.96 1988.4L3785.96 1967H3743.16V2003.2H3780.56V2017H3743.16L3742.96 2057.2H3789.96L3797.96 2035.8L3810.96 2040.2L3800.76 2071H3707.76V2057.2H3726.96L3727.16 1967H3707.96V1953.2ZM3825.34 1953.2H3914.14L3924.34 1984L3911.34 1988.4L3903.34 1967H3860.54V2003.2H3897.94V2017H3860.54L3860.34 2057.2H3907.34L3915.34 2035.8L3928.34 2040.2L3918.14 2071H3825.14V2057.2H3844.34L3844.54 1967H3825.34V1953.2ZM3942.33 1953.2H4045.32V1986H4030.13V1967H4001.93L4001.53 2057.2H4020.53V2071H3966.53V2057.2H3985.53L3985.73 1967H3957.53V1986H3942.33V1953.2ZM4103.2 2074C4093.73 2074 4085.47 2073.13 4078.4 2071.4C4071.47 2069.67 4065.67 2067.93 4061 2066.2L4057.2 2041.8L4070.4 2040.6L4073.2 2055.6C4077.2 2056.93 4081.4 2058.07 4085.8 2059C4090.33 2059.93 4096.07 2060.4 4103 2060.4C4107.93 2060.4 4112.47 2059.73 4116.6 2058.4C4120.87 2056.93 4124.27 2054.67 4126.8 2051.6C4129.47 2048.4 4130.8 2044.13 4130.8 2038.8C4130.8 2033.47 4129.4 2028.87 4126.6 2025C4123.8 2021.13 4118.47 2018.67 4110.6 2017.6L4095.4 2015.4C4083.93 2013.67 4075.13 2009.87 4069 2004C4063 1998.13 4060 1990.8 4060 1982C4060 1976 4061.47 1970.6 4064.4 1965.8C4067.47 1961 4072.13 1957.2 4078.4 1954.4C4084.67 1951.6 4092.6 1950.2 4102.2 1950.2C4107.4 1950.2 4112 1950.4 4116 1950.8C4120.13 1951.2 4124.07 1951.87 4127.8 1952.8C4131.67 1953.73 4135.8 1955.07 4140.2 1956.8L4143.6 1981.6L4130.4 1983L4127.8 1967C4125.13 1965.93 4121.67 1965.13 4117.4 1964.6C4113.13 1963.93 4108.13 1963.6 4102.4 1963.6C4093.87 1963.6 4087.07 1965.13 4082 1968.2C4077.07 1971.27 4074.6 1975.73 4074.6 1981.6C4074.6 1987.2 4076.4 1991.53 4080 1994.6C4083.73 1997.67 4088.87 1999.67 4095.4 2000.6L4113.6 2003.4C4124.93 2005.13 4133.27 2008.93 4138.6 2014.8C4144.07 2020.67 4146.8 2027.93 4146.8 2036.6C4146.8 2042.73 4145.6 2048.2 4143.2 2053C4140.93 2057.67 4137.8 2061.53 4133.8 2064.6C4129.8 2067.67 4125.13 2070 4119.8 2071.6C4114.6 2073.2 4109.07 2074 4103.2 2074ZM1192.4 2175.2C1206.67 2175.2 1217.53 2178.33 1225 2184.6C1232.6 2190.87 1236.4 2200 1236.4 2212C1236.4 2224.13 1232.6 2233.4 1225 2239.8C1217.53 2246.2 1206.67 2249.4 1192.4 2249.4H1174V2279.2H1198V2293H1139.4V2279.2H1158V2189H1139.4V2175.2H1192.4ZM1192.2 2235.4C1210.33 2235.4 1219.4 2227.67 1219.4 2212.2C1219.4 2196.73 1210.33 2189 1192.2 2189H1174.2V2235.4H1192.2ZM1232.83 2293V2279.2H1252.03L1285.23 2189H1265.03V2175.2H1303.83L1340.03 2279.2H1359.03V2293H1310.43V2279.2H1323.03L1316.63 2261H1273.43L1266.63 2279.2H1279.43V2293H1232.83ZM1278.43 2247.2H1311.83L1296.03 2195.4L1278.43 2247.2ZM1415.7 2296C1406.23 2296 1397.97 2295.13 1390.9 2293.4C1383.97 2291.67 1378.17 2289.93 1373.5 2288.2L1369.7 2263.8L1382.9 2262.6L1385.7 2277.6C1389.7 2278.93 1393.9 2280.07 1398.3 2281C1402.83 2281.93 1408.57 2282.4 1415.5 2282.4C1420.43 2282.4 1424.97 2281.73 1429.1 2280.4C1433.37 2278.93 1436.77 2276.67 1439.3 2273.6C1441.97 2270.4 1443.3 2266.13 1443.3 2260.8C1443.3 2255.47 1441.9 2250.87 1439.1 2247C1436.3 2243.13 1430.97 2240.67 1423.1 2239.6L1407.9 2237.4C1396.43 2235.67 1387.63 2231.87 1381.5 2226C1375.5 2220.13 1372.5 2212.8 1372.5 2204C1372.5 2198 1373.97 2192.6 1376.9 2187.8C1379.97 2183 1384.63 2179.2 1390.9 2176.4C1397.17 2173.6 1405.1 2172.2 1414.7 2172.2C1419.9 2172.2 1424.5 2172.4 1428.5 2172.8C1432.63 2173.2 1436.57 2173.87 1440.3 2174.8C1444.17 2175.73 1448.3 2177.07 1452.7 2178.8L1456.1 2203.6L1442.9 2205L1440.3 2189C1437.63 2187.93 1434.17 2187.13 1429.9 2186.6C1425.63 2185.93 1420.63 2185.6 1414.9 2185.6C1406.37 2185.6 1399.57 2187.13 1394.5 2190.2C1389.57 2193.27 1387.1 2197.73 1387.1 2203.6C1387.1 2209.2 1388.9 2213.53 1392.5 2216.6C1396.23 2219.67 1401.37 2221.67 1407.9 2222.6L1426.1 2225.4C1437.43 2227.13 1445.77 2230.93 1451.1 2236.8C1456.57 2242.67 1459.3 2249.93 1459.3 2258.6C1459.3 2264.73 1458.1 2270.2 1455.7 2275C1453.43 2279.67 1450.3 2283.53 1446.3 2286.6C1442.3 2289.67 1437.63 2292 1432.3 2293.6C1427.1 2295.2 1421.57 2296 1415.7 2296ZM1522.93 2296C1513.46 2296 1505.19 2295.13 1498.13 2293.4C1491.19 2291.67 1485.39 2289.93 1480.73 2288.2L1476.93 2263.8L1490.13 2262.6L1492.93 2277.6C1496.93 2278.93 1501.13 2280.07 1505.53 2281C1510.06 2281.93 1515.79 2282.4 1522.73 2282.4C1527.66 2282.4 1532.19 2281.73 1536.33 2280.4C1540.59 2278.93 1543.99 2276.67 1546.53 2273.6C1549.19 2270.4 1550.53 2266.13 1550.53 2260.8C1550.53 2255.47 1549.13 2250.87 1546.33 2247C1543.53 2243.13 1538.19 2240.67 1530.33 2239.6L1515.13 2237.4C1503.66 2235.67 1494.86 2231.87 1488.73 2226C1482.73 2220.13 1479.73 2212.8 1479.73 2204C1479.73 2198 1481.19 2192.6 1484.13 2187.8C1487.19 2183 1491.86 2179.2 1498.13 2176.4C1504.39 2173.6 1512.33 2172.2 1521.93 2172.2C1527.13 2172.2 1531.73 2172.4 1535.73 2172.8C1539.86 2173.2 1543.79 2173.87 1547.53 2174.8C1551.39 2175.73 1555.53 2177.07 1559.93 2178.8L1563.33 2203.6L1550.13 2205L1547.53 2189C1544.86 2187.93 1541.39 2187.13 1537.13 2186.6C1532.86 2185.93 1527.86 2185.6 1522.13 2185.6C1513.59 2185.6 1506.79 2187.13 1501.73 2190.2C1496.79 2193.27 1494.33 2197.73 1494.33 2203.6C1494.33 2209.2 1496.13 2213.53 1499.73 2216.6C1503.46 2219.67 1508.59 2221.67 1515.13 2222.6L1533.33 2225.4C1544.66 2227.13 1552.99 2230.93 1558.33 2236.8C1563.79 2242.67 1566.53 2249.93 1566.53 2258.6C1566.53 2264.73 1565.33 2270.2 1562.93 2275C1560.66 2279.67 1557.53 2283.53 1553.53 2286.6C1549.53 2289.67 1544.86 2292 1539.53 2293.6C1534.33 2295.2 1528.79 2296 1522.93 2296ZM1583.15 2175.2H1637.15V2189H1618.55L1618.15 2279.2H1637.15V2293H1582.95V2279.2H1602.35V2189H1583.15V2175.2ZM1707.9 2172.2C1718.97 2172.2 1728.57 2174.8 1736.7 2180C1744.97 2185.07 1751.37 2192.27 1755.9 2201.6C1760.57 2210.8 1762.9 2221.6 1762.9 2234C1762.9 2246.4 1760.57 2257.27 1755.9 2266.6C1751.37 2275.8 1744.97 2283 1736.7 2288.2C1728.57 2293.4 1719.03 2296 1708.1 2296C1697.17 2296 1687.57 2293.4 1679.3 2288.2C1671.17 2283 1664.77 2275.8 1660.1 2266.6C1655.57 2257.27 1653.3 2246.4 1653.3 2234C1653.3 2221.6 1655.57 2210.8 1660.1 2201.6C1664.63 2192.27 1670.97 2185.07 1679.1 2180C1687.37 2174.8 1696.97 2172.2 1707.9 2172.2ZM1708.1 2186.2C1696.23 2186.2 1686.97 2190.4 1680.3 2198.8C1673.63 2207.2 1670.3 2218.93 1670.3 2234C1670.3 2249.2 1673.63 2261 1680.3 2269.4C1686.97 2277.8 1696.23 2282 1708.1 2282C1719.97 2282 1729.23 2277.8 1735.9 2269.4C1742.57 2261 1745.9 2249.2 1745.9 2234C1745.9 2218.93 1742.57 2207.2 1735.9 2198.8C1729.23 2190.4 1719.97 2186.2 1708.1 2186.2ZM1779.25 2175.2H1823.45L1874.45 2268.6V2189H1857.65V2175.2H1909.85V2189H1890.45V2293H1870.85L1814.05 2189L1814.45 2279.2H1831.25V2293H1779.05V2279.2H1798.25L1798.05 2189H1779.25V2175.2Z" fill="#CBCBCB"/>
<defs>
<radialGradient id="paint0_radial_84_4" cx="0" cy="0" r="1" gradientUnits="userSpaceOnUse" gradientTransform="translate(2613 1567.5) rotate(90) scale(1567.5 2613)">
<stop stop-color="#313131"/>
<stop offset="1" stop-color="#313131"/>
</radialGradient>
</defs>
</svg>
