<svg width="3572" height="1704" viewBox="0 0 3572 1704" fill="none" xmlns="http://www.w3.org/2000/svg">
<rect width="3572" height="1704" fill="#FB7B6B"/>
<rect width="3572" height="1704" stroke="black"/>
<g filter="url(#filter0_d_98_97)">
<path d="M323.184 634.128C327.92 634.128 331.568 635.152 334.128 637.2C336.816 639.248 338.16 642.064 338.16 645.648C338.16 647.44 337.904 649.168 337.392 650.832L332.4 668.688C331.504 672.016 330.032 674.384 327.984 675.792C325.936 677.2 323.248 677.904 319.92 677.904C316.72 677.904 314.16 677.264 312.24 675.984C310.32 674.576 308.912 672.336 308.016 669.264L304.944 658.32C304.432 656.4 303.792 655.12 303.024 654.48C302.256 653.84 300.656 653.52 298.224 653.52H279.024L268.272 691.536H271.92C273.712 691.536 275.248 691.28 276.528 690.768C277.936 690.256 279.408 689.296 280.944 687.888L286.896 682.896C289.072 680.976 290.992 679.632 292.656 678.864C294.448 677.968 296.304 677.52 298.224 677.52C300.656 677.52 302.64 678.224 304.176 679.632C305.84 681.04 306.672 683.024 306.672 685.584C306.672 686.608 306.48 687.824 306.096 689.232L297.648 718.416C295.728 724.688 292.272 727.824 287.28 727.824C283.184 727.824 279.984 725.712 277.68 721.488L274.224 714.96C273.328 713.168 272.496 712.016 271.728 711.504C270.96 710.992 269.808 710.736 268.272 710.736H262.704L254.64 739.344C254.384 740.112 254.256 741.136 254.256 742.416C254.256 744.208 254.64 745.68 255.408 746.832C256.304 747.984 257.584 749.2 259.248 750.48C260.656 751.632 261.616 752.592 262.128 753.36C262.64 754 262.896 754.832 262.896 755.856C262.896 758.16 261.872 759.76 259.824 760.656C257.776 761.552 254.768 762 250.8 762H202.608C199.28 762 196.784 761.424 195.12 760.272C193.456 758.992 192.88 757.264 193.392 755.088C193.648 753.936 194.16 753.04 194.928 752.4C195.568 751.632 196.592 750.8 198 749.904C200.176 748.624 201.904 747.28 203.184 745.872C204.464 744.464 205.488 742.288 206.256 739.344L229.872 656.592C230.384 654.928 230.64 653.392 230.64 651.984C230.64 650.448 230.384 649.168 229.872 648.144C229.488 647.12 228.848 646.032 227.952 644.88C226.8 643.216 226.224 641.872 226.224 640.848C226.224 640.464 226.352 639.76 226.608 638.736C227.12 637.072 228.272 635.92 230.064 635.28C231.856 634.512 234.48 634.128 237.936 634.128H323.184ZM402.498 634.128C405.186 634.128 407.234 634.576 408.642 635.472C410.178 636.24 410.946 637.392 410.946 638.928C410.946 639.568 410.754 640.4 410.37 641.424C409.986 642.32 409.41 643.152 408.642 643.92C408.002 644.56 407.362 645.072 406.722 645.456C406.21 645.712 405.826 645.968 405.57 646.224C403.522 647.376 401.858 648.656 400.578 650.064C399.298 651.472 398.21 653.648 397.314 656.592L374.082 739.344C373.57 741.008 373.314 742.608 373.314 744.144C373.314 745.68 373.506 746.96 373.89 747.984C374.402 749.008 375.106 750.096 376.002 751.248C377.154 752.912 377.73 754.256 377.73 755.28C377.73 755.536 377.602 756.176 377.346 757.2C376.834 758.992 375.682 760.272 373.89 761.04C372.098 761.68 369.41 762 365.826 762H320.706C318.018 762 315.97 761.552 314.562 760.656C313.026 759.76 312.258 758.544 312.258 757.008C312.258 756.24 312.45 755.408 312.834 754.512C313.346 753.104 314.178 752.016 315.33 751.248C316.482 750.48 317.186 750.032 317.442 749.904C319.49 748.624 321.154 747.344 322.434 746.064C323.714 744.656 324.802 742.416 325.698 739.344L349.122 656.592C349.634 654.928 349.89 653.328 349.89 651.792C349.89 650.384 349.634 649.232 349.122 648.336C348.738 647.312 348.162 646.16 347.394 644.88C346.242 643.216 345.666 641.872 345.666 640.848C345.666 640.464 345.794 639.76 346.05 638.736C346.562 637.072 347.65 635.92 349.314 635.28C351.106 634.512 353.794 634.128 357.378 634.128H402.498ZM550.256 634.128C555.504 634.128 558.128 635.792 558.128 639.12C558.128 640.016 558.064 640.656 557.936 641.04C557.552 642.32 556.976 643.344 556.208 644.112C555.44 644.752 554.352 645.52 552.944 646.416C551.024 647.568 549.424 648.848 548.144 650.256C546.864 651.664 545.776 653.84 544.88 656.784L521.072 742.032C518.896 749.712 516.144 755.088 512.816 758.16C509.616 761.232 505.136 762.768 499.375 762.768C494.256 762.768 489.968 761.296 486.512 758.352C483.184 755.28 480.048 750.608 477.104 744.336L448.112 683.28L431.984 739.344C431.6 741.008 431.408 742.48 431.408 743.76C431.408 745.424 431.664 746.832 432.176 747.984C432.816 749.008 433.648 750.096 434.672 751.248C436.08 752.912 436.784 754.32 436.784 755.472C436.784 756.24 436.72 756.816 436.592 757.2C436.08 758.992 434.928 760.272 433.136 761.04C431.344 761.68 428.656 762 425.072 762H404.144C398.895 762 396.271 760.336 396.271 757.008C396.271 756.112 396.335 755.472 396.463 755.088C396.847 753.808 397.423 752.848 398.191 752.208C398.959 751.44 400.047 750.608 401.456 749.712C403.376 748.56 404.976 747.28 406.256 745.872C407.536 744.464 408.624 742.288 409.52 739.344L433.904 653.136L430.832 646.8C429.552 644.24 428.911 642 428.911 640.08C428.911 636.112 431.472 634.128 436.592 634.128H465.008C469.104 634.128 472.176 635.088 474.224 637.008C476.4 638.8 478.704 642.064 481.136 646.8L509.167 703.056L522.416 656.784C522.8 654.992 522.992 653.52 522.992 652.368C522.992 650.704 522.672 649.36 522.032 648.336C521.52 647.184 520.752 646.032 519.728 644.88C518.32 643.216 517.616 641.808 517.616 640.656C517.616 639.888 517.68 639.312 517.808 638.928C518.32 637.136 519.472 635.92 521.264 635.28C523.056 634.512 525.744 634.128 529.328 634.128H550.256ZM597.02 763.152C588.444 763.152 580.636 761.296 573.596 757.584C566.684 753.744 561.18 748.176 557.084 740.88C552.988 733.456 550.94 724.624 550.94 714.384C550.94 706.576 552.284 697.872 554.972 688.272C560.86 667.792 570.076 653.328 582.62 644.88C595.292 636.432 608.796 632.208 623.132 632.208C636.188 632.208 647.964 636.944 658.46 646.416L664.22 640.848C667.42 638.16 670.172 636.304 672.476 635.28C674.78 634.256 677.468 633.744 680.54 633.744C683.868 633.744 686.556 634.576 688.604 636.24C690.652 637.776 691.676 639.888 691.676 642.576C691.676 643.6 691.484 644.816 691.1 646.224L684.188 670.416C682.908 674.512 681.372 677.392 679.58 679.056C677.916 680.72 675.612 681.552 672.668 681.552C669.596 681.552 666.844 680.784 664.412 679.248C662.108 677.712 659.42 674.96 656.348 670.992C652.252 665.616 648.604 661.84 645.404 659.664C642.332 657.36 638.94 656.208 635.228 656.208C629.468 656.208 623.964 659.152 618.716 665.04C613.596 670.8 609.116 680.464 605.276 694.032C602.844 702.864 601.628 710.48 601.628 716.88C601.628 723.664 602.908 728.848 605.468 732.432C608.156 735.888 611.868 737.616 616.604 737.616C620.7 737.616 623.836 736.656 626.012 734.736C628.316 732.816 630.108 729.488 631.388 724.752L632.732 719.952C633.372 717.392 633.692 715.664 633.692 714.768C633.692 713.232 633.308 712.144 632.54 711.504C631.9 710.864 630.748 710.16 629.084 709.392L622.364 706.896C619.42 705.744 617.948 703.632 617.948 700.56C617.948 699.664 618.012 698.96 618.14 698.448C618.652 696.784 619.548 695.568 620.828 694.8C622.236 694.032 624.348 693.648 627.164 693.648L685.148 693.84C689.372 693.84 691.484 695.184 691.484 697.872C691.484 698.384 691.356 699.152 691.1 700.176C690.588 702.096 689.756 703.632 688.604 704.784C687.452 705.936 685.788 707.088 683.612 708.24L678.62 711.12C677.34 711.888 676.38 712.656 675.74 713.424C675.1 714.064 674.652 714.896 674.396 715.92L664.22 751.44C662.94 755.664 661.468 758.48 659.804 759.888C658.268 761.296 656.348 762 654.044 762H645.979C642.908 762 640.348 761.36 638.3 760.08C636.38 758.8 634.78 756.304 633.5 752.592L631.58 747.024C622.364 757.776 610.844 763.152 597.02 763.152ZM809.001 634.128C813.737 634.128 817.385 635.152 819.945 637.2C822.633 639.248 823.977 642.064 823.977 645.648C823.977 647.44 823.721 649.168 823.209 650.832L818.217 668.688C817.321 672.144 815.977 674.576 814.185 675.984C812.521 677.264 810.089 677.904 806.889 677.904C803.817 677.904 801.385 677.264 799.593 675.984C797.929 674.576 796.649 672.336 795.753 669.264L792.681 658.32C792.041 656.016 791.273 654.48 790.377 653.712C789.481 652.944 787.753 652.56 785.193 652.56H765.033L755.433 686.736H763.881C764.777 686.736 765.993 686.096 767.529 684.816L774.057 679.056C775.977 677.392 777.641 676.176 779.049 675.408C780.457 674.64 782.185 674.256 784.233 674.256C786.537 674.256 788.393 674.896 789.801 676.176C791.337 677.328 792.105 678.864 792.105 680.784C792.105 681.296 791.977 682.064 791.721 683.088L783.849 709.776C783.081 712.592 781.737 714.704 779.817 716.112C778.025 717.392 776.041 718.032 773.865 718.032C770.281 718.032 767.593 716.176 765.801 712.464L762.537 705.744C761.641 703.824 760.233 702.864 758.313 702.864H750.825L739.497 743.568H756.393C758.825 743.568 760.937 743.12 762.729 742.224C764.649 741.2 766.697 739.472 768.873 737.04L780.393 724.368C782.441 722.192 784.361 720.656 786.153 719.76C788.073 718.736 790.377 718.224 793.065 718.224C795.881 718.224 798.185 718.864 799.977 720.144C801.769 721.424 802.665 723.344 802.665 725.904C802.665 726.928 802.473 728.144 802.089 729.552L796.521 748.944C795.113 753.808 793.065 757.2 790.377 759.12C787.689 761.04 783.785 762 778.665 762H687.081C684.393 762 682.345 761.552 680.937 760.656C679.401 759.76 678.633 758.544 678.633 757.008C678.633 756.24 678.825 755.408 679.209 754.512C679.721 753.104 680.553 752.016 681.705 751.248C682.857 750.48 683.561 750.032 683.817 749.904C685.865 748.624 687.529 747.344 688.809 746.064C690.089 744.656 691.177 742.416 692.073 739.344L715.689 656.592C716.201 654.928 716.457 653.392 716.457 651.984C716.457 650.448 716.201 649.168 715.689 648.144C715.305 647.12 714.665 646.032 713.769 644.88C712.617 643.216 712.041 641.872 712.041 640.848C712.041 640.464 712.169 639.76 712.425 638.736C712.937 637.072 714.089 635.92 715.881 635.28C717.673 634.512 720.297 634.128 723.753 634.128H809.001ZM959.126 673.104C957.078 680.528 953.238 686.352 947.606 690.576C941.974 694.672 934.87 697.232 926.294 698.256C932.438 698.768 937.046 700.56 940.118 703.632C943.19 706.704 944.726 710.736 944.726 715.728C944.726 717.648 944.406 720.016 943.766 722.832L941.654 732.24C941.398 733.52 941.27 734.416 941.27 734.928C941.27 736.592 941.654 737.872 942.422 738.768C943.19 739.536 944.278 739.92 945.686 739.92C948.374 739.92 950.294 740.304 951.446 741.072C952.726 741.84 953.174 743.248 952.79 745.296C952.278 748.24 950.742 751.12 948.182 753.936C945.622 756.752 941.974 759.12 937.238 761.04C932.63 762.832 926.998 763.728 920.342 763.728C911.894 763.728 905.174 761.872 900.182 758.16C895.19 754.32 892.694 748.88 892.694 741.84C892.694 739.152 893.078 736.272 893.846 733.2L896.918 720.912C897.43 719.248 897.686 717.52 897.686 715.728C897.686 712.784 896.662 710.672 894.614 709.392C892.694 708.112 889.558 707.472 885.206 707.472H877.91L869.078 739.344C868.822 740.112 868.694 741.072 868.694 742.224C868.694 744.016 869.142 745.552 870.038 746.832C870.934 748.112 872.15 749.456 873.686 750.864C874.838 751.76 875.734 752.656 876.374 753.552C877.014 754.32 877.334 755.152 877.334 756.048C877.334 758.224 876.31 759.76 874.262 760.656C872.214 761.552 869.206 762 865.238 762H817.046C813.718 762 811.221 761.424 809.557 760.272C807.893 758.992 807.317 757.264 807.829 755.088C808.085 753.936 808.597 753.04 809.365 752.4C810.005 751.632 811.029 750.8 812.438 749.904C814.614 748.624 816.342 747.28 817.622 745.872C818.902 744.464 819.926 742.288 820.694 739.344L844.118 656.592C844.63 654.928 844.886 653.328 844.886 651.792C844.886 650.384 844.63 649.232 844.118 648.336C843.734 647.312 843.158 646.16 842.39 644.88C841.238 643.216 840.661 641.872 840.661 640.848C840.661 640.464 840.79 639.76 841.046 638.736C841.558 637.072 842.646 635.92 844.31 635.28C846.102 634.512 848.79 634.128 852.374 634.128H916.694C925.526 634.128 933.206 635.472 939.734 638.16C946.39 640.848 951.446 644.56 954.902 649.296C958.486 653.904 960.278 659.152 960.278 665.04C960.278 667.728 959.894 670.416 959.126 673.104ZM909.974 671.184C910.614 668.24 910.934 666 910.934 664.464C910.934 657.68 907.222 654.288 899.798 654.288H891.734L883.286 688.272H891.35C896.342 688.272 900.246 687.056 903.062 684.624C906.006 682.192 908.31 677.712 909.974 671.184ZM1066.99 634.128C1075.69 634.128 1083.25 635.472 1089.65 638.16C1096.17 640.72 1101.1 644.304 1104.43 648.912C1107.89 653.392 1109.61 658.576 1109.61 664.464C1109.61 667.792 1109.17 670.864 1108.27 673.68C1104.56 686.608 1093.87 694.8 1076.21 698.256C1082.35 700.048 1087.21 703.056 1090.8 707.28C1094.38 711.376 1096.17 716.496 1096.17 722.64C1096.17 725.456 1095.66 728.784 1094.64 732.624C1091.82 742.608 1086.13 750.032 1077.55 754.896C1069.1 759.632 1057.07 762 1041.45 762H961.581C958.893 762 956.845 761.552 955.437 760.656C953.901 759.76 953.133 758.544 953.133 757.008C953.133 756.24 953.325 755.408 953.709 754.512C954.221 753.104 955.053 752.016 956.205 751.248C957.357 750.48 958.061 750.032 958.317 749.904C960.365 748.624 962.029 747.344 963.309 746.064C964.589 744.656 965.677 742.416 966.573 739.344L989.997 656.592C990.509 654.928 990.765 653.328 990.765 651.792C990.765 650.384 990.509 649.232 989.997 648.336C989.613 647.312 989.037 646.16 988.269 644.88C987.117 643.216 986.541 641.872 986.541 640.848C986.541 640.464 986.669 639.76 986.925 638.736C987.437 637.072 988.525 635.92 990.189 635.28C991.981 634.512 994.669 634.128 998.253 634.128H1066.99ZM1058.35 669.264C1059.25 666.448 1059.69 663.824 1059.69 661.392C1059.69 654.736 1055.92 651.408 1048.37 651.408H1039.73L1029.55 687.312H1038C1043.37 687.312 1047.6 686.032 1050.67 683.472C1053.87 680.784 1056.43 676.048 1058.35 669.264ZM1044.33 725.712C1045.23 722.64 1045.68 719.824 1045.68 717.264C1045.68 710.352 1041.71 706.896 1033.77 706.896H1024.17L1013.23 744.72H1023.02C1028.53 744.72 1032.94 743.376 1036.27 740.688C1039.6 737.872 1042.29 732.88 1044.33 725.712ZM1197.69 631.248C1213.82 631.248 1226.43 635.088 1235.52 642.768C1244.6 650.32 1249.15 661.264 1249.15 675.6C1249.15 682.384 1248.12 689.68 1246.08 697.488C1242.24 711.824 1236.28 723.984 1228.22 733.968C1220.16 743.952 1210.56 751.504 1199.42 756.624C1188.28 761.744 1176.19 764.304 1163.13 764.304C1147.13 764.304 1134.59 760.528 1125.5 752.976C1116.41 745.296 1111.87 734.288 1111.87 719.952C1111.87 713.424 1112.96 705.936 1115.13 697.488C1118.84 683.28 1124.67 671.248 1132.6 661.392C1140.67 651.408 1150.2 643.92 1161.21 638.928C1172.35 633.808 1184.51 631.248 1197.69 631.248ZM1194.24 650.064C1190.4 650.064 1186.94 651.6 1183.87 654.672C1180.8 657.744 1177.72 662.8 1174.65 669.84C1171.71 676.752 1168.51 686.416 1165.05 698.832C1159.93 716.752 1157.37 729.104 1157.37 735.888C1157.37 739.856 1158.08 742.736 1159.48 744.528C1160.89 746.32 1163.13 747.216 1166.2 747.216C1170.04 747.216 1173.5 745.68 1176.57 742.608C1179.64 739.408 1182.65 734.352 1185.6 727.44C1188.54 720.528 1191.8 710.992 1195.39 698.832C1200.38 681.168 1202.88 668.752 1202.88 661.584C1202.88 657.488 1202.17 654.544 1200.76 652.752C1199.36 650.96 1197.18 650.064 1194.24 650.064ZM1348.81 739.344C1348.3 741.008 1348.04 742.672 1348.04 744.336C1348.04 745.744 1348.24 746.96 1348.62 747.984C1349 748.88 1349.39 749.648 1349.77 750.288C1350.28 750.8 1350.6 751.184 1350.73 751.44C1352.01 752.72 1352.65 754 1352.65 755.28C1352.65 755.536 1352.52 756.176 1352.27 757.2C1351.76 758.992 1350.6 760.272 1348.81 761.04C1347.15 761.68 1344.52 762 1340.94 762H1295.44C1292.75 762 1290.64 761.552 1289.1 760.656C1287.69 759.76 1286.99 758.544 1286.99 757.008C1286.99 756.24 1287.18 755.408 1287.56 754.512C1287.95 753.488 1288.46 752.72 1289.1 752.208C1289.87 751.568 1290.89 750.864 1292.17 750.096C1294.22 748.944 1295.88 747.664 1297.16 746.256C1298.44 744.848 1299.53 742.544 1300.43 739.344L1305.42 722.832H1275.47L1270.28 733.776C1268.11 738.512 1267.02 742.224 1267.02 744.912C1267.02 746.448 1267.28 747.728 1267.79 748.752C1268.3 749.648 1269.07 750.608 1270.09 751.632C1270.99 752.656 1271.56 753.552 1271.82 754.32C1272.2 754.96 1272.27 755.856 1272.01 757.008C1271.5 758.928 1270.41 760.272 1268.75 761.04C1267.21 761.68 1264.72 762 1261.26 762H1232.65C1229.71 762 1227.47 761.488 1225.93 760.464C1224.4 759.312 1223.63 757.84 1223.63 756.048C1223.63 754 1224.4 752.4 1225.93 751.248C1227.34 749.968 1229.52 748.624 1232.46 747.216C1236.3 745.296 1239.37 743.44 1241.68 741.648C1243.98 739.728 1245.96 737.104 1247.63 733.776L1281.8 662.928C1287.05 651.92 1293.2 643.984 1300.24 639.12C1307.4 634.128 1316.81 631.632 1328.46 631.632C1341.52 631.632 1351.63 634.32 1358.8 639.696C1365.96 644.944 1369.55 652.304 1369.55 661.776C1369.55 665.744 1368.91 669.84 1367.63 674.064L1348.81 739.344ZM1311.18 703.632L1321.36 669.84C1321.87 668.304 1322.12 666.704 1322.12 665.04C1322.12 662.608 1321.42 660.816 1320.01 659.664C1318.73 658.384 1316.88 657.744 1314.44 657.744C1311.37 657.744 1308.75 658.64 1306.57 660.432C1304.4 662.224 1302.22 665.424 1300.04 670.032L1284.3 703.632H1311.18ZM1512.25 673.104C1510.2 680.528 1506.36 686.352 1500.73 690.576C1495.1 694.672 1487.99 697.232 1479.42 698.256C1485.56 698.768 1490.17 700.56 1493.24 703.632C1496.31 706.704 1497.85 710.736 1497.85 715.728C1497.85 717.648 1497.53 720.016 1496.89 722.832L1494.78 732.24C1494.52 733.52 1494.39 734.416 1494.39 734.928C1494.39 736.592 1494.78 737.872 1495.55 738.768C1496.31 739.536 1497.4 739.92 1498.81 739.92C1501.5 739.92 1503.42 740.304 1504.57 741.072C1505.85 741.84 1506.3 743.248 1505.91 745.296C1505.4 748.24 1503.87 751.12 1501.31 753.936C1498.75 756.752 1495.1 759.12 1490.36 761.04C1485.75 762.832 1480.12 763.728 1473.47 763.728C1465.02 763.728 1458.3 761.872 1453.31 758.16C1448.31 754.32 1445.82 748.88 1445.82 741.84C1445.82 739.152 1446.2 736.272 1446.97 733.2L1450.04 720.912C1450.55 719.248 1450.81 717.52 1450.81 715.728C1450.81 712.784 1449.79 710.672 1447.74 709.392C1445.82 708.112 1442.68 707.472 1438.33 707.472H1431.03L1422.2 739.344C1421.95 740.112 1421.82 741.072 1421.82 742.224C1421.82 744.016 1422.27 745.552 1423.16 746.832C1424.06 748.112 1425.27 749.456 1426.81 750.864C1427.96 751.76 1428.86 752.656 1429.5 753.552C1430.14 754.32 1430.46 755.152 1430.46 756.048C1430.46 758.224 1429.43 759.76 1427.39 760.656C1425.34 761.552 1422.33 762 1418.36 762H1370.17C1366.84 762 1364.35 761.424 1362.68 760.272C1361.02 758.992 1360.44 757.264 1360.95 755.088C1361.21 753.936 1361.72 753.04 1362.49 752.4C1363.13 751.632 1364.15 750.8 1365.56 749.904C1367.74 748.624 1369.47 747.28 1370.75 745.872C1372.03 744.464 1373.05 742.288 1373.82 739.344L1397.24 656.592C1397.75 654.928 1398.01 653.328 1398.01 651.792C1398.01 650.384 1397.75 649.232 1397.24 648.336C1396.86 647.312 1396.28 646.16 1395.51 644.88C1394.36 643.216 1393.79 641.872 1393.79 640.848C1393.79 640.464 1393.91 639.76 1394.17 638.736C1394.68 637.072 1395.77 635.92 1397.43 635.28C1399.23 634.512 1401.91 634.128 1405.5 634.128H1469.82C1478.65 634.128 1486.33 635.472 1492.86 638.16C1499.51 640.848 1504.57 644.56 1508.03 649.296C1511.61 653.904 1513.4 659.152 1513.4 665.04C1513.4 667.728 1513.02 670.416 1512.25 673.104ZM1463.1 671.184C1463.74 668.24 1464.06 666 1464.06 664.464C1464.06 657.68 1460.35 654.288 1452.92 654.288H1444.86L1436.41 688.272H1444.47C1449.47 688.272 1453.37 687.056 1456.19 684.624C1459.13 682.192 1461.43 677.712 1463.1 671.184ZM1603.22 634.128C1622.42 634.128 1636.88 637.84 1646.61 645.264C1656.34 652.56 1661.2 663.312 1661.2 677.52C1661.2 684.56 1659.92 692.688 1657.36 701.904C1653.14 716.752 1647.44 728.528 1640.27 737.232C1633.11 745.936 1623.63 752.272 1611.86 756.24C1600.21 760.208 1585.23 762.128 1566.93 762L1514.71 761.808C1512.02 761.808 1509.97 761.36 1508.56 760.464C1507.03 759.568 1506.26 758.352 1506.26 756.816C1506.26 756.048 1506.45 755.216 1506.83 754.32C1507.22 753.168 1507.79 752.336 1508.56 751.824C1509.2 751.312 1510.23 750.608 1511.63 749.712C1513.68 748.56 1515.28 747.28 1516.43 745.872C1517.71 744.464 1518.8 742.224 1519.7 739.152L1543.12 656.592C1543.63 654.928 1543.89 653.328 1543.89 651.792C1543.89 650.384 1543.63 649.232 1543.12 648.336C1542.74 647.312 1542.16 646.16 1541.39 644.88C1540.24 643.216 1539.67 641.872 1539.67 640.848C1539.67 640.464 1539.79 639.76 1540.05 638.736C1540.56 637.072 1541.65 635.92 1543.31 635.28C1545.11 634.512 1547.79 634.128 1551.38 634.128H1603.22ZM1608.21 697.68C1611.54 685.648 1613.2 676.176 1613.2 669.264C1613.2 662.48 1611.79 657.808 1608.98 655.248C1606.16 652.688 1602.13 651.408 1596.88 651.408H1592.66L1566.74 744.72H1571.35C1577.23 744.72 1582.16 743.504 1586.13 741.072C1590.23 738.512 1594 733.904 1597.46 727.248C1600.91 720.464 1604.5 710.608 1608.21 697.68ZM1741.06 634.128C1743.75 634.128 1745.8 634.576 1747.2 635.472C1748.74 636.24 1749.51 637.392 1749.51 638.928C1749.51 639.568 1749.32 640.4 1748.93 641.424C1748.55 642.32 1747.97 643.152 1747.2 643.92C1746.56 644.56 1745.92 645.072 1745.28 645.456C1744.77 645.712 1744.39 645.968 1744.13 646.224C1742.08 647.376 1740.42 648.656 1739.14 650.064C1737.86 651.472 1736.77 653.648 1735.88 656.592L1712.64 739.344C1712.13 741.008 1711.88 742.608 1711.88 744.144C1711.88 745.68 1712.07 746.96 1712.45 747.984C1712.96 749.008 1713.67 750.096 1714.56 751.248C1715.72 752.912 1716.29 754.256 1716.29 755.28C1716.29 755.536 1716.16 756.176 1715.91 757.2C1715.4 758.992 1714.24 760.272 1712.45 761.04C1710.66 761.68 1707.97 762 1704.39 762H1659.27C1656.58 762 1654.53 761.552 1653.12 760.656C1651.59 759.76 1650.82 758.544 1650.82 757.008C1650.82 756.24 1651.01 755.408 1651.4 754.512C1651.91 753.104 1652.74 752.016 1653.89 751.248C1655.04 750.48 1655.75 750.032 1656 749.904C1658.05 748.624 1659.72 747.344 1661 746.064C1662.28 744.656 1663.36 742.416 1664.26 739.344L1687.68 656.592C1688.2 654.928 1688.45 653.328 1688.45 651.792C1688.45 650.384 1688.2 649.232 1687.68 648.336C1687.3 647.312 1686.72 646.16 1685.96 644.88C1684.8 643.216 1684.23 641.872 1684.23 640.848C1684.23 640.464 1684.36 639.76 1684.61 638.736C1685.12 637.072 1686.21 635.92 1687.88 635.28C1689.67 634.512 1692.36 634.128 1695.94 634.128H1741.06ZM1888.82 634.128C1894.07 634.128 1896.69 635.792 1896.69 639.12C1896.69 640.016 1896.63 640.656 1896.5 641.04C1896.11 642.32 1895.54 643.344 1894.77 644.112C1894 644.752 1892.91 645.52 1891.51 646.416C1889.59 647.568 1887.99 648.848 1886.71 650.256C1885.43 651.664 1884.34 653.84 1883.44 656.784L1859.63 742.032C1857.46 749.712 1854.71 755.088 1851.38 758.16C1848.18 761.232 1843.7 762.768 1837.94 762.768C1832.82 762.768 1828.53 761.296 1825.07 758.352C1821.75 755.28 1818.61 750.608 1815.67 744.336L1786.67 683.28L1770.55 739.344C1770.16 741.008 1769.97 742.48 1769.97 743.76C1769.97 745.424 1770.23 746.832 1770.74 747.984C1771.38 749.008 1772.21 750.096 1773.23 751.248C1774.64 752.912 1775.35 754.32 1775.35 755.472C1775.35 756.24 1775.28 756.816 1775.15 757.2C1774.64 758.992 1773.49 760.272 1771.7 761.04C1769.91 761.68 1767.22 762 1763.63 762H1742.71C1737.46 762 1734.83 760.336 1734.83 757.008C1734.83 756.112 1734.9 755.472 1735.03 755.088C1735.41 753.808 1735.99 752.848 1736.75 752.208C1737.52 751.44 1738.61 750.608 1740.02 749.712C1741.94 748.56 1743.54 747.28 1744.82 745.872C1746.1 744.464 1747.19 742.288 1748.08 739.344L1772.47 653.136L1769.39 646.8C1768.11 644.24 1767.47 642 1767.47 640.08C1767.47 636.112 1770.03 634.128 1775.15 634.128H1803.57C1807.67 634.128 1810.74 635.088 1812.79 637.008C1814.96 638.8 1817.27 642.064 1819.7 646.8L1847.73 703.056L1860.98 656.784C1861.36 654.992 1861.55 653.52 1861.55 652.368C1861.55 650.704 1861.23 649.36 1860.59 648.336C1860.08 647.184 1859.31 646.032 1858.29 644.88C1856.88 643.216 1856.18 641.808 1856.18 640.656C1856.18 639.888 1856.24 639.312 1856.37 638.928C1856.88 637.136 1858.03 635.92 1859.83 635.28C1861.62 634.512 1864.31 634.128 1867.89 634.128H1888.82ZM1935.58 763.152C1927.01 763.152 1919.2 761.296 1912.16 757.584C1905.25 753.744 1899.74 748.176 1895.65 740.88C1891.55 733.456 1889.5 724.624 1889.5 714.384C1889.5 706.576 1890.85 697.872 1893.53 688.272C1899.42 667.792 1908.64 653.328 1921.18 644.88C1933.85 636.432 1947.36 632.208 1961.69 632.208C1974.75 632.208 1986.53 636.944 1997.02 646.416L2002.78 640.848C2005.98 638.16 2008.73 636.304 2011.04 635.28C2013.34 634.256 2016.03 633.744 2019.1 633.744C2022.43 633.744 2025.12 634.576 2027.17 636.24C2029.21 637.776 2030.24 639.888 2030.24 642.576C2030.24 643.6 2030.05 644.816 2029.66 646.224L2022.75 670.416C2021.47 674.512 2019.93 677.392 2018.14 679.056C2016.48 680.72 2014.17 681.552 2011.23 681.552C2008.16 681.552 2005.41 680.784 2002.97 679.248C2000.67 677.712 1997.98 674.96 1994.91 670.992C1990.81 665.616 1987.17 661.84 1983.97 659.664C1980.89 657.36 1977.5 656.208 1973.79 656.208C1968.03 656.208 1962.53 659.152 1957.28 665.04C1952.16 670.8 1947.68 680.464 1943.84 694.032C1941.41 702.864 1940.19 710.48 1940.19 716.88C1940.19 723.664 1941.47 728.848 1944.03 732.432C1946.72 735.888 1950.43 737.616 1955.17 737.616C1959.26 737.616 1962.4 736.656 1964.57 734.736C1966.88 732.816 1968.67 729.488 1969.95 724.752L1971.29 719.952C1971.93 717.392 1972.25 715.664 1972.25 714.768C1972.25 713.232 1971.87 712.144 1971.1 711.504C1970.46 710.864 1969.31 710.16 1967.65 709.392L1960.93 706.896C1957.98 705.744 1956.51 703.632 1956.51 700.56C1956.51 699.664 1956.57 698.96 1956.7 698.448C1957.21 696.784 1958.11 695.568 1959.39 694.8C1960.8 694.032 1962.91 693.648 1965.73 693.648L2023.71 693.84C2027.93 693.84 2030.05 695.184 2030.05 697.872C2030.05 698.384 2029.92 699.152 2029.66 700.176C2029.15 702.096 2028.32 703.632 2027.17 704.784C2026.01 705.936 2024.35 707.088 2022.17 708.24L2017.18 711.12C2015.9 711.888 2014.94 712.656 2014.3 713.424C2013.66 714.064 2013.21 714.896 2012.96 715.92L2002.78 751.44C2001.5 755.664 2000.03 758.48 1998.37 759.888C1996.83 761.296 1994.91 762 1992.61 762H1984.54C1981.47 762 1978.91 761.36 1976.86 760.08C1974.94 758.8 1973.34 756.304 1972.06 752.592L1970.14 747.024C1960.93 757.776 1949.41 763.152 1935.58 763.152ZM283.248 914.128C285.936 914.128 287.984 914.576 289.392 915.472C290.928 916.24 291.696 917.392 291.696 918.928C291.696 919.568 291.504 920.4 291.12 921.424C290.736 922.32 290.16 923.152 289.392 923.92C288.752 924.56 288.112 925.072 287.472 925.456C286.96 925.712 286.576 925.968 286.32 926.224C284.272 927.376 282.608 928.656 281.328 930.064C280.048 931.472 278.96 933.648 278.064 936.592L254.832 1019.34C254.32 1021.01 254.064 1022.61 254.064 1024.14C254.064 1025.68 254.256 1026.96 254.64 1027.98C255.152 1029.01 255.856 1030.1 256.752 1031.25C257.904 1032.91 258.48 1034.26 258.48 1035.28C258.48 1035.54 258.352 1036.18 258.096 1037.2C257.584 1038.99 256.432 1040.27 254.64 1041.04C252.848 1041.68 250.16 1042 246.576 1042H201.456C198.768 1042 196.72 1041.55 195.312 1040.66C193.776 1039.76 193.008 1038.54 193.008 1037.01C193.008 1036.24 193.2 1035.41 193.584 1034.51C194.096 1033.1 194.928 1032.02 196.08 1031.25C197.232 1030.48 197.936 1030.03 198.192 1029.9C200.24 1028.62 201.904 1027.34 203.184 1026.06C204.464 1024.66 205.552 1022.42 206.448 1019.34L229.872 936.592C230.384 934.928 230.64 933.328 230.64 931.792C230.64 930.384 230.384 929.232 229.872 928.336C229.488 927.312 228.912 926.16 228.144 924.88C226.992 923.216 226.416 921.872 226.416 920.848C226.416 920.464 226.544 919.76 226.8 918.736C227.312 917.072 228.4 915.92 230.064 915.28C231.856 914.512 234.544 914.128 238.128 914.128H283.248ZM347.433 912.976C354.601 912.976 361.193 913.872 367.209 915.664C373.353 917.328 379.561 920.016 385.833 923.728L390.249 920.08C393.321 917.648 395.817 915.984 397.737 915.088C399.785 914.192 402.089 913.744 404.649 913.744C407.721 913.744 410.153 914.448 411.945 915.856C413.737 917.136 414.633 919.056 414.633 921.616C414.633 922.64 414.441 923.728 414.057 924.88L405.993 951.376C405.097 954.448 403.945 956.624 402.537 957.904C401.257 959.184 399.273 959.824 396.585 959.824C393.769 959.824 391.273 958.992 389.097 957.328C387.049 955.536 383.785 951.952 379.305 946.576C374.825 941.456 370.729 937.872 367.017 935.824C363.433 933.648 359.721 932.56 355.881 932.56C353.065 932.56 350.697 933.52 348.777 935.44C346.857 937.232 345.897 939.472 345.897 942.16C345.897 945.232 347.433 948.112 350.505 950.8C353.577 953.36 358.377 956.624 364.905 960.592C371.561 964.56 377.065 968.144 381.417 971.344C385.769 974.544 389.481 978.512 392.553 983.248C395.625 987.984 397.161 993.424 397.161 999.568C397.161 1003.54 396.521 1007.5 395.241 1011.47C392.169 1021.71 386.217 1029.52 377.385 1034.9C368.553 1040.14 358.249 1042.77 346.473 1042.77C337.641 1042.77 330.217 1041.74 324.201 1039.7C318.185 1037.65 312.041 1034.19 305.769 1029.33L298.857 1035.09C295.657 1037.78 293.033 1039.63 290.985 1040.66C288.937 1041.55 286.633 1042 284.073 1042C281.129 1042 278.761 1041.3 276.969 1039.89C275.305 1038.48 274.473 1036.56 274.473 1034.13C274.473 1032.85 274.729 1031.5 275.241 1030.1L284.649 1001.49C285.673 998.16 287.081 995.792 288.873 994.384C290.665 992.976 292.969 992.272 295.785 992.272C298.729 992.272 301.353 993.296 303.657 995.344C306.089 997.392 309.225 1001.1 313.065 1006.48C317.161 1012.37 320.937 1016.46 324.393 1018.77C327.977 1021.07 332.201 1022.22 337.065 1022.22C340.521 1022.22 343.145 1021.71 344.937 1020.69C346.857 1019.54 348.201 1017.74 348.969 1015.31C349.225 1014.67 349.353 1013.71 349.353 1012.43C349.353 1009.36 347.881 1006.54 344.937 1003.98C341.993 1001.42 337.449 998.352 331.305 994.768C324.777 990.8 319.465 987.28 315.369 984.208C311.273 981.008 307.689 977.04 304.617 972.304C301.673 967.568 300.201 962 300.201 955.6C300.201 951.12 300.905 946.704 302.313 942.352C305.001 933.52 310.505 926.416 318.825 921.04C327.145 915.664 336.681 912.976 347.433 912.976ZM556.454 992.464C560.038 992.464 562.726 993.232 564.518 994.768C566.438 996.176 567.398 998.224 567.398 1000.91C567.398 1002.06 567.206 1003.34 566.822 1004.75L560.486 1027.22C558.822 1032.72 556.454 1036.56 553.382 1038.74C550.438 1040.91 546.022 1042 540.134 1042H449.894C447.206 1042 445.157 1041.55 443.749 1040.66C442.213 1039.76 441.445 1038.54 441.445 1037.01C441.445 1036.24 441.637 1035.41 442.021 1034.51C442.405 1033.49 443.045 1032.66 443.941 1032.02C444.837 1031.25 445.797 1030.54 446.822 1029.9C448.87 1028.62 450.534 1027.34 451.814 1026.06C453.094 1024.66 454.182 1022.42 455.078 1019.34L478.502 936.592C479.014 934.928 479.27 933.328 479.27 931.792C479.27 930.384 479.014 929.232 478.502 928.336C478.118 927.312 477.542 926.16 476.774 924.88C475.622 923.216 475.046 921.872 475.046 920.848C475.046 920.464 475.174 919.76 475.43 918.736C475.942 917.072 477.03 915.92 478.694 915.28C480.486 914.512 483.174 914.128 486.758 914.128H531.878C534.566 914.128 536.614 914.576 538.022 915.472C539.558 916.24 540.326 917.392 540.326 918.928C540.326 919.568 540.134 920.4 539.75 921.424C539.366 922.32 538.79 923.152 538.022 923.92C537.382 924.56 536.742 925.072 536.102 925.456C535.59 925.712 535.206 925.968 534.95 926.224C532.902 927.376 531.238 928.656 529.958 930.064C528.678 931.472 527.59 933.648 526.694 936.592L501.926 1023.57H513.83C516.774 1023.57 519.27 1023.06 521.318 1022.03C523.494 1021.01 525.734 1019.09 528.038 1016.27L541.286 1000.53C543.718 997.712 546.022 995.664 548.198 994.384C550.502 993.104 553.254 992.464 556.454 992.464ZM656.748 914.128C659.436 914.128 661.484 914.576 662.892 915.472C664.428 916.24 665.196 917.392 665.196 918.928C665.196 919.568 665.004 920.4 664.62 921.424C664.236 922.32 663.66 923.152 662.892 923.92C662.252 924.56 661.612 925.072 660.972 925.456C660.46 925.712 660.076 925.968 659.82 926.224C657.772 927.376 656.108 928.656 654.828 930.064C653.548 931.472 652.46 933.648 651.564 936.592L628.332 1019.34C627.82 1021.01 627.564 1022.61 627.564 1024.14C627.564 1025.68 627.756 1026.96 628.14 1027.98C628.652 1029.01 629.356 1030.1 630.252 1031.25C631.404 1032.91 631.98 1034.26 631.98 1035.28C631.98 1035.54 631.852 1036.18 631.596 1037.2C631.084 1038.99 629.932 1040.27 628.14 1041.04C626.348 1041.68 623.66 1042 620.076 1042H574.956C572.268 1042 570.22 1041.55 568.812 1040.66C567.276 1039.76 566.508 1038.54 566.508 1037.01C566.508 1036.24 566.7 1035.41 567.084 1034.51C567.596 1033.1 568.428 1032.02 569.58 1031.25C570.732 1030.48 571.436 1030.03 571.692 1029.9C573.74 1028.62 575.404 1027.34 576.684 1026.06C577.964 1024.66 579.052 1022.42 579.948 1019.34L603.372 936.592C603.884 934.928 604.14 933.328 604.14 931.792C604.14 930.384 603.884 929.232 603.372 928.336C602.988 927.312 602.412 926.16 601.644 924.88C600.492 923.216 599.916 921.872 599.916 920.848C599.916 920.464 600.044 919.76 600.3 918.736C600.812 917.072 601.9 915.92 603.564 915.28C605.356 914.512 608.044 914.128 611.628 914.128H656.748ZM780.122 914.128C784.858 914.128 788.506 915.152 791.066 917.2C793.754 919.248 795.098 922.064 795.098 925.648C795.098 927.44 794.842 929.168 794.33 930.832L789.338 948.688C788.442 952.016 786.97 954.384 784.922 955.792C782.874 957.2 780.186 957.904 776.858 957.904C773.658 957.904 771.098 957.264 769.178 955.984C767.258 954.576 765.85 952.336 764.954 949.264L761.882 938.32C761.37 936.4 760.73 935.12 759.962 934.48C759.194 933.84 757.594 933.52 755.162 933.52H735.962L725.21 971.536H728.858C730.65 971.536 732.186 971.28 733.466 970.768C734.874 970.256 736.346 969.296 737.882 967.888L743.834 962.896C746.01 960.976 747.93 959.632 749.594 958.864C751.386 957.968 753.242 957.52 755.162 957.52C757.594 957.52 759.578 958.224 761.114 959.632C762.778 961.04 763.61 963.024 763.61 965.584C763.61 966.608 763.418 967.824 763.034 969.232L754.586 998.416C752.666 1004.69 749.21 1007.82 744.218 1007.82C740.122 1007.82 736.922 1005.71 734.618 1001.49L731.162 994.96C730.266 993.168 729.434 992.016 728.666 991.504C727.898 990.992 726.746 990.736 725.21 990.736H719.642L711.578 1019.34C711.322 1020.11 711.194 1021.14 711.194 1022.42C711.194 1024.21 711.578 1025.68 712.346 1026.83C713.242 1027.98 714.522 1029.2 716.186 1030.48C717.594 1031.63 718.554 1032.59 719.066 1033.36C719.578 1034 719.834 1034.83 719.834 1035.86C719.834 1038.16 718.81 1039.76 716.762 1040.66C714.714 1041.55 711.706 1042 707.738 1042H659.546C656.218 1042 653.721 1041.42 652.057 1040.27C650.393 1038.99 649.817 1037.26 650.329 1035.09C650.585 1033.94 651.097 1033.04 651.865 1032.4C652.505 1031.63 653.529 1030.8 654.938 1029.9C657.114 1028.62 658.842 1027.28 660.122 1025.87C661.402 1024.46 662.426 1022.29 663.194 1019.34L686.81 936.592C687.322 934.928 687.578 933.392 687.578 931.984C687.578 930.448 687.322 929.168 686.81 928.144C686.426 927.12 685.786 926.032 684.89 924.88C683.738 923.216 683.161 921.872 683.161 920.848C683.161 920.464 683.29 919.76 683.546 918.736C684.058 917.072 685.21 915.92 687.002 915.28C688.794 914.512 691.418 914.128 694.874 914.128H780.122ZM899.564 914.128C904.3 914.128 907.948 915.152 910.508 917.2C913.196 919.248 914.54 922.064 914.54 925.648C914.54 927.44 914.284 929.168 913.772 930.832L908.78 948.688C907.884 952.144 906.54 954.576 904.748 955.984C903.084 957.264 900.652 957.904 897.452 957.904C894.38 957.904 891.948 957.264 890.156 955.984C888.492 954.576 887.212 952.336 886.316 949.264L883.244 938.32C882.604 936.016 881.836 934.48 880.94 933.712C880.044 932.944 878.316 932.56 875.756 932.56H855.596L845.996 966.736H854.444C855.34 966.736 856.556 966.096 858.092 964.816L864.62 959.056C866.54 957.392 868.204 956.176 869.612 955.408C871.02 954.64 872.748 954.256 874.796 954.256C877.1 954.256 878.956 954.896 880.364 956.176C881.9 957.328 882.667 958.864 882.667 960.784C882.667 961.296 882.54 962.064 882.284 963.088L874.412 989.776C873.644 992.592 872.3 994.704 870.38 996.112C868.588 997.392 866.604 998.032 864.428 998.032C860.844 998.032 858.156 996.176 856.364 992.464L853.1 985.744C852.204 983.824 850.796 982.864 848.876 982.864H841.388L830.06 1023.57H846.956C849.388 1023.57 851.5 1023.12 853.292 1022.22C855.212 1021.2 857.26 1019.47 859.436 1017.04L870.956 1004.37C873.004 1002.19 874.924 1000.66 876.716 999.76C878.636 998.736 880.94 998.224 883.628 998.224C886.444 998.224 888.748 998.864 890.54 1000.14C892.332 1001.42 893.228 1003.34 893.228 1005.9C893.228 1006.93 893.036 1008.14 892.652 1009.55L887.083 1028.94C885.676 1033.81 883.628 1037.2 880.94 1039.12C878.252 1041.04 874.348 1042 869.228 1042H777.644C774.956 1042 772.907 1041.55 771.499 1040.66C769.963 1039.76 769.195 1038.54 769.195 1037.01C769.195 1036.24 769.387 1035.41 769.771 1034.51C770.283 1033.1 771.115 1032.02 772.267 1031.25C773.419 1030.48 774.123 1030.03 774.38 1029.9C776.428 1028.62 778.092 1027.34 779.372 1026.06C780.652 1024.66 781.74 1022.42 782.636 1019.34L806.252 936.592C806.764 934.928 807.02 933.392 807.02 931.984C807.02 930.448 806.764 929.168 806.252 928.144C805.868 927.12 805.228 926.032 804.332 924.88C803.18 923.216 802.604 921.872 802.604 920.848C802.604 920.464 802.732 919.76 802.988 918.736C803.5 917.072 804.652 915.92 806.444 915.28C808.236 914.512 810.86 914.128 814.316 914.128H899.564Z" fill="#FFACA2"/>
</g>
<rect x="2227.39" y="876.023" width="225.096" height="808.299" rx="107.5" transform="rotate(-128.035 2227.39 876.023)" fill="#FFC09D" stroke="#FFACA2"/>
<circle cx="2203.77" cy="705.887" r="20.9348" transform="rotate(-39.7194 2203.77 705.887)" fill="#313131"/>
<circle cx="2246.58" cy="757.415" r="20.9348" transform="rotate(-39.7194 2246.58 757.415)" fill="#313131"/>
<circle cx="2252.08" cy="665.753" r="20.9348" transform="rotate(-39.7194 2252.08 665.753)" fill="#313131"/>
<circle cx="2294.89" cy="717.282" r="20.9348" transform="rotate(-39.7194 2294.89 717.282)" fill="#313131"/>
<circle cx="2633.69" cy="365.047" r="20.9348" transform="rotate(-39.7194 2633.69 365.047)" fill="#313131"/>
<circle cx="2676.5" cy="416.575" r="20.9348" transform="rotate(-39.7194 2676.5 416.575)" fill="#313131"/>
<circle cx="2682" cy="324.913" r="20.9348" transform="rotate(-39.7194 2682 324.913)" fill="#313131"/>
<circle cx="2724.81" cy="376.441" r="20.9348" transform="rotate(-39.7194 2724.81 376.441)" fill="#313131"/>
<rect x="3523.92" y="1056.16" width="225.096" height="808.299" rx="107.5" transform="rotate(130.823 3523.92 1056.16)" fill="#FFC09D" stroke="#FFACA2"/>
<circle cx="3361.55" cy="1112.21" r="20.9348" transform="rotate(-140.862 3361.55 1112.21)" fill="#313131"/>
<circle cx="3403.84" cy="1060.25" r="20.9348" transform="rotate(-140.862 3403.84 1060.25)" fill="#313131"/>
<circle cx="3312.84" cy="1072.57" r="20.9348" transform="rotate(-140.862 3312.84 1072.57)" fill="#313131"/>
<circle cx="3355.13" cy="1020.61" r="20.9348" transform="rotate(-140.862 3355.13 1020.61)" fill="#313131"/>
<circle cx="2944.06" cy="756.261" r="20.9348" transform="rotate(-140.862 2944.06 756.261)" fill="#313131"/>
<circle cx="2986.34" cy="704.301" r="20.9348" transform="rotate(-140.862 2986.34 704.301)" fill="#313131"/>
<circle cx="2895.35" cy="716.619" r="20.9348" transform="rotate(-140.862 2895.35 716.619)" fill="#313131"/>
<circle cx="2937.63" cy="664.658" r="20.9348" transform="rotate(-140.862 2937.63 664.658)" fill="#313131"/>
<rect x="2180.35" y="1328.47" width="225.096" height="808.299" rx="107.5" transform="rotate(-93.036 2180.35 1328.47)" fill="#FFC09D" stroke="#FFACA2"/>
<circle cx="2258.58" cy="1175.56" r="20.9348" transform="rotate(-4.72029 2258.58 1175.56)" fill="#313131"/>
<circle cx="2264.1" cy="1242.32" r="20.9348" transform="rotate(-4.72029 2264.1 1242.32)" fill="#313131"/>
<circle cx="2321.18" cy="1170.39" r="20.9348" transform="rotate(-4.72029 2321.18 1170.39)" fill="#313131"/>
<circle cx="2326.69" cy="1237.15" r="20.9348" transform="rotate(-4.72029 2326.69 1237.15)" fill="#313131"/>
<circle cx="2806.25" cy="1142.94" r="20.9348" transform="rotate(-4.72029 2806.25 1142.94)" fill="#313131"/>
<circle cx="2811.76" cy="1209.7" r="20.9348" transform="rotate(-4.72029 2811.76 1209.7)" fill="#313131"/>
<circle cx="2868.84" cy="1137.77" r="20.9348" transform="rotate(-4.72029 2868.84 1137.77)" fill="#313131"/>
<circle cx="2874.35" cy="1204.53" r="20.9348" transform="rotate(-4.72029 2874.35 1204.53)" fill="#313131"/>
<defs>
<filter id="filter0_d_98_97" x="192.624" y="631.248" width="1837.61" height="491.52" filterUnits="userSpaceOnUse" color-interpolation-filters="sRGB">
<feFlood flood-opacity="0" result="BackgroundImageFix"/>
<feColorMatrix in="SourceAlpha" type="matrix" values="0 0 0 0 0 0 0 0 0 0 0 0 0 0 0 0 0 0 127 0" result="hardAlpha"/>
<feOffset dy="80"/>
<feComposite in2="hardAlpha" operator="out"/>
<feColorMatrix type="matrix" values="0 0 0 0 0.843137 0 0 0 0 0.219608 0 0 0 0 0.368627 0 0 0 1 0"/>
<feBlend mode="normal" in2="BackgroundImageFix" result="effect1_dropShadow_98_97"/>
<feBlend mode="normal" in="SourceGraphic" in2="effect1_dropShadow_98_97" result="shape"/>
</filter>
</defs>
</svg>
