<svg width="3572" height="1704" viewBox="0 0 3572 1704" fill="none" xmlns="http://www.w3.org/2000/svg">
<rect width="3572" height="1704" fill="#FB7B6B"/>
<g filter="url(#filter0_d_71_28)">
<path d="M1863.15 1326.63C1821.85 1337.51 1780.09 1308.71 1774.1 1265.21C1768.11 1221.72 1761.15 1171.2 1754.34 1121.79C1747.54 1072.37 1808.41 1036.44 1838.25 1036.84C1868.1 1037.24 2169.74 1068.32 2317.06 1015.53C2469.32 960.967 2605.14 741.606 2688.44 577.431C2719.43 516.371 2814.41 523.499 2833.98 590.015C2833.98 590.015 2932.44 924.613 2944.06 964.116C2955.68 1003.62 2933.29 1044.7 2894.57 1054.9C2855.85 1065.1 1904.46 1315.75 1863.15 1326.63Z" fill="#FFC09D"/>
</g>
<g filter="url(#filter1_d_71_28)">
<path d="M1720.18 467.315C1700.22 456.513 1694.52 430.17 1708.01 411.142C1721.51 392.114 1737.18 370.016 1752.51 348.398C1767.84 326.78 1804.48 334.995 1815.9 346.002C1827.32 357.008 1932.86 478.729 2009.13 511.845C2087.95 546.071 2220.33 510.478 2312.29 477.17C2346.5 464.782 2380.7 502.078 2364.09 534.962C2364.09 534.962 2280.57 700.38 2270.71 719.909C2260.85 739.438 2237.24 747.21 2218.53 737.083C2199.82 726.956 1740.13 478.117 1720.18 467.315Z" fill="#FFC09D"/>
</g>
<path d="M2034.44 1189.99C2037.99 1206.76 2027.27 1223.23 2010.5 1226.77C1993.73 1230.32 1977.26 1219.61 1973.72 1202.84C1970.17 1186.07 1980.89 1169.6 1997.65 1166.05C2014.42 1162.5 2030.89 1173.22 2034.44 1189.99Z" fill="#313131"/>
<circle cx="2701.16" cy="937.882" r="31.0338" transform="rotate(-11.948 2701.16 937.882)" fill="#313131"/>
<path d="M418.504 690.248C434.632 690.248 447.24 694.088 456.328 701.768C465.416 709.32 469.96 720.264 469.96 734.6C469.96 741.384 468.936 748.68 466.888 756.488C463.048 770.824 457.096 782.984 449.032 792.968C440.968 802.952 431.368 810.504 420.232 815.624C409.096 820.744 397 823.304 383.944 823.304C367.944 823.304 355.4 819.528 346.312 811.976C337.224 804.296 332.68 793.288 332.68 778.952C332.68 772.424 333.768 764.936 335.944 756.488C339.656 742.28 345.48 730.248 353.416 720.392C361.48 710.408 371.016 702.92 382.024 697.928C393.16 692.808 405.32 690.248 418.504 690.248ZM415.048 709.064C411.208 709.064 407.752 710.6 404.68 713.672C401.608 716.744 398.536 721.8 395.464 728.84C392.52 735.752 389.32 745.416 385.864 757.832C380.744 775.752 378.184 788.104 378.184 794.888C378.184 798.856 378.888 801.736 380.296 803.528C381.704 805.32 383.944 806.216 387.016 806.216C390.856 806.216 394.312 804.68 397.384 801.608C400.456 798.408 403.464 793.352 406.408 786.44C409.352 779.528 412.616 769.992 416.2 757.832C421.192 740.168 423.688 727.752 423.688 720.584C423.688 716.488 422.984 713.544 421.576 711.752C420.168 709.96 417.992 709.064 415.048 709.064ZM566.989 693.128C575.693 693.128 583.245 694.472 589.645 697.16C596.173 699.72 601.101 703.304 604.429 707.912C607.885 712.392 609.613 717.576 609.613 723.464C609.613 726.792 609.165 729.864 608.269 732.68C604.557 745.608 593.869 753.8 576.205 757.256C582.349 759.048 587.213 762.056 590.797 766.28C594.381 770.376 596.173 775.496 596.173 781.64C596.173 784.456 595.661 787.784 594.637 791.624C591.821 801.608 586.125 809.032 577.549 813.896C569.101 818.632 557.069 821 541.453 821H461.581C458.893 821 456.845 820.552 455.437 819.656C453.901 818.76 453.133 817.544 453.133 816.008C453.133 815.24 453.325 814.408 453.709 813.512C454.221 812.104 455.053 811.016 456.205 810.248C457.357 809.48 458.061 809.032 458.317 808.904C460.365 807.624 462.029 806.344 463.309 805.064C464.589 803.656 465.677 801.416 466.573 798.344L489.997 715.592C490.509 713.928 490.765 712.328 490.765 710.792C490.765 709.384 490.509 708.232 489.997 707.336C489.613 706.312 489.037 705.16 488.269 703.88C487.117 702.216 486.541 700.872 486.541 699.848C486.541 699.464 486.669 698.76 486.925 697.736C487.437 696.072 488.525 694.92 490.189 694.28C491.981 693.512 494.669 693.128 498.253 693.128H566.989ZM558.349 728.264C559.245 725.448 559.693 722.824 559.693 720.392C559.693 713.736 555.917 710.408 548.365 710.408H539.725L529.549 746.312H537.997C543.373 746.312 547.597 745.032 550.669 742.472C553.869 739.784 556.429 735.048 558.349 728.264ZM544.333 784.712C545.229 781.64 545.677 778.824 545.677 776.264C545.677 769.352 541.709 765.896 533.773 765.896H524.173L513.229 803.72H523.021C528.525 803.72 532.941 802.376 536.269 799.688C539.597 796.872 542.285 791.88 544.333 784.712ZM675.996 691.976C683.164 691.976 689.756 692.872 695.772 694.664C701.916 696.328 708.124 699.016 714.396 702.728L718.812 699.08C721.884 696.648 724.38 694.984 726.3 694.088C728.348 693.192 730.652 692.744 733.212 692.744C736.284 692.744 738.716 693.448 740.508 694.856C742.3 696.136 743.196 698.056 743.196 700.616C743.196 701.64 743.004 702.728 742.62 703.88L734.556 730.376C733.66 733.448 732.508 735.624 731.1 736.904C729.82 738.184 727.836 738.824 725.148 738.824C722.332 738.824 719.836 737.992 717.66 736.328C715.612 734.536 712.348 730.952 707.868 725.576C703.388 720.456 699.292 716.872 695.58 714.824C691.996 712.648 688.284 711.56 684.444 711.56C681.628 711.56 679.26 712.52 677.34 714.44C675.42 716.232 674.46 718.472 674.46 721.16C674.46 724.232 675.996 727.112 679.068 729.8C682.14 732.36 686.94 735.624 693.468 739.592C700.124 743.56 705.628 747.144 709.979 750.344C714.332 753.544 718.044 757.512 721.116 762.248C724.188 766.984 725.724 772.424 725.724 778.568C725.724 782.536 725.084 786.504 723.804 790.472C720.732 800.712 714.78 808.52 705.948 813.896C697.116 819.144 686.812 821.768 675.036 821.768C666.204 821.768 658.78 820.744 652.764 818.696C646.748 816.648 640.604 813.192 634.332 808.328L627.42 814.088C624.22 816.776 621.596 818.632 619.548 819.656C617.5 820.552 615.196 821 612.636 821C609.692 821 607.324 820.296 605.532 818.888C603.868 817.48 603.035 815.56 603.035 813.128C603.035 811.848 603.291 810.504 603.803 809.096L613.212 780.488C614.236 777.16 615.644 774.792 617.436 773.384C619.228 771.976 621.532 771.272 624.348 771.272C627.292 771.272 629.916 772.296 632.22 774.344C634.652 776.392 637.788 780.104 641.628 785.48C645.724 791.368 649.5 795.464 652.956 797.768C656.54 800.072 660.764 801.224 665.628 801.224C669.084 801.224 671.708 800.712 673.5 799.688C675.42 798.536 676.764 796.744 677.532 794.312C677.788 793.672 677.916 792.712 677.916 791.432C677.916 788.36 676.444 785.544 673.5 782.984C670.556 780.424 666.012 777.352 659.868 773.768C653.34 769.8 648.028 766.28 643.932 763.208C639.836 760.008 636.252 756.04 633.18 751.304C630.236 746.568 628.764 741 628.764 734.6C628.764 730.12 629.468 725.704 630.876 721.352C633.564 712.52 639.068 705.416 647.388 700.04C655.708 694.664 665.244 691.976 675.996 691.976ZM890.355 693.128C897.395 693.128 900.915 696.008 900.915 701.768C900.915 703.56 900.531 705.8 899.763 708.488L895.155 724.04C893.747 728.776 892.019 732.104 889.971 734.024C887.923 735.944 884.979 736.904 881.139 736.904C877.939 736.904 875.443 736.072 873.651 734.408C871.987 732.744 870.387 730.12 868.851 726.536L865.587 718.664C864.563 716.232 863.475 714.568 862.323 713.672C861.171 712.776 859.379 712.328 856.947 712.328H852.531L828.147 798.152C827.763 799.816 827.571 801.288 827.571 802.568C827.571 804.104 827.763 805.384 828.147 806.408C828.659 807.432 829.363 808.52 830.259 809.672C831.411 811.464 831.987 812.936 831.987 814.088C831.987 814.344 831.859 814.984 831.603 816.008C830.963 817.672 829.683 818.888 827.763 819.656C825.971 820.424 823.347 820.808 819.891 820.808H774.771C772.083 820.808 769.971 820.36 768.435 819.464C767.027 818.568 766.323 817.288 766.323 815.624C766.323 814.856 766.515 814.088 766.899 813.32C767.411 812.168 767.987 811.336 768.627 810.824C769.395 810.184 770.483 809.416 771.891 808.52C773.811 807.368 775.411 806.088 776.691 804.68C777.971 803.272 779.059 801.096 779.955 798.152L804.147 712.328H799.731C796.915 712.328 794.611 712.776 792.819 713.672C791.027 714.568 789.107 716.232 787.059 718.664L780.723 726.536C777.779 729.992 774.899 732.616 772.083 734.408C769.395 736.072 766.451 736.904 763.251 736.904C760.307 736.904 758.003 736.136 756.339 734.6C754.675 733.064 753.843 730.952 753.843 728.264C753.843 726.984 754.035 725.576 754.419 724.04L759.411 706.568C760.435 702.984 761.587 700.296 762.867 698.504C764.147 696.584 765.939 695.24 768.243 694.472C770.675 693.576 774.067 693.128 778.419 693.128H890.355ZM978.375 798.344C977.863 800.008 977.607 801.672 977.607 803.336C977.607 804.744 977.799 805.96 978.183 806.984C978.567 807.88 978.951 808.648 979.335 809.288C979.847 809.8 980.167 810.184 980.295 810.44C981.575 811.72 982.215 813 982.215 814.28C982.215 814.536 982.087 815.176 981.831 816.2C981.319 817.992 980.167 819.272 978.375 820.04C976.711 820.68 974.087 821 970.503 821H924.999C922.311 821 920.199 820.552 918.663 819.656C917.255 818.76 916.551 817.544 916.551 816.008C916.551 815.24 916.743 814.408 917.127 813.512C917.511 812.488 918.023 811.72 918.663 811.208C919.431 810.568 920.455 809.864 921.735 809.096C923.783 807.944 925.447 806.664 926.727 805.256C928.007 803.848 929.095 801.544 929.991 798.344L934.983 781.832H905.031L899.847 792.776C897.671 797.512 896.583 801.224 896.583 803.912C896.583 805.448 896.839 806.728 897.351 807.752C897.863 808.648 898.631 809.608 899.655 810.632C900.551 811.656 901.127 812.552 901.383 813.32C901.767 813.96 901.831 814.856 901.575 816.008C901.063 817.928 899.975 819.272 898.311 820.04C896.775 820.68 894.279 821 890.823 821H862.215C859.27 821 857.03 820.488 855.494 819.464C853.958 818.312 853.19 816.84 853.19 815.048C853.19 813 853.958 811.4 855.494 810.248C856.902 808.968 859.078 807.624 862.023 806.216C865.863 804.296 868.935 802.44 871.239 800.648C873.543 798.728 875.527 796.104 877.191 792.776L911.367 721.928C916.615 710.92 922.759 702.984 929.799 698.12C936.967 693.128 946.375 690.632 958.022 690.632C971.079 690.632 981.191 693.32 988.359 698.696C995.527 703.944 999.111 711.304 999.111 720.776C999.111 724.744 998.471 728.84 997.191 733.064L978.375 798.344ZM940.743 762.632L950.919 728.84C951.431 727.304 951.687 725.704 951.687 724.04C951.687 721.608 950.983 719.816 949.575 718.664C948.295 717.384 946.439 716.744 944.007 716.744C940.935 716.744 938.311 717.64 936.135 719.432C933.959 721.224 931.783 724.424 929.607 729.032L913.863 762.632H940.743ZM1061.94 822.152C1051.19 822.152 1041.53 820.168 1032.95 816.2C1024.37 812.232 1017.53 806.408 1012.41 798.728C1007.41 790.92 1004.92 781.512 1004.92 770.504C1004.92 762.824 1006.26 754.504 1008.95 745.544C1014.84 726.344 1023.73 712.52 1035.64 704.072C1047.54 695.496 1060.28 691.208 1073.85 691.208C1081.14 691.208 1087.61 692.296 1093.24 694.472C1098.87 696.648 1104.05 699.784 1108.79 703.88L1113.97 699.848C1117.43 697.16 1120.31 695.304 1122.61 694.28C1125.05 693.256 1127.73 692.744 1130.68 692.744C1133.88 692.744 1136.44 693.448 1138.36 694.856C1140.28 696.264 1141.24 698.312 1141.24 701C1141.24 702.408 1140.98 703.816 1140.47 705.224L1129.72 735.176C1128.57 738.632 1127.16 741.064 1125.49 742.472C1123.96 743.88 1121.59 744.584 1118.39 744.584C1115.06 744.584 1112.31 743.432 1110.13 741.128C1108.09 738.696 1105.72 734.6 1103.03 728.84C1099.96 722.824 1097.46 718.856 1095.54 716.936C1093.62 715.016 1090.81 714.056 1087.09 714.056C1081.85 714.056 1076.79 717.32 1071.93 723.848C1067.06 730.248 1062.65 739.912 1058.68 752.84C1055.35 763.72 1053.69 772.808 1053.69 780.104C1053.69 786.504 1054.9 791.304 1057.33 794.504C1059.77 797.576 1063.03 799.112 1067.13 799.112C1073.14 799.112 1078.07 797.768 1081.91 795.08C1085.88 792.392 1089.91 788.744 1094.01 784.136C1096.57 781.32 1098.61 779.272 1100.15 777.992C1101.81 776.584 1103.54 775.88 1105.33 775.88C1107.64 775.88 1110.07 777.032 1112.63 779.336C1115.19 781.64 1116.41 783.944 1116.28 786.248C1116.41 789.064 1114.1 793.416 1109.37 799.304C1104.76 805.192 1098.29 810.504 1089.97 815.24C1081.78 819.848 1072.44 822.152 1061.94 822.152ZM1236.2 771.464C1239.79 771.464 1242.48 772.232 1244.27 773.768C1246.19 775.176 1247.15 777.224 1247.15 779.912C1247.15 781.064 1246.96 782.344 1246.57 783.752L1240.24 806.216C1238.57 811.72 1236.2 815.56 1233.13 817.736C1230.19 819.912 1225.77 821 1219.88 821H1129.64C1126.96 821 1124.91 820.552 1123.5 819.656C1121.96 818.76 1121.2 817.544 1121.2 816.008C1121.2 815.24 1121.39 814.408 1121.77 813.512C1122.16 812.488 1122.8 811.656 1123.69 811.016C1124.59 810.248 1125.55 809.544 1126.57 808.904C1128.62 807.624 1130.28 806.344 1131.56 805.064C1132.84 803.656 1133.93 801.416 1134.83 798.344L1158.25 715.592C1158.76 713.928 1159.02 712.328 1159.02 710.792C1159.02 709.384 1158.76 708.232 1158.25 707.336C1157.87 706.312 1157.29 705.16 1156.52 703.88C1155.37 702.216 1154.8 700.872 1154.8 699.848C1154.8 699.464 1154.92 698.76 1155.18 697.736C1155.69 696.072 1156.78 694.92 1158.44 694.28C1160.24 693.512 1162.92 693.128 1166.51 693.128H1211.63C1214.32 693.128 1216.36 693.576 1217.77 694.472C1219.31 695.24 1220.08 696.392 1220.08 697.928C1220.08 698.568 1219.88 699.4 1219.5 700.424C1219.12 701.32 1218.54 702.152 1217.77 702.92C1217.13 703.56 1216.49 704.072 1215.85 704.456C1215.34 704.712 1214.96 704.968 1214.7 705.224C1212.65 706.376 1210.99 707.656 1209.71 709.064C1208.43 710.472 1207.34 712.648 1206.44 715.592L1181.68 802.568H1193.58C1196.52 802.568 1199.02 802.056 1201.07 801.032C1203.24 800.008 1205.48 798.088 1207.79 795.272L1221.04 779.528C1223.47 776.712 1225.77 774.664 1227.95 773.384C1230.25 772.104 1233 771.464 1236.2 771.464ZM1376.63 693.128C1381.36 693.128 1385.01 694.152 1387.57 696.2C1390.26 698.248 1391.6 701.064 1391.6 704.648C1391.6 706.44 1391.35 708.168 1390.83 709.832L1385.84 727.688C1384.95 731.144 1383.6 733.576 1381.81 734.984C1380.15 736.264 1377.71 736.904 1374.51 736.904C1371.44 736.904 1369.01 736.264 1367.22 734.984C1365.55 733.576 1364.27 731.336 1363.38 728.264L1360.31 717.32C1359.67 715.016 1358.9 713.48 1358 712.712C1357.11 711.944 1355.38 711.56 1352.82 711.56H1332.66L1323.06 745.736H1331.51C1332.4 745.736 1333.62 745.096 1335.15 743.816L1341.68 738.056C1343.6 736.392 1345.27 735.176 1346.67 734.408C1348.08 733.64 1349.81 733.256 1351.86 733.256C1354.16 733.256 1356.02 733.896 1357.43 735.176C1358.96 736.328 1359.73 737.864 1359.73 739.784C1359.73 740.296 1359.6 741.064 1359.35 742.088L1351.47 768.776C1350.71 771.592 1349.36 773.704 1347.44 775.112C1345.65 776.392 1343.67 777.032 1341.49 777.032C1337.91 777.032 1335.22 775.176 1333.43 771.464L1330.16 764.744C1329.27 762.824 1327.86 761.864 1325.94 761.864H1318.45L1307.12 802.568H1324.02C1326.45 802.568 1328.56 802.12 1330.35 801.224C1332.27 800.2 1334.32 798.472 1336.5 796.04L1348.02 783.368C1350.07 781.192 1351.99 779.656 1353.78 778.76C1355.7 777.736 1358 777.224 1360.69 777.224C1363.51 777.224 1365.81 777.864 1367.6 779.144C1369.39 780.424 1370.29 782.344 1370.29 784.904C1370.29 785.928 1370.1 787.144 1369.71 788.552L1364.15 807.944C1362.74 812.808 1360.69 816.2 1358 818.12C1355.31 820.04 1351.41 821 1346.29 821H1254.71C1252.02 821 1249.97 820.552 1248.56 819.656C1247.03 818.76 1246.26 817.544 1246.26 816.008C1246.26 815.24 1246.45 814.408 1246.83 813.512C1247.35 812.104 1248.18 811.016 1249.33 810.248C1250.48 809.48 1251.19 809.032 1251.44 808.904C1253.49 807.624 1255.15 806.344 1256.43 805.064C1257.71 803.656 1258.8 801.416 1259.7 798.344L1283.31 715.592C1283.83 713.928 1284.08 712.392 1284.08 710.984C1284.08 709.448 1283.83 708.168 1283.31 707.144C1282.93 706.12 1282.29 705.032 1281.39 703.88C1280.24 702.216 1279.67 700.872 1279.67 699.848C1279.67 699.464 1279.79 698.76 1280.05 697.736C1280.56 696.072 1281.71 694.92 1283.51 694.28C1285.3 693.512 1287.92 693.128 1291.38 693.128H1376.63ZM1451.87 691.976C1459.04 691.976 1465.63 692.872 1471.65 694.664C1477.79 696.328 1484 699.016 1490.27 702.728L1494.69 699.08C1497.76 696.648 1500.25 694.984 1502.17 694.088C1504.22 693.192 1506.53 692.744 1509.09 692.744C1512.16 692.744 1514.59 693.448 1516.38 694.856C1518.17 696.136 1519.07 698.056 1519.07 700.616C1519.07 701.64 1518.88 702.728 1518.49 703.88L1510.43 730.376C1509.53 733.448 1508.38 735.624 1506.97 736.904C1505.69 738.184 1503.71 738.824 1501.02 738.824C1498.21 738.824 1495.71 737.992 1493.53 736.328C1491.49 734.536 1488.22 730.952 1483.74 725.576C1479.26 720.456 1475.17 716.872 1471.45 714.824C1467.87 712.648 1464.16 711.56 1460.32 711.56C1457.5 711.56 1455.13 712.52 1453.21 714.44C1451.29 716.232 1450.33 718.472 1450.33 721.16C1450.33 724.232 1451.87 727.112 1454.94 729.8C1458.01 732.36 1462.81 735.624 1469.34 739.592C1476 743.56 1481.5 747.144 1485.85 750.344C1490.21 753.544 1493.92 757.512 1496.99 762.248C1500.06 766.984 1501.6 772.424 1501.6 778.568C1501.6 782.536 1500.96 786.504 1499.68 790.472C1496.61 800.712 1490.65 808.52 1481.82 813.896C1472.99 819.144 1462.69 821.768 1450.91 821.768C1442.08 821.768 1434.65 820.744 1428.64 818.696C1422.62 816.648 1416.48 813.192 1410.21 808.328L1403.29 814.088C1400.09 816.776 1397.47 818.632 1395.42 819.656C1393.37 820.552 1391.07 821 1388.51 821C1385.57 821 1383.2 820.296 1381.41 818.888C1379.74 817.48 1378.91 815.56 1378.91 813.128C1378.91 811.848 1379.17 810.504 1379.68 809.096L1389.09 780.488C1390.11 777.16 1391.52 774.792 1393.31 773.384C1395.1 771.976 1397.41 771.272 1400.22 771.272C1403.17 771.272 1405.79 772.296 1408.09 774.344C1410.53 776.392 1413.66 780.104 1417.5 785.48C1421.6 791.368 1425.37 795.464 1428.83 797.768C1432.41 800.072 1436.64 801.224 1441.5 801.224C1444.96 801.224 1447.58 800.712 1449.37 799.688C1451.29 798.536 1452.64 796.744 1453.41 794.312C1453.66 793.672 1453.79 792.712 1453.79 791.432C1453.79 788.36 1452.32 785.544 1449.37 782.984C1446.43 780.424 1441.89 777.352 1435.74 773.768C1429.21 769.8 1423.9 766.28 1419.81 763.208C1415.71 760.008 1412.13 756.04 1409.05 751.304C1406.11 746.568 1404.64 741 1404.64 734.6C1404.64 730.12 1405.34 725.704 1406.75 721.352C1409.44 712.52 1414.94 705.416 1423.26 700.04C1431.58 694.664 1441.12 691.976 1451.87 691.976Z" fill="#FFACA2"/>
<path d="M325 840.2H1512.35V849.8H325V840.2Z" fill="#FFACA2"/>
<defs>
<filter id="filter0_d_71_28" x="1753.82" y="535.597" width="1213.32" height="833.338" filterUnits="userSpaceOnUse" color-interpolation-filters="sRGB">
<feFlood flood-opacity="0" result="BackgroundImageFix"/>
<feColorMatrix in="SourceAlpha" type="matrix" values="0 0 0 0 0 0 0 0 0 0 0 0 0 0 0 0 0 0 127 0" result="hardAlpha"/>
<feOffset dx="20" dy="40"/>
<feComposite in2="hardAlpha" operator="out"/>
<feColorMatrix type="matrix" values="0 0 0 0 0.1925 0 0 0 0 0.1925 0 0 0 0 0.1925 0 0 0 1 0"/>
<feBlend mode="normal" in2="BackgroundImageFix" result="effect1_dropShadow_71_28"/>
<feBlend mode="normal" in="SourceGraphic" in2="effect1_dropShadow_71_28" result="shape"/>
</filter>
<filter id="filter1_d_71_28" x="1700.67" y="334.871" width="687.751" height="446.66" filterUnits="userSpaceOnUse" color-interpolation-filters="sRGB">
<feFlood flood-opacity="0" result="BackgroundImageFix"/>
<feColorMatrix in="SourceAlpha" type="matrix" values="0 0 0 0 0 0 0 0 0 0 0 0 0 0 0 0 0 0 127 0" result="hardAlpha"/>
<feOffset dx="20" dy="40"/>
<feComposite in2="hardAlpha" operator="out"/>
<feColorMatrix type="matrix" values="0 0 0 0 0.704119 0 0 0 0 0.173069 0 0 0 0 0.299987 0 0 0 1 0"/>
<feBlend mode="normal" in2="BackgroundImageFix" result="effect1_dropShadow_71_28"/>
<feBlend mode="normal" in="SourceGraphic" in2="effect1_dropShadow_71_28" result="shape"/>
</filter>
</defs>
</svg>
