<svg width="3572" height="1704" viewBox="0 0 3572 1704" fill="none" xmlns="http://www.w3.org/2000/svg">
<rect width="3572" height="1704" fill="#FB7B6B"/>
<path d="M1472.78 965.299C1445.28 966.649 1422.79 942.917 1424.82 914.694C1426.85 886.471 1429.2 853.693 1431.5 821.629C1433.8 789.564 1476.97 775.032 1495.74 779.266C1514.5 783.5 1700.54 843.343 1800.47 829.712C1903.75 815.624 2018.65 695.438 2093.07 603.04C2120.76 568.676 2179.69 585.842 2183.16 630.391C2183.16 630.391 2200.59 854.491 2202.65 880.948C2204.71 907.405 2185.11 930.321 2159.33 931.586C2133.56 932.852 1500.27 963.949 1472.78 965.299Z" fill="#FFC09D"/>
<g style="mix-blend-mode:multiply">
<path d="M1426.78 899.299C1399.28 900.649 1376.79 876.917 1378.82 848.694C1380.85 820.471 1383.2 787.693 1385.5 755.629C1387.8 723.564 1430.97 709.032 1449.74 713.266C1468.5 717.5 1654.54 777.343 1754.47 763.712C1857.75 749.624 1972.65 629.438 2047.07 537.04C2074.76 502.676 2133.69 519.842 2137.16 564.391C2137.16 564.391 2154.59 788.491 2156.65 814.948C2158.71 841.405 2139.11 864.321 2113.33 865.586C2087.56 866.852 1454.27 897.949 1426.78 899.299Z" fill="#FFC09D"/>
</g>
<path d="M1599 902C1599 913.046 1590.05 922 1579 922C1567.95 922 1559 913.046 1559 902C1559 890.954 1567.95 882 1579 882C1590.05 882 1599 890.954 1599 902Z" fill="#313131"/>
<circle cx="2053" cy="832" r="20" fill="#313131"/>
<path d="M1320.62 473.344C1309.1 473.344 1298.99 470.976 1290.29 466.24C1281.58 461.504 1274.86 454.848 1270.13 446.272C1265.39 437.568 1263.02 427.648 1263.02 416.512C1263.02 400.256 1266.35 385.92 1273.01 373.504C1279.79 360.96 1289.2 351.232 1301.23 344.32C1313.39 337.28 1327.34 333.76 1343.09 333.76C1354.86 333.76 1365.1 336.128 1373.81 340.864C1382.64 345.472 1389.42 352.064 1394.16 360.64C1398.9 369.088 1401.26 378.88 1401.26 390.016C1401.26 406.144 1397.87 420.544 1391.09 433.216C1384.43 445.888 1374.96 455.744 1362.67 462.784C1350.51 469.824 1336.5 473.344 1320.62 473.344ZM1327.15 433.6C1333.81 433.6 1339.57 431.872 1344.43 428.416C1349.42 424.832 1353.2 420.16 1355.76 414.4C1358.32 408.512 1359.6 402.176 1359.6 395.392C1359.6 388.352 1357.68 382.912 1353.84 379.072C1350.13 375.104 1344.75 373.12 1337.71 373.12C1331.06 373.12 1325.23 374.848 1320.24 378.304C1315.25 381.76 1311.41 386.432 1308.72 392.32C1306.16 398.08 1304.88 404.352 1304.88 411.136C1304.88 418.176 1306.74 423.68 1310.45 427.648C1314.29 431.616 1319.86 433.6 1327.15 433.6ZM1537.02 371.392C1535.62 379.328 1532.35 386.048 1527.23 391.552C1522.11 396.928 1515.97 400.512 1508.8 402.304C1515.46 403.968 1520.51 407.168 1523.97 411.904C1527.55 416.512 1529.34 421.952 1529.34 428.224C1529.34 430.272 1529.15 432.448 1528.77 434.752C1526.72 446.656 1521.15 455.872 1512.06 462.4C1503.1 468.8 1491.26 472 1476.54 472H1405.31L1429.31 336.064H1498.62C1510.91 336.064 1520.45 338.496 1527.23 343.36C1534.14 348.096 1537.6 355.072 1537.6 364.288C1537.6 366.464 1537.41 368.832 1537.02 371.392ZM1492.1 379.648C1492.22 379.008 1492.29 378.176 1492.29 377.152C1492.29 374.592 1491.46 372.736 1489.79 371.584C1488.26 370.432 1485.82 369.856 1482.5 369.856H1465.98L1462.53 389.056H1479.04C1482.88 389.056 1485.89 388.288 1488.06 386.752C1490.24 385.216 1491.58 382.848 1492.1 379.648ZM1486.34 428.416C1486.46 427.776 1486.53 426.944 1486.53 425.92C1486.53 421.056 1483.26 418.624 1476.74 418.624H1457.34L1454.08 437.824H1473.47C1477.31 437.824 1480.26 437.12 1482.3 435.712C1484.48 434.176 1485.82 431.744 1486.34 428.416ZM1594.93 473.344C1578.29 473.344 1564.98 470.016 1554.99 463.36C1545.14 456.704 1540.21 446.976 1540.21 434.176C1540.21 432.896 1540.34 430.976 1540.59 428.416H1585.91C1585.52 432.384 1586.1 435.328 1587.63 437.248C1589.3 439.168 1591.99 440.128 1595.7 440.128C1598 440.128 1599.92 439.552 1601.46 438.4C1602.99 437.248 1603.76 435.584 1603.76 433.408C1603.76 430.336 1602.23 427.776 1599.15 425.728C1596.21 423.68 1591.41 421.248 1584.75 418.432C1577.46 415.36 1571.44 412.416 1566.71 409.6C1562.1 406.784 1558.07 402.944 1554.61 398.08C1551.15 393.216 1549.43 387.136 1549.43 379.84C1549.43 370.24 1551.79 361.984 1556.53 355.072C1561.39 348.032 1568.11 342.72 1576.69 339.136C1585.27 335.552 1595.06 333.76 1606.07 333.76C1615.92 333.76 1624.69 335.296 1632.37 338.368C1640.18 341.44 1646.26 345.92 1650.61 351.808C1655.09 357.568 1657.33 364.416 1657.33 372.352C1657.33 373.376 1657.2 375.168 1656.95 377.728H1611.06C1611.31 376.192 1611.44 375.168 1611.44 374.656C1611.44 372.224 1610.74 370.368 1609.33 369.088C1607.92 367.68 1606 366.976 1603.57 366.976C1601.39 366.976 1599.6 367.616 1598.19 368.896C1596.79 370.176 1596.08 371.84 1596.08 373.888C1596.08 376.704 1597.55 379.2 1600.5 381.376C1603.44 383.424 1608.11 385.984 1614.51 389.056C1621.81 392.512 1627.83 395.776 1632.56 398.848C1637.43 401.92 1641.59 406.016 1645.04 411.136C1648.5 416.128 1650.23 422.272 1650.23 429.568C1650.23 437.888 1647.99 445.376 1643.51 452.032C1639.15 458.688 1632.82 463.936 1624.5 467.776C1616.18 471.488 1606.32 473.344 1594.93 473.344ZM1790.5 336.064L1784.55 369.856H1748.45L1730.41 472H1687.78L1705.83 369.856H1670.12L1676.07 336.064H1790.5ZM1868.88 451.456H1823.57L1813.2 472H1768.46L1842.19 336.064H1891.34L1916.88 472H1871.95L1868.88 451.456ZM1864.27 419.392L1858.7 381.568L1839.69 419.392H1864.27ZM1934.82 403.84C1937.12 390.4 1941.92 378.432 1949.22 367.936C1956.51 357.44 1965.73 349.312 1976.87 343.552C1988 337.664 2000.42 334.72 2014.11 334.72C2025.89 334.72 2036 336.96 2044.45 341.44C2053.03 345.792 2059.55 352 2064.03 360.064C2068.51 368.128 2070.69 377.536 2070.56 388.288H2025.63C2024.35 383.808 2022.05 380.352 2018.72 377.92C2015.39 375.36 2011.3 374.08 2006.43 374.08C1999.27 374.08 1993.12 376.768 1988 382.144C1982.88 387.52 1979.55 394.752 1978.02 403.84C1977.51 406.4 1977.25 409.152 1977.25 412.096C1977.25 418.752 1978.85 424 1982.05 427.84C1985.38 431.68 1990.05 433.6 1996.07 433.6C2000.93 433.6 2005.47 432.384 2009.7 429.952C2013.92 427.392 2017.44 423.872 2020.26 419.392H2065.19C2061.35 430.144 2055.78 439.552 2048.48 447.616C2041.19 455.68 2032.48 461.952 2022.37 466.432C2012.39 470.784 2001.51 472.96 1989.73 472.96C1977.83 472.96 1967.65 470.784 1959.2 466.432C1950.75 461.952 1944.35 455.68 1940 447.616C1935.65 439.424 1933.47 429.952 1933.47 419.2C1933.47 413.952 1933.92 408.832 1934.82 403.84ZM2119.51 439.744H2160.6L2154.84 472H2071.12L2095.12 336.064H2137.75L2119.51 439.744ZM2228.92 369.856L2226.04 386.752H2268.28L2262.52 418.816H2220.28L2216.83 438.016H2264.83L2258.87 472H2168.25L2192.25 336.064H2282.87L2276.92 369.856H2228.92ZM2333.31 473.344C2316.67 473.344 2303.35 470.016 2293.37 463.36C2283.51 456.704 2278.59 446.976 2278.59 434.176C2278.59 432.896 2278.71 430.976 2278.97 428.416H2324.28C2323.9 432.384 2324.47 435.328 2326.01 437.248C2327.67 439.168 2330.36 440.128 2334.07 440.128C2336.38 440.128 2338.3 439.552 2339.83 438.4C2341.37 437.248 2342.14 435.584 2342.14 433.408C2342.14 430.336 2340.6 427.776 2337.53 425.728C2334.59 423.68 2329.79 421.248 2323.13 418.432C2315.83 415.36 2309.82 412.416 2305.08 409.6C2300.47 406.784 2296.44 402.944 2292.99 398.08C2289.53 393.216 2287.8 387.136 2287.8 379.84C2287.8 370.24 2290.17 361.984 2294.91 355.072C2299.77 348.032 2306.49 342.72 2315.07 339.136C2323.64 335.552 2333.43 333.76 2344.44 333.76C2354.3 333.76 2363.07 335.296 2370.75 338.368C2378.55 341.44 2384.63 345.92 2388.99 351.808C2393.47 357.568 2395.71 364.416 2395.71 372.352C2395.71 373.376 2395.58 375.168 2395.32 377.728H2349.43C2349.69 376.192 2349.82 375.168 2349.82 374.656C2349.82 372.224 2349.11 370.368 2347.71 369.088C2346.3 367.68 2344.38 366.976 2341.95 366.976C2339.77 366.976 2337.98 367.616 2336.57 368.896C2335.16 370.176 2334.46 371.84 2334.46 373.888C2334.46 376.704 2335.93 379.2 2338.87 381.376C2341.82 383.424 2346.49 385.984 2352.89 389.056C2360.19 392.512 2366.2 395.776 2370.94 398.848C2375.8 401.92 2379.96 406.016 2383.42 411.136C2386.87 416.128 2388.6 422.272 2388.6 429.568C2388.6 437.888 2386.36 445.376 2381.88 452.032C2377.53 458.688 2371.19 463.936 2362.87 467.776C2354.55 471.488 2344.7 473.344 2333.31 473.344Z" fill="#D7385E"/>
<path d="M1254 491.2H2398.2V500.8H1254V491.2Z" fill="#D7385E"/>
<path d="M1517.7 1257L1508.3 1248.17C1496.26 1255.34 1482.12 1258.92 1465.86 1258.92C1454.86 1258.92 1445.26 1257.19 1437.06 1253.74C1429 1250.28 1422.79 1245.42 1418.44 1239.14C1414.09 1232.74 1411.91 1225.45 1411.91 1217.26C1411.91 1209.45 1413.9 1202.34 1417.86 1195.94C1421.96 1189.42 1428.04 1183.91 1436.1 1179.43C1430.22 1172.14 1427.27 1164.46 1427.27 1156.39C1427.27 1149.48 1429.06 1143.14 1432.65 1137.38C1436.36 1131.62 1441.74 1127.08 1448.78 1123.75C1455.82 1120.3 1464.2 1118.57 1473.93 1118.57C1483.78 1118.57 1492.17 1120.36 1499.08 1123.94C1505.99 1127.4 1511.18 1132.01 1514.63 1137.77C1518.09 1143.53 1519.82 1149.74 1519.82 1156.39H1481.03C1481.03 1153.96 1480.33 1152.17 1478.92 1151.02C1477.51 1149.74 1475.85 1149.1 1473.93 1149.1C1471.88 1149.1 1470.09 1149.74 1468.55 1151.02C1467.14 1152.17 1466.44 1153.83 1466.44 1156.01C1466.44 1160.1 1469.26 1164.84 1474.89 1170.22L1505.8 1200.17C1507.59 1196.71 1509.19 1192.81 1510.6 1188.46L1511.18 1186.73H1552.46L1550.54 1191.72C1545.67 1204.52 1539.66 1215.91 1532.49 1225.9L1564.55 1257H1517.7ZM1468.94 1225.32C1473.54 1225.32 1477.83 1224.62 1481.8 1223.21L1459.14 1202.09C1456.97 1203.62 1455.3 1205.42 1454.15 1207.46C1453.13 1209.38 1452.62 1211.37 1452.62 1213.42C1452.62 1216.74 1454.02 1219.56 1456.84 1221.86C1459.78 1224.17 1463.82 1225.32 1468.94 1225.32ZM1659.97 1258.34C1643.72 1258.34 1630.28 1254.57 1619.65 1247.02C1609.16 1239.34 1603.46 1228.14 1602.56 1213.42H1647.88C1648.52 1221.22 1651.97 1225.13 1658.24 1225.13C1660.55 1225.13 1662.47 1224.62 1664 1223.59C1665.67 1222.44 1666.5 1220.71 1666.5 1218.41C1666.5 1215.21 1664.77 1212.65 1661.32 1210.73C1657.86 1208.68 1652.48 1206.38 1645.19 1203.82C1636.48 1200.74 1629.25 1197.74 1623.49 1194.79C1617.86 1191.85 1613 1187.56 1608.9 1181.93C1604.8 1176.3 1602.82 1169.06 1602.95 1160.23C1602.95 1151.4 1605.19 1143.91 1609.67 1137.77C1614.28 1131.5 1620.48 1126.76 1628.29 1123.56C1636.23 1120.36 1645.12 1118.76 1654.98 1118.76C1671.62 1118.76 1684.8 1122.6 1694.53 1130.28C1704.39 1137.96 1709.57 1148.78 1710.08 1162.73H1664.2C1664.07 1158.89 1663.11 1156.14 1661.32 1154.47C1659.52 1152.81 1657.35 1151.98 1654.79 1151.98C1653 1151.98 1651.52 1152.62 1650.37 1153.9C1649.22 1155.05 1648.64 1156.71 1648.64 1158.89C1648.64 1161.96 1650.31 1164.52 1653.64 1166.57C1657.09 1168.49 1662.53 1170.86 1669.96 1173.67C1678.53 1176.87 1685.57 1179.94 1691.08 1182.89C1696.71 1185.83 1701.57 1189.93 1705.67 1195.18C1709.76 1200.42 1711.81 1207.02 1711.81 1214.95C1711.81 1223.27 1709.76 1230.76 1705.67 1237.42C1701.57 1243.94 1695.62 1249.06 1687.81 1252.78C1680 1256.49 1670.72 1258.34 1659.97 1258.34ZM1833.54 1121.06V1154.86H1797.44V1257H1754.82V1154.86H1719.11V1121.06H1833.54ZM1886.76 1121.06V1197.67C1886.76 1203.94 1888.11 1208.94 1890.8 1212.65C1893.61 1216.23 1898.09 1218.02 1904.24 1218.02C1910.38 1218.02 1914.92 1216.23 1917.87 1212.65C1920.81 1208.94 1922.28 1203.94 1922.28 1197.67V1121.06H1964.72V1197.67C1964.72 1210.6 1962.03 1221.67 1956.65 1230.89C1951.28 1239.98 1943.92 1246.82 1934.57 1251.43C1925.23 1256.04 1914.8 1258.34 1903.28 1258.34C1891.76 1258.34 1881.52 1256.04 1872.56 1251.43C1863.72 1246.82 1856.81 1239.98 1851.82 1230.89C1846.83 1221.8 1844.33 1210.73 1844.33 1197.67V1121.06H1886.76ZM2079.1 1121.06V1154.86H2025.72V1173.67H2064.12V1205.74H2025.72V1257H1983.1V1121.06H2079.1ZM2189.54 1121.06V1154.86H2136.16V1173.67H2174.56V1205.74H2136.16V1257H2093.54V1121.06H2189.54Z" fill="#D7385E"/>
<path d="M1405 1276.2H2194.34V1285.8H1405V1276.2Z" fill="#D7385E"/>
<path d="M1364 1455.72C1364 1455.72 1391.17 1418.72 1411.28 1413.27C1440.34 1405.4 1475.79 1436.3 1504.81 1444.78C1562.97 1461.79 1601.19 1416.99 1660 1416.48C1709.69 1416.05 1709.02 1445.36 1758.67 1441.57C1808.93 1437.74 1832.73 1414.53 1883.03 1413.27C1951.95 1411.55 1984.75 1460.1 2053.64 1455.72C2098.72 1452.85 2113.37 1411.99 2158.47 1413.27C2191.07 1414.2 2221.18 1434.82 2252 1455.72" stroke="#FF988B" stroke-width="40"/>
</svg>
