<svg width="5226" height="3135" viewBox="0 0 5226 3135" fill="none" xmlns="http://www.w3.org/2000/svg">
<rect width="5226" height="3135" transform="matrix(1 0 0 -1 0 3135)" fill="url(#paint0_radial_84_6)"/>
<path d="M1090.1 1370.7C1130.7 1370.7 1166.4 1379.33 1197.2 1396.6C1228 1413.87 1252.03 1438.83 1269.3 1471.5C1286.57 1504.17 1295.2 1543.83 1295.2 1590.5C1295.2 1637.17 1286.57 1677.07 1269.3 1710.2C1252.03 1742.87 1228 1767.83 1197.2 1785.1C1166.87 1802.37 1131.4 1811 1090.8 1811C1050.67 1811 1015.2 1802.37 984.4 1785.1C954.067 1767.83 930.267 1742.87 913 1710.2C895.733 1677.07 887.1 1637.17 887.1 1590.5C887.1 1543.83 895.5 1504.17 912.3 1471.5C929.567 1438.83 953.367 1413.87 983.7 1396.6C1014.5 1379.33 1049.97 1370.7 1090.1 1370.7ZM1090.8 1439.3C1051.6 1439.3 1021.73 1452.13 1001.2 1477.8C981.133 1503.47 971.1 1541.03 971.1 1590.5C971.1 1639.97 981.133 1677.77 1001.2 1703.9C1021.73 1729.57 1051.6 1742.4 1090.8 1742.4C1130 1742.4 1159.87 1729.57 1180.4 1703.9C1200.93 1677.77 1211.2 1639.97 1211.2 1590.5C1211.2 1541.03 1200.93 1503.47 1180.4 1477.8C1160.33 1452.13 1130.47 1439.3 1090.8 1439.3ZM1353.28 1797V1726.3H1412.78V1455.4H1353.28V1384.7H1537.38C1591.51 1384.7 1632.81 1394.27 1661.28 1413.4C1689.74 1432.53 1703.98 1459.83 1703.98 1495.3C1703.98 1515.83 1699.08 1534.03 1689.28 1549.9C1679.94 1565.3 1666.41 1577.67 1648.68 1587C1669.68 1593.07 1686.24 1604.5 1698.38 1621.3C1710.51 1637.63 1716.58 1658.4 1716.58 1683.6C1716.58 1719.07 1704.68 1746.83 1680.88 1766.9C1657.54 1786.97 1622.78 1797 1576.58 1797H1353.28ZM1493.98 1726.3H1563.98C1586.38 1726.3 1603.41 1721.87 1615.08 1713C1626.74 1704.13 1632.58 1690.83 1632.58 1673.1C1632.58 1656.3 1626.98 1643.7 1615.78 1635.3C1605.04 1626.43 1589.18 1622 1568.18 1622H1493.98V1726.3ZM1493.98 1559H1568.88C1585.68 1559 1598.28 1554.57 1606.68 1545.7C1615.08 1536.37 1619.28 1523.53 1619.28 1507.2C1619.28 1472.67 1594.54 1455.4 1545.08 1455.4H1493.98V1559ZM1936.92 1811C1902.39 1811 1872.52 1808.2 1847.32 1802.6C1822.59 1797.47 1801.12 1791.4 1782.92 1784.4L1770.32 1688.5L1836.12 1680.8L1843.82 1731.9C1857.35 1736.57 1871.35 1740.07 1885.82 1742.4C1900.29 1744.73 1915.45 1745.9 1931.32 1745.9C1949.05 1745.9 1965.39 1743.8 1980.32 1739.6C1995.25 1734.93 2007.15 1728.17 2016.02 1719.3C2024.89 1709.97 2029.32 1698.3 2029.32 1684.3C2029.32 1669.83 2024.65 1657.23 2015.32 1646.5C2006.45 1635.77 1987.55 1628.07 1958.62 1623.4L1908.22 1615C1866.22 1607.53 1834.02 1593.53 1811.62 1573C1789.22 1552.47 1778.02 1525.63 1778.02 1492.5C1778.02 1465.9 1785.25 1443.5 1799.72 1425.3C1814.19 1407.1 1833.79 1393.57 1858.52 1384.7C1883.25 1375.37 1911.02 1370.7 1941.82 1370.7C1957.22 1370.7 1972.39 1371.63 1987.32 1373.5C2002.25 1375.37 2016.72 1378.17 2030.72 1381.9C2044.72 1385.63 2058.72 1390.53 2072.72 1396.6L2086.02 1499.5L2015.32 1507.2L2006.22 1444.2C1996.89 1440.93 1986.39 1438.37 1974.72 1436.5C1963.52 1434.63 1951.62 1433.7 1939.02 1433.7C1911.49 1433.7 1889.79 1438.6 1873.92 1448.4C1858.52 1457.73 1850.82 1470.57 1850.82 1486.9C1850.82 1503.23 1856.42 1516.07 1867.62 1525.4C1879.29 1534.27 1898.19 1541.03 1924.32 1545.7L1976.82 1554.1C2022.09 1561.1 2054.29 1574.87 2073.42 1595.4C2092.55 1615.47 2102.12 1641.6 2102.12 1673.8C2102.12 1700.87 2096.99 1723.27 2086.72 1741C2076.92 1758.73 2063.85 1772.73 2047.52 1783C2031.19 1793.27 2013.22 1800.5 1993.62 1804.7C1974.02 1808.9 1955.12 1811 1936.92 1811ZM2127.61 1384.7H2500.71V1524.7H2428.61V1455.4H2355.11L2354.41 1726.3H2413.91V1797H2213.01V1726.3H2272.51L2273.21 1455.4H2199.71V1524.7H2127.61V1384.7ZM2481.32 1797V1726.3H2550.62L2656.32 1455.4H2597.52V1384.7H2756.42L2885.22 1726.3H2948.22V1797H2766.92V1726.3H2804.02L2782.32 1666.1H2643.02L2621.32 1726.3H2661.92V1797H2481.32ZM2663.32 1610.8H2763.42L2714.42 1464.5L2663.32 1610.8ZM3237.75 1451.2C3236.35 1450.27 3231.92 1448.87 3224.45 1447C3217.45 1445.13 3208.82 1443.27 3198.55 1441.4C3188.29 1439.53 3177.55 1438.6 3166.35 1438.6C3125.75 1438.6 3094.49 1451.67 3072.55 1477.8C3050.62 1503.93 3039.65 1541.27 3039.65 1589.8C3039.65 1638.8 3050.85 1676.6 3073.25 1703.2C3095.65 1729.8 3126.69 1743.1 3166.35 1743.1C3178.02 1743.1 3188.99 1741.7 3199.25 1738.9C3209.52 1736.1 3218.15 1733.53 3225.15 1731.2C3232.15 1728.4 3236.35 1726.77 3237.75 1726.3L3252.45 1665.4L3320.35 1680.8L3299.35 1780.2C3299.35 1780.2 3293.75 1782.77 3282.55 1787.9C3271.35 1793.03 3255.72 1798.17 3235.65 1803.3C3215.59 1808.43 3192.49 1811 3166.35 1811C3124.35 1811 3087.49 1803.07 3055.75 1787.2C3024.49 1770.87 2999.99 1746.37 2982.25 1713.7C2964.52 1680.57 2955.65 1639.27 2955.65 1589.8C2955.65 1544.07 2964.29 1504.87 2981.55 1472.2C2998.82 1439.53 3023.32 1414.57 3055.05 1397.3C3086.79 1379.57 3123.65 1370.7 3165.65 1370.7C3195.05 1370.7 3219.79 1373.73 3239.85 1379.8C3260.39 1385.4 3275.79 1391.23 3286.05 1397.3C3296.32 1403.37 3301.45 1406.4 3301.45 1406.4L3321.05 1505.1L3252.45 1520.5L3237.75 1451.2ZM3378.08 1384.7H3597.88V1455.4H3525.78L3525.08 1726.3H3636.38L3661.58 1656.3L3728.78 1679.4L3687.48 1797H3378.08V1726.3H3445.28V1455.4H3378.08V1384.7ZM3771.85 1384.7H4089.65L4130.95 1508.6L4064.45 1531L4037.85 1455.4H3912.55V1552H4031.55V1622H3912.55V1726.3H4055.35L4081.25 1656.3L4147.05 1679.4L4106.45 1797H3771.15V1726.3H3830.65L3831.35 1455.4H3771.85V1384.7ZM4366.41 1811C4331.88 1811 4302.01 1808.2 4276.81 1802.6C4252.08 1797.47 4230.61 1791.4 4212.41 1784.4L4199.81 1688.5L4265.61 1680.8L4273.31 1731.9C4286.85 1736.57 4300.85 1740.07 4315.31 1742.4C4329.78 1744.73 4344.95 1745.9 4360.81 1745.9C4378.55 1745.9 4394.88 1743.8 4409.81 1739.6C4424.75 1734.93 4436.65 1728.17 4445.51 1719.3C4454.38 1709.97 4458.81 1698.3 4458.81 1684.3C4458.81 1669.83 4454.15 1657.23 4444.81 1646.5C4435.95 1635.77 4417.05 1628.07 4388.11 1623.4L4337.71 1615C4295.71 1607.53 4263.51 1593.53 4241.11 1573C4218.71 1552.47 4207.51 1525.63 4207.51 1492.5C4207.51 1465.9 4214.75 1443.5 4229.21 1425.3C4243.68 1407.1 4263.28 1393.57 4288.01 1384.7C4312.75 1375.37 4340.51 1370.7 4371.31 1370.7C4386.71 1370.7 4401.88 1371.63 4416.81 1373.5C4431.75 1375.37 4446.21 1378.17 4460.21 1381.9C4474.21 1385.63 4488.21 1390.53 4502.21 1396.6L4515.51 1499.5L4444.81 1507.2L4435.71 1444.2C4426.38 1440.93 4415.88 1438.37 4404.21 1436.5C4393.01 1434.63 4381.11 1433.7 4368.51 1433.7C4340.98 1433.7 4319.28 1438.6 4303.41 1448.4C4288.01 1457.73 4280.31 1470.57 4280.31 1486.9C4280.31 1503.23 4285.91 1516.07 4297.11 1525.4C4308.78 1534.27 4327.68 1541.03 4353.81 1545.7L4406.31 1554.1C4451.58 1561.1 4483.78 1574.87 4502.91 1595.4C4522.05 1615.47 4531.61 1641.6 4531.61 1673.8C4531.61 1700.87 4526.48 1723.27 4516.21 1741C4506.41 1758.73 4493.35 1772.73 4477.01 1783C4460.68 1793.27 4442.71 1800.5 4423.11 1804.7C4403.51 1808.9 4384.61 1811 4366.41 1811Z" fill="#B42C4C"/>
<path d="M1269.3 1471.5L1271.95 1470.1L1269.3 1471.5ZM1269.3 1710.2L1271.95 1711.6L1271.96 1711.59L1271.96 1711.59L1269.3 1710.2ZM1197.2 1785.1L1195.73 1782.48L1195.72 1782.49L1195.72 1782.49L1197.2 1785.1ZM984.4 1785.1L982.916 1787.71L982.924 1787.71L982.933 1787.72L984.4 1785.1ZM913 1710.2L910.34 1711.59L910.344 1711.59L910.348 1711.6L913 1710.2ZM912.3 1471.5L909.648 1470.1L909.64 1470.11L909.632 1470.13L912.3 1471.5ZM983.7 1396.6L982.233 1393.98L982.224 1393.99L982.216 1393.99L983.7 1396.6ZM1001.2 1477.8L998.857 1475.93L998.847 1475.94L998.837 1475.95L1001.2 1477.8ZM1001.2 1703.9L998.821 1705.73L998.839 1705.75L998.857 1705.77L1001.2 1703.9ZM1180.4 1703.9L1182.74 1705.77L1182.75 1705.76L1182.76 1705.75L1180.4 1703.9ZM1180.4 1477.8L1178.04 1479.65L1178.05 1479.66L1178.06 1479.67L1180.4 1477.8ZM1090.1 1373.7C1130.26 1373.7 1165.44 1382.24 1195.73 1399.22L1198.67 1393.98C1167.36 1376.43 1131.14 1367.7 1090.1 1367.7V1373.7ZM1195.73 1399.22C1226.01 1416.19 1249.64 1440.72 1266.65 1472.9L1271.95 1470.1C1254.43 1436.95 1229.99 1411.55 1198.67 1393.98L1195.73 1399.22ZM1266.65 1472.9C1283.63 1505.04 1292.2 1544.2 1292.2 1590.5H1298.2C1298.2 1543.47 1289.5 1503.3 1271.95 1470.1L1266.65 1472.9ZM1292.2 1590.5C1292.2 1636.8 1283.63 1676.2 1266.64 1708.81L1271.96 1711.59C1289.5 1677.93 1298.2 1637.53 1298.2 1590.5H1292.2ZM1266.65 1708.8C1249.64 1740.98 1226.01 1765.51 1195.73 1782.48L1198.67 1787.72C1229.99 1770.15 1254.43 1744.75 1271.95 1711.6L1266.65 1708.8ZM1195.72 1782.49C1165.9 1799.46 1130.97 1808 1090.8 1808V1814C1131.83 1814 1167.83 1805.27 1198.68 1787.71L1195.72 1782.49ZM1090.8 1808C1051.11 1808 1016.16 1799.47 985.867 1782.48L982.933 1787.72C1014.24 1805.27 1050.22 1814 1090.8 1814V1808ZM985.884 1782.49C956.077 1765.53 932.669 1740.99 915.652 1708.8L910.348 1711.6C927.865 1744.74 952.057 1770.14 982.916 1787.71L985.884 1782.49ZM915.66 1708.81C898.666 1676.2 890.1 1636.8 890.1 1590.5H884.1C884.1 1637.53 892.801 1677.93 910.34 1711.59L915.66 1708.81ZM890.1 1590.5C890.1 1544.18 898.437 1505.02 914.968 1472.87L909.632 1470.13C892.563 1503.32 884.1 1543.48 884.1 1590.5H890.1ZM914.952 1472.9C931.969 1440.71 955.377 1416.17 985.184 1399.21L982.216 1393.99C951.357 1411.56 927.165 1436.96 909.648 1470.1L914.952 1472.9ZM985.167 1399.22C1015.46 1382.23 1050.41 1373.7 1090.1 1373.7V1367.7C1049.52 1367.7 1013.54 1376.43 982.233 1393.98L985.167 1399.22ZM1090.8 1436.3C1050.88 1436.3 1020.07 1449.41 998.857 1475.93L1003.54 1479.67C1023.39 1454.86 1052.32 1442.3 1090.8 1442.3V1436.3ZM998.837 1475.95C978.192 1502.36 968.1 1540.69 968.1 1590.5H974.1C974.1 1541.37 984.075 1504.58 1003.56 1479.65L998.837 1475.95ZM968.1 1590.5C968.1 1640.31 978.194 1678.86 998.821 1705.73L1003.58 1702.07C984.072 1676.67 974.1 1639.62 974.1 1590.5H968.1ZM998.857 1705.77C1020.07 1732.29 1050.88 1745.4 1090.8 1745.4V1739.4C1052.32 1739.4 1023.39 1726.84 1003.54 1702.03L998.857 1705.77ZM1090.8 1745.4C1130.72 1745.4 1161.53 1732.29 1182.74 1705.77L1178.06 1702.03C1158.21 1726.84 1129.28 1739.4 1090.8 1739.4V1745.4ZM1182.76 1705.75C1203.87 1678.89 1214.2 1640.32 1214.2 1590.5H1208.2C1208.2 1639.61 1198 1676.65 1178.04 1702.05L1182.76 1705.75ZM1214.2 1590.5C1214.2 1540.68 1203.87 1502.33 1182.74 1475.93L1178.06 1479.67C1198 1504.6 1208.2 1541.39 1208.2 1590.5H1214.2ZM1182.76 1475.95C1162 1449.4 1131.17 1436.3 1090.8 1436.3V1442.3C1129.77 1442.3 1158.66 1454.87 1178.04 1479.65L1182.76 1475.95ZM1353.28 1797H1350.28V1800H1353.28V1797ZM1353.28 1726.3V1723.3H1350.28V1726.3H1353.28ZM1412.78 1726.3V1729.3H1415.78V1726.3H1412.78ZM1412.78 1455.4H1415.78V1452.4H1412.78V1455.4ZM1353.28 1455.4H1350.28V1458.4H1353.28V1455.4ZM1353.28 1384.7V1381.7H1350.28V1384.7H1353.28ZM1661.28 1413.4L1662.95 1410.91L1661.28 1413.4ZM1689.28 1549.9L1686.73 1548.32L1686.72 1548.33L1686.71 1548.35L1689.28 1549.9ZM1648.68 1587L1647.28 1584.35L1640.69 1587.81L1647.85 1589.88L1648.68 1587ZM1698.38 1621.3L1695.95 1623.06L1695.96 1623.07L1695.97 1623.09L1698.38 1621.3ZM1680.88 1766.9L1678.94 1764.61L1678.93 1764.62L1678.92 1764.63L1680.88 1766.9ZM1493.98 1726.3H1490.98V1729.3H1493.98V1726.3ZM1615.08 1713L1616.89 1715.39L1615.08 1713ZM1615.78 1635.3L1613.87 1637.61L1613.92 1637.66L1613.98 1637.7L1615.78 1635.3ZM1493.98 1622V1619H1490.98V1622H1493.98ZM1493.98 1559H1490.98V1562H1493.98V1559ZM1606.68 1545.7L1608.86 1547.76L1608.88 1547.74L1608.91 1547.71L1606.68 1545.7ZM1493.98 1455.4V1452.4H1490.98V1455.4H1493.98ZM1356.28 1797V1726.3H1350.28V1797H1356.28ZM1353.28 1729.3H1412.78V1723.3H1353.28V1729.3ZM1415.78 1726.3V1455.4H1409.78V1726.3H1415.78ZM1412.78 1452.4H1353.28V1458.4H1412.78V1452.4ZM1356.28 1455.4V1384.7H1350.28V1455.4H1356.28ZM1353.28 1387.7H1537.38V1381.7H1353.28V1387.7ZM1537.38 1387.7C1591.23 1387.7 1631.84 1397.23 1659.6 1415.89L1662.95 1410.91C1633.78 1391.3 1591.79 1381.7 1537.38 1381.7V1387.7ZM1659.6 1415.89C1687.21 1434.44 1700.98 1460.79 1700.98 1495.3H1706.98C1706.98 1458.88 1692.28 1430.62 1662.95 1410.91L1659.6 1415.89ZM1700.98 1495.3C1700.98 1515.33 1696.2 1532.98 1686.73 1548.32L1691.83 1551.48C1701.95 1535.09 1706.98 1516.33 1706.98 1495.3H1700.98ZM1686.71 1548.35C1677.69 1563.23 1664.59 1575.24 1647.28 1584.35L1650.08 1589.65C1668.23 1580.1 1682.2 1567.37 1691.84 1551.45L1686.71 1548.35ZM1647.85 1589.88C1668.24 1595.77 1684.23 1606.83 1695.95 1623.06L1700.81 1619.54C1688.26 1602.17 1671.12 1590.36 1649.51 1584.12L1647.85 1589.88ZM1695.97 1623.09C1707.64 1638.79 1713.58 1658.89 1713.58 1683.6H1719.58C1719.58 1657.91 1713.39 1636.47 1700.79 1619.51L1695.97 1623.09ZM1713.58 1683.6C1713.58 1718.32 1701.97 1745.19 1678.94 1764.61L1682.81 1769.19C1707.39 1748.47 1719.58 1719.81 1719.58 1683.6H1713.58ZM1678.92 1764.63C1656.35 1784.04 1622.41 1794 1576.58 1794V1800C1623.15 1800 1658.74 1789.89 1682.83 1769.17L1678.92 1764.63ZM1576.58 1794H1353.28V1800H1576.58V1794ZM1493.98 1729.3H1563.98V1723.3H1493.98V1729.3ZM1563.98 1729.3C1586.71 1729.3 1604.49 1724.81 1616.89 1715.39L1613.26 1710.61C1602.33 1718.92 1586.05 1723.3 1563.98 1723.3V1729.3ZM1616.89 1715.39C1629.47 1705.83 1635.58 1691.55 1635.58 1673.1H1629.58C1629.58 1690.12 1624.02 1702.43 1613.26 1710.61L1616.89 1715.39ZM1635.58 1673.1C1635.58 1655.57 1629.69 1641.98 1617.58 1632.9L1613.98 1637.7C1624.27 1645.42 1629.58 1657.03 1629.58 1673.1H1635.58ZM1617.69 1632.99C1606.2 1623.5 1589.54 1619 1568.18 1619V1625C1588.82 1625 1603.89 1629.37 1613.87 1637.61L1617.69 1632.99ZM1568.18 1619H1493.98V1625H1568.18V1619ZM1490.98 1622V1726.3H1496.98V1622H1490.98ZM1493.98 1562H1568.88V1556H1493.98V1562ZM1568.88 1562C1586.18 1562 1599.7 1557.43 1608.86 1547.76L1604.5 1543.64C1596.85 1551.71 1585.17 1556 1568.88 1556V1562ZM1608.91 1547.71C1617.94 1537.67 1622.28 1524.05 1622.28 1507.2H1616.28C1616.28 1523.02 1612.22 1535.06 1604.45 1543.69L1608.91 1547.71ZM1622.28 1507.2C1622.28 1489.12 1615.74 1475.17 1602.45 1465.89C1589.35 1456.74 1570.07 1452.4 1545.08 1452.4V1458.4C1569.55 1458.4 1587.38 1462.69 1599.01 1470.81C1610.45 1478.79 1616.28 1490.75 1616.28 1507.2H1622.28ZM1545.08 1452.4H1493.98V1458.4H1545.08V1452.4ZM1490.98 1455.4V1559H1496.98V1455.4H1490.98ZM1847.32 1802.6L1847.97 1799.67L1847.95 1799.67L1847.93 1799.66L1847.32 1802.6ZM1782.92 1784.4L1779.95 1784.79L1780.18 1786.56L1781.84 1787.2L1782.92 1784.4ZM1770.32 1688.5L1769.97 1685.52L1766.95 1685.87L1767.35 1688.89L1770.32 1688.5ZM1836.12 1680.8L1839.09 1680.35L1838.65 1677.48L1835.77 1677.82L1836.12 1680.8ZM1843.82 1731.9L1840.85 1732.35L1841.12 1734.14L1842.84 1734.74L1843.82 1731.9ZM1885.82 1742.4L1885.34 1745.36L1885.82 1742.4ZM1980.32 1739.6L1981.13 1742.49L1981.17 1742.48L1981.21 1742.46L1980.32 1739.6ZM2016.02 1719.3L2018.14 1721.42L2018.17 1721.39L2018.19 1721.37L2016.02 1719.3ZM2015.32 1646.5L2013.01 1648.41L2013.03 1648.44L2013.06 1648.47L2015.32 1646.5ZM1958.62 1623.4L1958.13 1626.36L1958.13 1626.36L1958.14 1626.36L1958.62 1623.4ZM1908.22 1615L1907.69 1617.95L1907.71 1617.96L1907.73 1617.96L1908.22 1615ZM1811.62 1573L1813.65 1570.79L1811.62 1573ZM1799.72 1425.3L1802.07 1427.17L1799.72 1425.3ZM1858.52 1384.7L1859.53 1387.52L1859.56 1387.52L1859.58 1387.51L1858.52 1384.7ZM1987.32 1373.5L1986.95 1376.48L1987.32 1373.5ZM2030.72 1381.9L2031.49 1379L2030.72 1381.9ZM2072.72 1396.6L2075.69 1396.22L2075.48 1394.53L2073.91 1393.85L2072.72 1396.6ZM2086.02 1499.5L2086.34 1502.48L2089.39 1502.15L2088.99 1499.12L2086.02 1499.5ZM2015.32 1507.2L2012.35 1507.63L2012.76 1510.5L2015.64 1510.18L2015.32 1507.2ZM2006.22 1444.2L2009.19 1443.77L2008.93 1441.97L2007.21 1441.37L2006.22 1444.2ZM1974.72 1436.5L1974.23 1439.46L1974.24 1439.46L1974.25 1439.46L1974.72 1436.5ZM1873.92 1448.4L1875.47 1450.97L1875.49 1450.96L1875.5 1450.95L1873.92 1448.4ZM1867.62 1525.4L1865.7 1527.7L1865.75 1527.75L1865.8 1527.79L1867.62 1525.4ZM1924.32 1545.7L1923.79 1548.65L1923.82 1548.66L1923.85 1548.66L1924.32 1545.7ZM1976.82 1554.1L1976.35 1557.06L1976.35 1557.06L1976.36 1557.06L1976.82 1554.1ZM2073.42 1595.4L2071.22 1597.45L2071.24 1597.46L2071.25 1597.47L2073.42 1595.4ZM2086.72 1741L2084.12 1739.5L2084.11 1739.52L2084.09 1739.55L2086.72 1741ZM2047.52 1783L2049.12 1785.54L2047.52 1783ZM1993.62 1804.7L1992.99 1801.77L1993.62 1804.7ZM1936.92 1808C1902.54 1808 1872.9 1805.21 1847.97 1799.67L1846.67 1805.53C1872.14 1811.19 1902.24 1814 1936.92 1814V1808ZM1847.93 1799.66C1823.31 1794.55 1802.01 1788.53 1784 1781.6L1781.84 1787.2C1800.23 1794.27 1821.86 1800.38 1846.71 1805.54L1847.93 1799.66ZM1785.89 1784.01L1773.29 1688.11L1767.35 1688.89L1779.95 1784.79L1785.89 1784.01ZM1770.67 1691.48L1836.47 1683.78L1835.77 1677.82L1769.97 1685.52L1770.67 1691.48ZM1833.15 1681.25L1840.85 1732.35L1846.79 1731.45L1839.09 1680.35L1833.15 1681.25ZM1842.84 1734.74C1856.54 1739.46 1870.71 1743 1885.34 1745.36L1886.3 1739.44C1872 1737.13 1858.16 1733.67 1844.8 1729.06L1842.84 1734.74ZM1885.34 1745.36C1899.98 1747.72 1915.31 1748.9 1931.32 1748.9V1742.9C1915.6 1742.9 1900.59 1741.74 1886.3 1739.44L1885.34 1745.36ZM1931.32 1748.9C1949.29 1748.9 1965.9 1746.77 1981.13 1742.49L1979.51 1736.71C1964.87 1740.83 1948.82 1742.9 1931.32 1742.9V1748.9ZM1981.21 1742.46C1996.5 1737.69 2008.86 1730.71 2018.14 1721.42L2013.9 1717.18C2005.45 1725.63 1994.01 1732.18 1979.42 1736.74L1981.21 1742.46ZM2018.19 1721.37C2027.64 1711.42 2032.32 1699 2032.32 1684.3H2026.32C2026.32 1697.6 2022.13 1708.51 2013.84 1717.23L2018.19 1721.37ZM2032.32 1684.3C2032.32 1669.12 2027.4 1655.82 2017.58 1644.53L2013.06 1648.47C2021.91 1658.65 2026.32 1670.54 2026.32 1684.3H2032.32ZM2017.63 1644.59C2012.77 1638.7 2005.34 1633.85 1995.63 1629.9C1985.9 1625.93 1973.7 1622.79 1959.1 1620.44L1958.14 1626.36C1972.47 1628.67 1984.19 1631.72 1993.36 1635.45C2002.55 1639.2 2009 1643.56 2013.01 1648.41L2017.63 1644.59ZM1959.11 1620.44L1908.71 1612.04L1907.73 1617.96L1958.13 1626.36L1959.11 1620.44ZM1908.74 1612.05C1867.09 1604.64 1835.49 1590.81 1813.65 1570.79L1809.59 1575.21C1832.55 1596.26 1865.35 1610.43 1907.69 1617.95L1908.74 1612.05ZM1813.65 1570.79C1791.93 1550.88 1781.02 1524.88 1781.02 1492.5H1775.02C1775.02 1526.39 1786.51 1554.05 1809.59 1575.21L1813.65 1570.79ZM1781.02 1492.5C1781.02 1466.48 1788.08 1444.76 1802.07 1427.17L1797.37 1423.43C1782.42 1442.24 1775.02 1465.32 1775.02 1492.5H1781.02ZM1802.07 1427.17C1816.14 1409.46 1835.25 1396.23 1859.53 1387.52L1857.51 1381.88C1832.32 1390.91 1812.23 1404.74 1797.37 1423.43L1802.07 1427.17ZM1859.58 1387.51C1883.92 1378.32 1911.32 1373.7 1941.82 1373.7V1367.7C1910.72 1367.7 1882.58 1372.41 1857.46 1381.89L1859.58 1387.51ZM1941.82 1373.7C1957.1 1373.7 1972.14 1374.63 1986.95 1376.48L1987.69 1370.52C1972.63 1368.64 1957.34 1367.7 1941.82 1367.7V1373.7ZM1986.95 1376.48C2001.75 1378.33 2016.08 1381.1 2029.95 1384.8L2031.49 1379C2017.36 1375.23 2002.76 1372.41 1987.69 1370.52L1986.95 1376.48ZM2029.95 1384.8C2043.8 1388.49 2057.66 1393.34 2071.53 1399.35L2073.91 1393.85C2059.78 1387.72 2045.64 1382.77 2031.49 1379L2029.95 1384.8ZM2069.74 1396.98L2083.04 1499.88L2088.99 1499.12L2075.69 1396.22L2069.74 1396.98ZM2085.69 1496.52L2014.99 1504.22L2015.64 1510.18L2086.34 1502.48L2085.69 1496.52ZM2018.29 1506.77L2009.19 1443.77L2003.25 1444.63L2012.35 1507.63L2018.29 1506.77ZM2007.21 1441.37C1997.68 1438.03 1987 1435.43 1975.19 1433.54L1974.25 1439.46C1985.77 1441.31 1996.09 1443.83 2005.23 1447.03L2007.21 1441.37ZM1975.21 1433.54C1963.83 1431.64 1951.77 1430.7 1939.02 1430.7V1436.7C1951.47 1436.7 1963.21 1437.62 1974.23 1439.46L1975.21 1433.54ZM1939.02 1430.7C1911.18 1430.7 1888.86 1435.65 1872.34 1445.85L1875.5 1450.95C1890.71 1441.55 1911.79 1436.7 1939.02 1436.7V1430.7ZM1872.36 1445.83C1856.18 1455.64 1847.82 1469.39 1847.82 1486.9H1853.82C1853.82 1471.74 1860.86 1459.82 1875.47 1450.97L1872.36 1445.83ZM1847.82 1486.9C1847.82 1504 1853.73 1517.73 1865.7 1527.7L1869.54 1523.1C1859.11 1514.4 1853.82 1502.46 1853.82 1486.9H1847.82ZM1865.8 1527.79C1878.04 1537.09 1897.51 1543.96 1923.79 1548.65L1924.85 1542.75C1898.86 1538.11 1880.53 1531.44 1869.43 1523.01L1865.8 1527.79ZM1923.85 1548.66L1976.35 1557.06L1977.29 1551.14L1924.79 1542.74L1923.85 1548.66ZM1976.36 1557.06C2021.35 1564.02 2052.76 1577.63 2071.22 1597.45L2075.61 1593.35C2055.81 1572.1 2022.82 1558.18 1977.28 1551.14L1976.36 1557.06ZM2071.25 1597.47C2089.76 1616.89 2099.12 1642.24 2099.12 1673.8H2105.12C2105.12 1640.96 2095.34 1614.04 2075.59 1593.33L2071.25 1597.47ZM2099.12 1673.8C2099.12 1700.5 2094.05 1722.34 2084.12 1739.5L2089.32 1742.5C2099.92 1724.19 2105.12 1701.23 2105.12 1673.8H2099.12ZM2084.09 1739.55C2074.53 1756.86 2061.8 1770.48 2045.92 1780.46L2049.12 1785.54C2065.9 1774.99 2079.31 1760.61 2089.35 1742.45L2084.09 1739.55ZM2045.92 1780.46C2029.9 1790.53 2012.26 1797.64 1992.99 1801.77L1994.25 1807.63C2014.18 1803.36 2032.47 1796 2049.12 1785.54L2045.92 1780.46ZM1992.99 1801.77C1973.58 1805.93 1954.89 1808 1936.92 1808V1814C1955.35 1814 1974.46 1811.87 1994.25 1807.63L1992.99 1801.77ZM2127.61 1384.7V1381.7H2124.61V1384.7H2127.61ZM2500.71 1384.7H2503.71V1381.7H2500.71V1384.7ZM2500.71 1524.7V1527.7H2503.71V1524.7H2500.71ZM2428.61 1524.7H2425.61V1527.7H2428.61V1524.7ZM2428.61 1455.4H2431.61V1452.4H2428.61V1455.4ZM2355.11 1455.4V1452.4H2352.12L2352.11 1455.39L2355.11 1455.4ZM2354.41 1726.3L2351.41 1726.29L2351.4 1729.3H2354.41V1726.3ZM2413.91 1726.3H2416.91V1723.3H2413.91V1726.3ZM2413.91 1797V1800H2416.91V1797H2413.91ZM2213.01 1797H2210.01V1800H2213.01V1797ZM2213.01 1726.3V1723.3H2210.01V1726.3H2213.01ZM2272.51 1726.3V1729.3H2275.5L2275.51 1726.31L2272.51 1726.3ZM2273.21 1455.4L2276.21 1455.41L2276.22 1452.4H2273.21V1455.4ZM2199.71 1455.4V1452.4H2196.71V1455.4H2199.71ZM2199.71 1524.7V1527.7H2202.71V1524.7H2199.71ZM2127.61 1524.7H2124.61V1527.7H2127.61V1524.7ZM2127.61 1387.7H2500.71V1381.7H2127.61V1387.7ZM2497.71 1384.7V1524.7H2503.71V1384.7H2497.71ZM2500.71 1521.7H2428.61V1527.7H2500.71V1521.7ZM2431.61 1524.7V1455.4H2425.61V1524.7H2431.61ZM2428.61 1452.4H2355.11V1458.4H2428.61V1452.4ZM2352.11 1455.39L2351.41 1726.29L2357.41 1726.31L2358.11 1455.41L2352.11 1455.39ZM2354.41 1729.3H2413.91V1723.3H2354.41V1729.3ZM2410.91 1726.3V1797H2416.91V1726.3H2410.91ZM2413.91 1794H2213.01V1800H2413.91V1794ZM2216.01 1797V1726.3H2210.01V1797H2216.01ZM2213.01 1729.3H2272.51V1723.3H2213.01V1729.3ZM2275.51 1726.31L2276.21 1455.41L2270.21 1455.39L2269.51 1726.29L2275.51 1726.31ZM2273.21 1452.4H2199.71V1458.4H2273.21V1452.4ZM2196.71 1455.4V1524.7H2202.71V1455.4H2196.71ZM2199.71 1521.7H2127.61V1527.7H2199.71V1521.7ZM2130.61 1524.7V1384.7H2124.61V1524.7H2130.61ZM2481.32 1797H2478.32V1800H2481.32V1797ZM2481.32 1726.3V1723.3H2478.32V1726.3H2481.32ZM2550.62 1726.3V1729.3H2552.67L2553.41 1727.39L2550.62 1726.3ZM2656.32 1455.4L2659.11 1456.49L2660.71 1452.4H2656.32V1455.4ZM2597.52 1455.4H2594.52V1458.4H2597.52V1455.4ZM2597.52 1384.7V1381.7H2594.52V1384.7H2597.52ZM2756.42 1384.7L2759.22 1383.64L2758.49 1381.7H2756.42V1384.7ZM2885.22 1726.3L2882.41 1727.36L2883.14 1729.3H2885.22V1726.3ZM2948.22 1726.3H2951.22V1723.3H2948.22V1726.3ZM2948.22 1797V1800H2951.22V1797H2948.22ZM2766.92 1797H2763.92V1800H2766.92V1797ZM2766.92 1726.3V1723.3H2763.92V1726.3H2766.92ZM2804.02 1726.3V1729.3H2808.29L2806.84 1725.28L2804.02 1726.3ZM2782.32 1666.1L2785.14 1665.08L2784.42 1663.1H2782.32V1666.1ZM2643.02 1666.1V1663.1H2640.91L2640.19 1665.08L2643.02 1666.1ZM2621.32 1726.3L2618.49 1725.28L2617.05 1729.3H2621.32V1726.3ZM2661.92 1726.3H2664.92V1723.3H2661.92V1726.3ZM2661.92 1797V1800H2664.92V1797H2661.92ZM2663.32 1610.8L2660.48 1609.81L2659.09 1613.8H2663.32V1610.8ZM2763.42 1610.8V1613.8H2767.59L2766.26 1609.85L2763.42 1610.8ZM2714.42 1464.5L2717.26 1463.55L2714.48 1455.23L2711.58 1463.51L2714.42 1464.5ZM2484.32 1797V1726.3H2478.32V1797H2484.32ZM2481.32 1729.3H2550.62V1723.3H2481.32V1729.3ZM2553.41 1727.39L2659.11 1456.49L2653.52 1454.31L2547.82 1725.21L2553.41 1727.39ZM2656.32 1452.4H2597.52V1458.4H2656.32V1452.4ZM2600.52 1455.4V1384.7H2594.52V1455.4H2600.52ZM2597.52 1387.7H2756.42V1381.7H2597.52V1387.7ZM2753.61 1385.76L2882.41 1727.36L2888.02 1725.24L2759.22 1383.64L2753.61 1385.76ZM2885.22 1729.3H2948.22V1723.3H2885.22V1729.3ZM2945.22 1726.3V1797H2951.22V1726.3H2945.22ZM2948.22 1794H2766.92V1800H2948.22V1794ZM2769.92 1797V1726.3H2763.92V1797H2769.92ZM2766.92 1729.3H2804.02V1723.3H2766.92V1729.3ZM2806.84 1725.28L2785.14 1665.08L2779.49 1667.12L2801.19 1727.32L2806.84 1725.28ZM2782.32 1663.1H2643.02V1669.1H2782.32V1663.1ZM2640.19 1665.08L2618.49 1725.28L2624.14 1727.32L2645.84 1667.12L2640.19 1665.08ZM2621.32 1729.3H2661.92V1723.3H2621.32V1729.3ZM2658.92 1726.3V1797H2664.92V1726.3H2658.92ZM2661.92 1794H2481.32V1800H2661.92V1794ZM2663.32 1613.8H2763.42V1607.8H2663.32V1613.8ZM2766.26 1609.85L2717.26 1463.55L2711.57 1465.45L2760.57 1611.75L2766.26 1609.85ZM2711.58 1463.51L2660.48 1609.81L2666.15 1611.79L2717.25 1465.49L2711.58 1463.51ZM3237.75 1451.2L3240.69 1450.58L3240.44 1449.38L3239.42 1448.7L3237.75 1451.2ZM3224.45 1447L3223.68 1449.9L3223.7 1449.9L3223.73 1449.91L3224.45 1447ZM3198.55 1441.4L3198.02 1444.35L3198.55 1441.4ZM3072.55 1477.8L3070.26 1475.87L3072.55 1477.8ZM3073.25 1703.2L3075.55 1701.27L3073.25 1703.2ZM3199.25 1738.9L3200.04 1741.79L3199.25 1738.9ZM3225.15 1731.2L3226.1 1734.05L3226.19 1734.02L3226.27 1733.99L3225.15 1731.2ZM3237.75 1726.3L3238.7 1729.15L3240.28 1728.62L3240.67 1727L3237.75 1726.3ZM3252.45 1665.4L3253.12 1662.47L3250.23 1661.82L3249.54 1664.7L3252.45 1665.4ZM3320.35 1680.8L3323.29 1681.42L3323.9 1678.53L3321.02 1677.87L3320.35 1680.8ZM3299.35 1780.2L3300.6 1782.93L3301.98 1782.3L3302.29 1780.82L3299.35 1780.2ZM3282.55 1787.9L3283.8 1790.63L3282.55 1787.9ZM3235.65 1803.3L3234.91 1800.39L3235.65 1803.3ZM3055.75 1787.2L3054.37 1789.86L3054.39 1789.87L3054.41 1789.88L3055.75 1787.2ZM2982.25 1713.7L2979.61 1715.12L2979.61 1715.12L2979.62 1715.13L2982.25 1713.7ZM2981.55 1472.2L2984.21 1473.6L2981.55 1472.2ZM3055.05 1397.3L3056.49 1399.94L3056.5 1399.93L3056.52 1399.92L3055.05 1397.3ZM3239.85 1379.8L3238.99 1382.67L3239.03 1382.68L3239.07 1382.69L3239.85 1379.8ZM3286.05 1397.3L3287.58 1394.72L3286.05 1397.3ZM3301.45 1406.4L3304.4 1405.82L3304.14 1404.5L3302.98 1403.82L3301.45 1406.4ZM3321.05 1505.1L3321.71 1508.03L3324.57 1507.39L3324 1504.52L3321.05 1505.1ZM3252.45 1520.5L3249.52 1521.12L3250.15 1524.09L3253.11 1523.43L3252.45 1520.5ZM3239.42 1448.7C3238.31 1447.97 3236.45 1447.27 3234.28 1446.59C3231.98 1445.86 3228.94 1445.03 3225.18 1444.09L3223.73 1449.91C3227.43 1450.84 3230.34 1451.64 3232.48 1452.31C3234.74 1453.03 3235.8 1453.5 3236.09 1453.7L3239.42 1448.7ZM3225.23 1444.1C3218.12 1442.21 3209.41 1440.32 3199.09 1438.45L3198.02 1444.35C3208.24 1446.21 3216.79 1448.06 3223.68 1449.9L3225.23 1444.1ZM3199.09 1438.45C3188.64 1436.55 3177.72 1435.6 3166.35 1435.6V1441.6C3177.39 1441.6 3187.94 1442.52 3198.02 1444.35L3199.09 1438.45ZM3166.35 1435.6C3125.05 1435.6 3092.87 1448.93 3070.26 1475.87L3074.85 1479.73C3096.11 1454.41 3126.46 1441.6 3166.35 1441.6V1435.6ZM3070.26 1475.87C3047.71 1502.73 3036.65 1540.85 3036.65 1589.8H3042.65C3042.65 1541.68 3053.53 1505.13 3074.85 1479.73L3070.26 1475.87ZM3036.65 1589.8C3036.65 1639.22 3047.95 1677.81 3070.96 1705.13L3075.55 1701.27C3053.76 1675.39 3042.65 1638.38 3042.65 1589.8H3036.65ZM3070.96 1705.13C3094.01 1732.51 3125.94 1746.1 3166.35 1746.1V1740.1C3127.43 1740.1 3097.3 1727.09 3075.55 1701.27L3070.96 1705.13ZM3166.35 1746.1C3178.26 1746.1 3189.5 1744.67 3200.04 1741.79L3198.47 1736.01C3188.48 1738.73 3177.78 1740.1 3166.35 1740.1V1746.1ZM3200.04 1741.79C3210.34 1738.99 3219.03 1736.4 3226.1 1734.05L3224.21 1728.35C3217.28 1730.66 3208.7 1733.21 3198.47 1736.01L3200.04 1741.79ZM3226.27 1733.99C3233.31 1731.17 3237.41 1729.58 3238.7 1729.15L3236.81 1723.45C3235.3 1723.96 3231 1725.63 3224.04 1728.41L3226.27 1733.99ZM3240.67 1727L3255.37 1666.1L3249.54 1664.7L3234.84 1725.6L3240.67 1727ZM3251.79 1668.33L3319.69 1683.73L3321.02 1677.87L3253.12 1662.47L3251.79 1668.33ZM3317.42 1680.18L3296.42 1779.58L3302.29 1780.82L3323.29 1681.42L3317.42 1680.18ZM3299.35 1780.2C3298.1 1777.47 3298.1 1777.47 3298.1 1777.47L3298.1 1777.47C3298.1 1777.47 3298.1 1777.47 3298.1 1777.47C3298.1 1777.47 3298.1 1777.47 3298.1 1777.47C3298.1 1777.48 3298.1 1777.48 3298.1 1777.48C3298.09 1777.48 3298.09 1777.48 3298.09 1777.48C3298.08 1777.49 3298.06 1777.49 3298.04 1777.5C3298.03 1777.51 3297.89 1777.57 3297.84 1777.59C3297.78 1777.62 3297.29 1777.85 3297.05 1777.95C3296.76 1778.09 3296.8 1778.07 3296.46 1778.22C3296.29 1778.3 3295.96 1778.46 3295.74 1778.56C3295.73 1778.56 3295.73 1778.56 3295.72 1778.57C3295.71 1778.57 3295.7 1778.57 3295.69 1778.58C3295.66 1778.59 3295.67 1778.59 3295.64 1778.6C3295.58 1778.63 3295.6 1778.62 3295.54 1778.65C3295.41 1778.71 3295.46 1778.68 3295.33 1778.74C3295.33 1778.74 3295.28 1778.77 3295.28 1778.77C3295.27 1778.77 3295.23 1778.79 3295.22 1778.79C3295.17 1778.82 3295.17 1778.82 3295.11 1778.84C3295.11 1778.85 3295.1 1778.85 3295.09 1778.86C3295.08 1778.86 3295.07 1778.86 3295.06 1778.87C3295.05 1778.87 3295.04 1778.88 3295.03 1778.88C3295.02 1778.89 3295.01 1778.89 3295 1778.89C3294.93 1778.93 3294.96 1778.91 3294.89 1778.95C3294.84 1778.97 3294.48 1779.14 3294.41 1779.16C3294.28 1779.22 3294.3 1779.22 3294.16 1779.28C3294.16 1779.28 3294.04 1779.34 3294.03 1779.34C3294.01 1779.35 3293.99 1779.36 3293.97 1779.37C3293.96 1779.37 3293.91 1779.39 3293.9 1779.4C3293.7 1779.49 3293.85 1779.42 3293.64 1779.52C3293.62 1779.53 3293.59 1779.54 3293.57 1779.55C3293.56 1779.56 3293.55 1779.56 3293.54 1779.57C3293.52 1779.57 3293.51 1779.58 3293.5 1779.58C3293.5 1779.58 3293.43 1779.61 3293.43 1779.61C3293.41 1779.62 3293.39 1779.64 3293.36 1779.65C3293.04 1779.8 3293.13 1779.75 3292.79 1779.91C3292.75 1779.93 3292.68 1779.96 3292.64 1779.98C3292.52 1780.03 3292.61 1779.99 3292.49 1780.05C3292.48 1780.05 3292.34 1780.11 3292.34 1780.12C3292.28 1780.14 3292.24 1780.16 3292.18 1780.19C3291.85 1780.34 3291.88 1780.33 3291.54 1780.48C3291.24 1780.62 3291.18 1780.65 3290.87 1780.79C3290.86 1780.8 3290.84 1780.8 3290.83 1780.81C3290.81 1780.82 3290.8 1780.82 3290.78 1780.83C3290.77 1780.84 3290.75 1780.84 3290.74 1780.85C3290.73 1780.86 3290.71 1780.86 3290.7 1780.87C3290.59 1780.92 3290.63 1780.9 3290.52 1780.95C3290.34 1781.03 3290.35 1781.03 3290.16 1781.11C3290.04 1781.17 3290.1 1781.14 3289.98 1781.2C3289.92 1781.22 3289.95 1781.21 3289.89 1781.24C3289.88 1781.24 3289.86 1781.25 3289.85 1781.26C3289.83 1781.27 3289.81 1781.27 3289.8 1781.28C3289.61 1781.37 3289.62 1781.36 3289.43 1781.45C3289.15 1781.58 3289.32 1781.5 3289.04 1781.63C3289.04 1781.63 3288.95 1781.67 3288.95 1781.67C3288.93 1781.68 3288.92 1781.68 3288.9 1781.69C3288.88 1781.7 3288.87 1781.71 3288.85 1781.71C3288.83 1781.72 3288.82 1781.73 3288.8 1781.74C3288.79 1781.74 3288.77 1781.75 3288.75 1781.76C3288.71 1781.78 3288.69 1781.79 3288.65 1781.8C3288.61 1781.82 3288.3 1781.97 3288.26 1781.99C3287.97 1782.12 3288.14 1782.04 3287.85 1782.17C3287.71 1782.24 3287.78 1782.2 3287.64 1782.27C3287.63 1782.27 3287.61 1782.28 3287.59 1782.29C3287.58 1782.3 3287.56 1782.31 3287.54 1782.31C3287.52 1782.32 3287.51 1782.33 3287.49 1782.34C3287.47 1782.35 3287.45 1782.35 3287.44 1782.36C3287.17 1782.49 3287.28 1782.43 3287.01 1782.56C3287 1782.56 3286.98 1782.57 3286.96 1782.58C3286.94 1782.59 3286.93 1782.6 3286.91 1782.6C3286.89 1782.61 3286.87 1782.62 3286.85 1782.63C3286.84 1782.64 3286.82 1782.65 3286.8 1782.65C3286.74 1782.68 3286.64 1782.73 3286.58 1782.75C3286.46 1782.81 3286.27 1782.9 3286.14 1782.95C3286.04 1783 3285.81 1783.11 3285.7 1783.16C3285.66 1783.18 3285.51 1783.24 3285.47 1783.26C3285.37 1783.31 3285.34 1783.32 3285.24 1783.37C3285.22 1783.38 3285.2 1783.39 3285.18 1783.39C3285.17 1783.4 3285.15 1783.41 3285.13 1783.42C3285.05 1783.46 3285.09 1783.44 3285.01 1783.47C3284.92 1783.51 3284.87 1783.54 3284.78 1783.58C3284.76 1783.59 3284.33 1783.79 3284.31 1783.8C3284.29 1783.81 3284.27 1783.81 3284.25 1783.82C3284.23 1783.83 3284.21 1783.84 3284.19 1783.85C3284.17 1783.86 3284.15 1783.87 3284.13 1783.88C3284.11 1783.89 3284.09 1783.9 3284.07 1783.91C3284.06 1783.91 3283.95 1783.96 3283.95 1783.96C3283.93 1783.97 3283.91 1783.98 3283.89 1783.99C3283.87 1784 3283.85 1784.01 3283.83 1784.02C3283.83 1784.02 3283.34 1784.24 3283.34 1784.24C3283.31 1784.26 3283.25 1784.28 3283.22 1784.3C3283.2 1784.31 3283.17 1784.32 3283.15 1784.33C3283.13 1784.33 3283.11 1784.34 3283.09 1784.35C3283.02 1784.39 3283.04 1784.38 3282.97 1784.41C3282.96 1784.42 3282.85 1784.46 3282.84 1784.47C3282.76 1784.51 3282.68 1784.54 3282.59 1784.58C3282.52 1784.61 3282.41 1784.67 3282.34 1784.7C3282.21 1784.76 3281.95 1784.88 3281.83 1784.93C3281.66 1785.01 3281.48 1785.09 3281.3 1785.17L3283.8 1790.63C3283.83 1790.62 3283.85 1790.61 3283.87 1790.6C3283.89 1790.59 3283.91 1790.58 3283.94 1790.57C3284.05 1790.52 3283.96 1790.56 3284.07 1790.51C3284.09 1790.5 3284.11 1790.49 3284.13 1790.48C3284.15 1790.47 3284.17 1790.46 3284.2 1790.45C3284.26 1790.42 3284.26 1790.42 3284.33 1790.39C3284.35 1790.38 3284.37 1790.37 3284.39 1790.36C3284.41 1790.35 3284.43 1790.34 3284.45 1790.33C3284.48 1790.32 3284.5 1790.31 3284.52 1790.3C3284.54 1790.29 3284.56 1790.28 3284.58 1790.27C3284.59 1790.27 3284.83 1790.16 3284.84 1790.15C3284.86 1790.14 3285.32 1789.93 3285.34 1789.92C3285.43 1789.88 3285.76 1789.73 3285.84 1789.69C3286.63 1789.33 3287 1789.16 3287.74 1788.82C3287.76 1788.81 3287.78 1788.8 3287.8 1788.8C3287.82 1788.79 3287.84 1788.78 3287.86 1788.77C3287.88 1788.76 3287.89 1788.75 3287.91 1788.74C3287.93 1788.74 3287.95 1788.73 3287.97 1788.72C3288.01 1788.7 3288.05 1788.68 3288.08 1788.67C3288.1 1788.66 3288.12 1788.65 3288.14 1788.64C3288.16 1788.63 3288.18 1788.62 3288.2 1788.61C3288.22 1788.61 3288.24 1788.6 3288.25 1788.59C3288.27 1788.58 3288.29 1788.57 3288.31 1788.56C3288.38 1788.53 3288.35 1788.54 3288.42 1788.51C3288.44 1788.5 3288.46 1788.49 3288.48 1788.49C3288.5 1788.48 3288.51 1788.47 3288.53 1788.46C3288.62 1788.42 3288.56 1788.45 3288.64 1788.41C3288.67 1788.4 3288.84 1788.32 3288.86 1788.31C3288.92 1788.28 3288.92 1788.28 3288.97 1788.26C3289.02 1788.24 3289.04 1788.23 3289.08 1788.21C3289.09 1788.21 3289.19 1788.16 3289.19 1788.16C3289.3 1788.11 3289.2 1788.16 3289.3 1788.11C3289.38 1788.07 3289.44 1788.05 3289.51 1788.01C3289.59 1787.98 3289.55 1787.99 3289.62 1787.96C3289.72 1787.92 3289.62 1787.96 3289.73 1787.91C3289.74 1787.91 3289.76 1787.9 3289.78 1787.89C3289.8 1787.88 3289.81 1787.87 3289.83 1787.86C3289.87 1787.85 3289.9 1787.83 3289.94 1787.82C3289.95 1787.81 3290.34 1787.63 3290.35 1787.63C3290.58 1787.52 3290.94 1787.36 3291.15 1787.26C3291.57 1787.07 3291.52 1787.09 3291.93 1786.91C3291.94 1786.9 3291.96 1786.89 3291.97 1786.88C3291.99 1786.88 3292 1786.87 3292.02 1786.86C3292.04 1786.85 3292.05 1786.85 3292.07 1786.84C3292.08 1786.83 3292.1 1786.83 3292.11 1786.82C3292.18 1786.79 3292.23 1786.77 3292.3 1786.73C3292.31 1786.73 3292.65 1786.57 3292.66 1786.57C3292.68 1786.56 3292.69 1786.55 3292.71 1786.55C3292.72 1786.54 3292.74 1786.53 3292.75 1786.53C3292.8 1786.51 3292.8 1786.5 3292.84 1786.48C3292.87 1786.47 3292.91 1786.45 3292.93 1786.44C3292.94 1786.44 3293.02 1786.41 3293.02 1786.4C3293.21 1786.32 3293.18 1786.33 3293.37 1786.24C3293.5 1786.18 3293.58 1786.14 3293.71 1786.09C3293.76 1786.06 3293.99 1785.96 3294.04 1785.93C3294.31 1785.81 3294.1 1785.91 3294.37 1785.79C3294.67 1785.65 3294.38 1785.78 3294.68 1785.64C3294.87 1785.55 3295.11 1785.45 3295.29 1785.36C3295.49 1785.27 3295.38 1785.32 3295.58 1785.23C3295.67 1785.19 3295.63 1785.21 3295.72 1785.16C3295.8 1785.13 3295.79 1785.13 3295.86 1785.1C3295.92 1785.07 3296.36 1784.87 3296.4 1784.85C3296.48 1784.82 3296.59 1784.77 3296.66 1784.73C3296.69 1784.72 3296.7 1784.72 3296.73 1784.7C3296.78 1784.68 3296.74 1784.7 3296.79 1784.68C3296.9 1784.62 3296.8 1784.67 3296.91 1784.62C3296.95 1784.6 3297.36 1784.41 3297.39 1784.4C3297.74 1784.24 3297.94 1784.15 3298.24 1784.01C3298.45 1783.91 3298.42 1783.93 3298.62 1783.84C3298.65 1783.82 3298.77 1783.77 3298.8 1783.76C3298.89 1783.71 3298.88 1783.72 3298.96 1783.68C3299.23 1783.56 3299.02 1783.65 3299.28 1783.54C3299.32 1783.51 3299.37 1783.49 3299.42 1783.47C3299.43 1783.47 3299.43 1783.47 3299.44 1783.46C3299.44 1783.46 3299.45 1783.46 3299.45 1783.45C3299.46 1783.45 3299.47 1783.45 3299.47 1783.45C3299.48 1783.44 3299.48 1783.44 3299.49 1783.44C3299.5 1783.43 3299.51 1783.43 3299.52 1783.42C3299.53 1783.42 3299.53 1783.42 3299.54 1783.42C3299.54 1783.41 3299.55 1783.41 3299.55 1783.41C3299.65 1783.36 3299.71 1783.34 3299.8 1783.3C3299.82 1783.29 3299.84 1783.28 3299.86 1783.27C3299.87 1783.26 3299.87 1783.27 3299.88 1783.26C3299.89 1783.26 3299.89 1783.25 3299.9 1783.25C3299.9 1783.25 3299.91 1783.25 3299.91 1783.24C3299.95 1783.23 3299.98 1783.21 3300.01 1783.2C3300.11 1783.15 3300.29 1783.07 3300.34 1783.05C3300.35 1783.04 3300.35 1783.04 3300.36 1783.04C3300.36 1783.04 3300.37 1783.03 3300.37 1783.03C3300.38 1783.03 3300.39 1783.02 3300.4 1783.02C3300.41 1783.02 3300.41 1783.02 3300.41 1783.02C3300.41 1783.01 3300.42 1783.01 3300.42 1783.01C3300.42 1783.01 3300.43 1783.01 3300.43 1783.01C3300.44 1783 3300.45 1783 3300.46 1782.99C3300.5 1782.98 3300.46 1782.99 3300.5 1782.97C3300.51 1782.97 3300.51 1782.97 3300.52 1782.97C3300.53 1782.96 3300.53 1782.96 3300.54 1782.96C3300.54 1782.96 3300.55 1782.95 3300.55 1782.95C3300.55 1782.95 3300.55 1782.95 3300.55 1782.95C3300.55 1782.95 3300.55 1782.95 3300.55 1782.95C3300.56 1782.95 3300.56 1782.95 3300.56 1782.95C3300.56 1782.95 3300.56 1782.95 3300.56 1782.95C3300.56 1782.95 3300.56 1782.95 3300.56 1782.95C3300.57 1782.95 3300.57 1782.94 3300.57 1782.94C3300.57 1782.94 3300.59 1782.94 3300.59 1782.93C3300.59 1782.93 3300.59 1782.93 3300.59 1782.93C3300.59 1782.93 3300.59 1782.93 3300.59 1782.93C3300.59 1782.93 3300.59 1782.93 3300.6 1782.93C3300.6 1782.93 3300.6 1782.93 3300.6 1782.93C3300.6 1782.93 3300.6 1782.93 3300.6 1782.93C3300.6 1782.93 3300.6 1782.93 3300.6 1782.93C3300.6 1782.93 3300.6 1782.93 3300.6 1782.93C3300.6 1782.93 3300.6 1782.93 3300.6 1782.93C3300.6 1782.93 3300.6 1782.93 3300.6 1782.93C3300.6 1782.93 3300.6 1782.93 3300.6 1782.93C3300.6 1782.93 3300.6 1782.93 3300.6 1782.93C3300.6 1782.93 3300.6 1782.93 3300.6 1782.93C3300.6 1782.93 3300.6 1782.93 3299.35 1780.2ZM3281.3 1785.17C3270.34 1790.2 3254.9 1795.28 3234.91 1800.39L3236.4 1806.21C3256.54 1801.05 3272.37 1795.87 3283.8 1790.63L3281.3 1785.17ZM3234.91 1800.39C3215.14 1805.45 3192.3 1808 3166.35 1808V1814C3192.68 1814 3216.03 1811.42 3236.4 1806.21L3234.91 1800.39ZM3166.35 1808C3124.74 1808 3088.34 1800.14 3057.1 1784.52L3054.41 1789.88C3086.63 1805.99 3123.97 1814 3166.35 1814V1808ZM3057.14 1784.54C3026.43 1768.5 3002.36 1744.44 2984.89 1712.27L2979.62 1715.13C2997.62 1748.29 3022.54 1773.23 3054.37 1789.86L3057.14 1784.54ZM2984.9 1712.28C2967.46 1679.7 2958.65 1638.92 2958.65 1589.8H2952.65C2952.65 1639.61 2961.58 1681.43 2979.61 1715.12L2984.9 1712.28ZM2958.65 1589.8C2958.65 1544.44 2967.22 1505.75 2984.21 1473.6L2978.9 1470.8C2961.36 1503.99 2952.65 1543.69 2952.65 1589.8H2958.65ZM2984.21 1473.6C3001.2 1441.44 3025.29 1416.91 3056.49 1399.94L3053.62 1394.66C3021.36 1412.22 2996.44 1437.62 2978.9 1470.8L2984.21 1473.6ZM3056.52 1399.92C3087.74 1382.47 3124.09 1373.7 3165.65 1373.7V1367.7C3123.22 1367.7 3085.84 1376.66 3053.59 1394.68L3056.52 1399.92ZM3165.65 1373.7C3194.87 1373.7 3219.29 1376.72 3238.99 1382.67L3240.72 1376.93C3220.29 1370.75 3195.24 1367.7 3165.65 1367.7V1373.7ZM3239.07 1382.69C3259.51 1388.27 3274.61 1394.02 3284.53 1399.88L3287.58 1394.72C3276.97 1388.45 3261.27 1382.53 3240.64 1376.91L3239.07 1382.69ZM3284.53 1399.88C3284.61 1399.93 3284.56 1399.9 3284.65 1399.95C3284.72 1400 3284.69 1399.98 3284.77 1400.02C3284.82 1400.06 3284.95 1400.13 3285.01 1400.16C3285.09 1400.21 3285.4 1400.4 3285.48 1400.44C3285.74 1400.6 3286.14 1400.83 3286.39 1400.98C3287.11 1401.41 3287.46 1401.62 3288.14 1402.02C3288.16 1402.03 3288.17 1402.04 3288.19 1402.05C3288.21 1402.06 3288.23 1402.07 3288.24 1402.08C3288.27 1402.09 3288.32 1402.12 3288.35 1402.14C3288.4 1402.17 3288.5 1402.23 3288.56 1402.26C3288.66 1402.32 3288.87 1402.45 3288.97 1402.5C3289.07 1402.56 3289.27 1402.68 3289.37 1402.74C3289.49 1402.81 3289.45 1402.79 3289.57 1402.86C3289.63 1402.9 3289.7 1402.94 3289.76 1402.98C3289.76 1402.98 3289.86 1403.03 3289.86 1403.03C3289.91 1403.06 3289.91 1403.06 3289.96 1403.09C3289.97 1403.1 3289.99 1403.11 3290.01 1403.12C3290.02 1403.13 3290.04 1403.14 3290.05 1403.15C3290.07 1403.16 3290.09 1403.17 3290.1 1403.18C3290.12 1403.19 3290.13 1403.19 3290.15 1403.2C3290.18 1403.22 3290.5 1403.41 3290.53 1403.43C3290.53 1403.43 3290.71 1403.54 3290.72 1403.54C3290.73 1403.55 3290.89 1403.64 3290.9 1403.65C3291.09 1403.76 3291.08 1403.75 3291.27 1403.86C3293.16 1404.98 3294.83 1405.97 3296.08 1406.71C3296.16 1406.76 3296.11 1406.73 3296.2 1406.78C3296.21 1406.79 3296.24 1406.8 3296.26 1406.81C3296.27 1406.82 3296.28 1406.82 3296.29 1406.83C3296.3 1406.84 3296.31 1406.84 3296.32 1406.85C3296.35 1406.87 3296.34 1406.86 3296.37 1406.88C3296.38 1406.89 3296.39 1406.89 3296.4 1406.9C3296.41 1406.9 3296.42 1406.91 3296.43 1406.92C3296.44 1406.92 3296.45 1406.93 3296.46 1406.93C3296.47 1406.94 3296.48 1406.94 3296.49 1406.95C3296.5 1406.96 3296.53 1406.98 3296.54 1406.98C3296.55 1406.99 3296.98 1407.24 3296.98 1407.24C3296.99 1407.25 3297 1407.25 3297.01 1407.26C3297.02 1407.26 3297.02 1407.27 3297.03 1407.27C3297.05 1407.28 3297.07 1407.3 3297.09 1407.3C3297.15 1407.34 3297.12 1407.32 3297.19 1407.36C3297.25 1407.4 3297.32 1407.44 3297.39 1407.48C3297.52 1407.56 3297.64 1407.63 3297.76 1407.7C3298.17 1407.94 3298.06 1407.88 3298.42 1408.09C3298.44 1408.1 3298.48 1408.13 3298.5 1408.14C3298.53 1408.16 3298.54 1408.16 3298.57 1408.18C3298.61 1408.2 3298.68 1408.24 3298.71 1408.26C3298.81 1408.32 3298.88 1408.36 3298.97 1408.41C3298.99 1408.43 3299.06 1408.47 3299.08 1408.48C3299.09 1408.49 3299.18 1408.54 3299.19 1408.55C3299.33 1408.63 3299.26 1408.59 3299.39 1408.66C3299.49 1408.72 3299.46 1408.71 3299.55 1408.76C3299.59 1408.79 3299.58 1408.78 3299.62 1408.8C3299.63 1408.8 3299.69 1408.84 3299.69 1408.84C3299.75 1408.88 3299.74 1408.87 3299.79 1408.9C3299.82 1408.92 3299.86 1408.94 3299.87 1408.95C3299.88 1408.95 3299.89 1408.96 3299.89 1408.96C3299.9 1408.96 3299.91 1408.97 3299.91 1408.97C3299.92 1408.98 3299.92 1408.98 3299.92 1408.98C3299.93 1408.98 3299.93 1408.98 3299.93 1408.98C3299.93 1408.98 3299.93 1408.98 3299.93 1408.98C3299.93 1408.98 3299.93 1408.98 3299.93 1408.98C3299.93 1408.98 3299.93 1408.98 3299.93 1408.98C3299.93 1408.98 3299.93 1408.98 3301.45 1406.4C3302.98 1403.82 3302.98 1403.82 3302.98 1403.82C3302.98 1403.82 3302.98 1403.82 3302.98 1403.82C3302.98 1403.82 3302.98 1403.82 3302.98 1403.82C3302.98 1403.82 3302.98 1403.82 3302.98 1403.82C3302.98 1403.82 3302.98 1403.82 3302.98 1403.82C3302.98 1403.82 3302.98 1403.82 3302.98 1403.82C3302.98 1403.82 3302.98 1403.82 3302.98 1403.81C3302.98 1403.81 3302.98 1403.81 3302.98 1403.81C3302.98 1403.81 3302.98 1403.81 3302.98 1403.81C3302.97 1403.81 3302.97 1403.81 3302.97 1403.81C3302.97 1403.81 3302.97 1403.81 3302.97 1403.81C3302.97 1403.81 3302.97 1403.81 3302.97 1403.81C3302.97 1403.81 3302.97 1403.81 3302.97 1403.81C3302.97 1403.81 3302.97 1403.81 3302.97 1403.81C3302.97 1403.81 3302.97 1403.81 3302.97 1403.81C3302.96 1403.81 3302.94 1403.79 3302.92 1403.78C3302.87 1403.75 3302.83 1403.73 3302.74 1403.68C3302.57 1403.58 3302.35 1403.44 3302.02 1403.25C3301.94 1403.2 3301.59 1403 3301.48 1402.93C3301.35 1402.85 3301.3 1402.82 3301.16 1402.74C3301.09 1402.7 3301.06 1402.68 3300.99 1402.64C3300.96 1402.62 3300.94 1402.61 3300.9 1402.59C3300.9 1402.59 3300.82 1402.54 3300.82 1402.54C3300.47 1402.33 3300.42 1402.3 3300.03 1402.08C3299.83 1401.96 3299.37 1401.69 3299.13 1401.54C3298.67 1401.27 3297.58 1400.63 3296.97 1400.26C3296.93 1400.24 3296.85 1400.19 3296.81 1400.17C3296.79 1400.16 3296.69 1400.1 3296.66 1400.08C3296.55 1400.02 3296.46 1399.97 3296.35 1399.9C3296.32 1399.88 3296.3 1399.87 3296.27 1399.85C3296.22 1399.82 3296.24 1399.84 3296.19 1399.8C3296.18 1399.8 3296.16 1399.79 3296.15 1399.78C3296.14 1399.77 3296.12 1399.76 3296.11 1399.76C3296.1 1399.75 3296.04 1399.71 3296.03 1399.71C3295.81 1399.58 3295.92 1399.65 3295.7 1399.52C3295.64 1399.48 3295.43 1399.36 3295.37 1399.32C3295.3 1399.28 3295.26 1399.26 3295.2 1399.22C3295.08 1399.15 3295.14 1399.18 3295.03 1399.12C3294.94 1399.07 3294.76 1398.96 3294.68 1398.91C3294.66 1398.9 3294.65 1398.89 3294.63 1398.88C3294.62 1398.87 3294.6 1398.87 3294.59 1398.86C3294.55 1398.84 3294.53 1398.82 3294.5 1398.8C3294.48 1398.8 3294.47 1398.79 3294.45 1398.78C3294.44 1398.77 3294.42 1398.76 3294.41 1398.75C3294.4 1398.74 3294.33 1398.71 3294.32 1398.7C3294.3 1398.69 3294.29 1398.68 3294.27 1398.67C3294.26 1398.66 3294.24 1398.65 3294.23 1398.64C3294.21 1398.63 3294.16 1398.6 3294.14 1398.59C3294.09 1398.56 3294 1398.51 3293.95 1398.48C3293.92 1398.46 3293.9 1398.45 3293.86 1398.43C3293.84 1398.42 3293.79 1398.39 3293.77 1398.37C3293.75 1398.36 3293.74 1398.36 3293.72 1398.35C3293.71 1398.34 3293.69 1398.33 3293.68 1398.32C3293.65 1398.3 3293.6 1398.28 3293.58 1398.26C3293.27 1398.08 3293.14 1398 3292.81 1397.81C3292.65 1397.71 3292.19 1397.44 3292.02 1397.34C3292.01 1397.33 3291.92 1397.28 3291.92 1397.28C3291.85 1397.24 3291.88 1397.26 3291.81 1397.22C3291.76 1397.19 3291.66 1397.13 3291.61 1397.1C3291.51 1397.04 3291.29 1396.91 3291.19 1396.85C3290.98 1396.73 3290.55 1396.47 3290.33 1396.34C3290.32 1396.33 3290.13 1396.22 3290.11 1396.21C3290.04 1396.17 3289.97 1396.13 3289.89 1396.08C3289.84 1396.05 3289.73 1395.98 3289.67 1395.95C3289.64 1395.94 3289.59 1395.9 3289.56 1395.89C3289.54 1395.87 3289.52 1395.86 3289.5 1395.85C3289.48 1395.84 3289.46 1395.83 3289.45 1395.82C3289.43 1395.81 3289.41 1395.8 3289.39 1395.79C3289.37 1395.77 3289.35 1395.76 3289.33 1395.75C3289.31 1395.74 3289.29 1395.73 3289.28 1395.72C3289.26 1395.71 3289.24 1395.7 3289.22 1395.69C3289.16 1395.65 3289.05 1395.58 3288.99 1395.55C3288.88 1395.48 3288.64 1395.35 3288.53 1395.28C3288.3 1395.14 3287.82 1394.86 3287.58 1394.72L3284.53 1399.88ZM3298.51 1406.98L3318.11 1505.68L3324 1504.52L3304.4 1405.82L3298.51 1406.98ZM3320.4 1502.17L3251.8 1517.57L3253.11 1523.43L3321.71 1508.03L3320.4 1502.17ZM3255.39 1519.88L3240.69 1450.58L3234.82 1451.82L3249.52 1521.12L3255.39 1519.88ZM3378.08 1384.7V1381.7H3375.08V1384.7H3378.08ZM3597.88 1384.7H3600.88V1381.7H3597.88V1384.7ZM3597.88 1455.4V1458.4H3600.88V1455.4H3597.88ZM3525.78 1455.4V1452.4H3522.79L3522.78 1455.39L3525.78 1455.4ZM3525.08 1726.3L3522.08 1726.29L3522.07 1729.3H3525.08V1726.3ZM3636.38 1726.3V1729.3H3638.49L3639.21 1727.32L3636.38 1726.3ZM3661.58 1656.3L3662.56 1653.46L3659.76 1652.5L3658.76 1655.28L3661.58 1656.3ZM3728.78 1679.4L3731.61 1680.39L3732.61 1677.54L3729.76 1676.56L3728.78 1679.4ZM3687.48 1797V1800H3689.61L3690.31 1797.99L3687.48 1797ZM3378.08 1797H3375.08V1800H3378.08V1797ZM3378.08 1726.3V1723.3H3375.08V1726.3H3378.08ZM3445.28 1726.3V1729.3H3448.28V1726.3H3445.28ZM3445.28 1455.4H3448.28V1452.4H3445.28V1455.4ZM3378.08 1455.4H3375.08V1458.4H3378.08V1455.4ZM3378.08 1387.7H3597.88V1381.7H3378.08V1387.7ZM3594.88 1384.7V1455.4H3600.88V1384.7H3594.88ZM3597.88 1452.4H3525.78V1458.4H3597.88V1452.4ZM3522.78 1455.39L3522.08 1726.29L3528.08 1726.31L3528.78 1455.41L3522.78 1455.39ZM3525.08 1729.3H3636.38V1723.3H3525.08V1729.3ZM3639.21 1727.32L3664.41 1657.32L3658.76 1655.28L3633.56 1725.28L3639.21 1727.32ZM3660.61 1659.14L3727.81 1682.24L3729.76 1676.56L3662.56 1653.46L3660.61 1659.14ZM3725.95 1678.41L3684.65 1796.01L3690.31 1797.99L3731.61 1680.39L3725.95 1678.41ZM3687.48 1794H3378.08V1800H3687.48V1794ZM3381.08 1797V1726.3H3375.08V1797H3381.08ZM3378.08 1729.3H3445.28V1723.3H3378.08V1729.3ZM3448.28 1726.3V1455.4H3442.28V1726.3H3448.28ZM3445.28 1452.4H3378.08V1458.4H3445.28V1452.4ZM3381.08 1455.4V1384.7H3375.08V1455.4H3381.08ZM3771.85 1384.7V1381.7H3768.85V1384.7H3771.85ZM4089.65 1384.7L4092.5 1383.75L4091.81 1381.7H4089.65V1384.7ZM4130.95 1508.6L4131.91 1511.44L4134.74 1510.49L4133.8 1507.65L4130.95 1508.6ZM4064.45 1531L4061.62 1532L4062.6 1534.79L4065.41 1533.84L4064.45 1531ZM4037.85 1455.4L4040.68 1454.4L4039.97 1452.4H4037.85V1455.4ZM3912.55 1455.4V1452.4H3909.55V1455.4H3912.55ZM3912.55 1552H3909.55V1555H3912.55V1552ZM4031.55 1552H4034.55V1549H4031.55V1552ZM4031.55 1622V1625H4034.55V1622H4031.55ZM3912.55 1622V1619H3909.55V1622H3912.55ZM3912.55 1726.3H3909.55V1729.3H3912.55V1726.3ZM4055.35 1726.3V1729.3H4057.44L4058.16 1727.34L4055.35 1726.3ZM4081.25 1656.3L4082.24 1653.47L4079.46 1652.49L4078.44 1655.26L4081.25 1656.3ZM4147.05 1679.4L4149.89 1680.38L4150.86 1677.56L4148.04 1676.57L4147.05 1679.4ZM4106.45 1797V1800H4108.59L4109.28 1797.98L4106.45 1797ZM3771.15 1797H3768.15V1800H3771.15V1797ZM3771.15 1726.3V1723.3H3768.15V1726.3H3771.15ZM3830.65 1726.3V1729.3H3833.64L3833.65 1726.31L3830.65 1726.3ZM3831.35 1455.4L3834.35 1455.41L3834.36 1452.4H3831.35V1455.4ZM3771.85 1455.4H3768.85V1458.4H3771.85V1455.4ZM3771.85 1387.7H4089.65V1381.7H3771.85V1387.7ZM4086.8 1385.65L4128.1 1509.55L4133.8 1507.65L4092.5 1383.75L4086.8 1385.65ZM4129.99 1505.76L4063.49 1528.16L4065.41 1533.84L4131.91 1511.44L4129.99 1505.76ZM4067.28 1530L4040.68 1454.4L4035.02 1456.4L4061.62 1532L4067.28 1530ZM4037.85 1452.4H3912.55V1458.4H4037.85V1452.4ZM3909.55 1455.4V1552H3915.55V1455.4H3909.55ZM3912.55 1555H4031.55V1549H3912.55V1555ZM4028.55 1552V1622H4034.55V1552H4028.55ZM4031.55 1619H3912.55V1625H4031.55V1619ZM3909.55 1622V1726.3H3915.55V1622H3909.55ZM3912.55 1729.3H4055.35V1723.3H3912.55V1729.3ZM4058.16 1727.34L4084.06 1657.34L4078.44 1655.26L4052.54 1725.26L4058.16 1727.34ZM4080.26 1659.13L4146.06 1682.23L4148.04 1676.57L4082.24 1653.47L4080.26 1659.13ZM4144.21 1678.42L4103.61 1796.02L4109.28 1797.98L4149.89 1680.38L4144.21 1678.42ZM4106.45 1794H3771.15V1800H4106.45V1794ZM3774.15 1797V1726.3H3768.15V1797H3774.15ZM3771.15 1729.3H3830.65V1723.3H3771.15V1729.3ZM3833.65 1726.31L3834.35 1455.41L3828.35 1455.39L3827.65 1726.29L3833.65 1726.31ZM3831.35 1452.4H3771.85V1458.4H3831.35V1452.4ZM3774.85 1455.4V1384.7H3768.85V1455.4H3774.85ZM4276.81 1802.6L4277.46 1799.67L4277.44 1799.67L4277.42 1799.66L4276.81 1802.6ZM4212.41 1784.4L4209.44 1784.79L4209.67 1786.56L4211.33 1787.2L4212.41 1784.4ZM4199.81 1688.5L4199.46 1685.52L4196.44 1685.87L4196.84 1688.89L4199.81 1688.5ZM4265.61 1680.8L4268.58 1680.35L4268.15 1677.48L4265.26 1677.82L4265.61 1680.8ZM4273.31 1731.9L4270.35 1732.35L4270.62 1734.14L4272.33 1734.74L4273.31 1731.9ZM4315.31 1742.4L4314.83 1745.36L4315.31 1742.4ZM4409.81 1739.6L4410.62 1742.49L4410.67 1742.48L4410.71 1742.46L4409.81 1739.6ZM4445.51 1719.3L4447.63 1721.42L4447.66 1721.39L4447.69 1721.37L4445.51 1719.3ZM4444.81 1646.5L4442.5 1648.41L4442.52 1648.44L4442.55 1648.47L4444.81 1646.5ZM4388.11 1623.4L4387.62 1626.36L4387.63 1626.36L4387.63 1626.36L4388.11 1623.4ZM4337.71 1615L4337.19 1617.95L4337.2 1617.96L4337.22 1617.96L4337.71 1615ZM4241.11 1573L4243.14 1570.79L4241.11 1573ZM4229.21 1425.3L4231.56 1427.17L4229.21 1425.3ZM4288.01 1384.7L4289.02 1387.52L4289.05 1387.52L4289.07 1387.51L4288.01 1384.7ZM4416.81 1373.5L4416.44 1376.48L4416.81 1373.5ZM4460.21 1381.9L4460.98 1379L4460.21 1381.9ZM4502.21 1396.6L4505.19 1396.22L4504.97 1394.53L4503.4 1393.85L4502.21 1396.6ZM4515.51 1499.5L4515.84 1502.48L4518.88 1502.15L4518.49 1499.12L4515.51 1499.5ZM4444.81 1507.2L4441.84 1507.63L4442.26 1510.5L4445.14 1510.18L4444.81 1507.2ZM4435.71 1444.2L4438.68 1443.77L4438.42 1441.97L4436.7 1441.37L4435.71 1444.2ZM4404.21 1436.5L4403.72 1439.46L4403.73 1439.46L4403.74 1439.46L4404.21 1436.5ZM4303.41 1448.4L4304.97 1450.97L4304.98 1450.96L4304.99 1450.95L4303.41 1448.4ZM4297.11 1525.4L4295.19 1527.7L4295.24 1527.75L4295.3 1527.79L4297.11 1525.4ZM4353.81 1545.7L4353.28 1548.65L4353.31 1548.66L4353.34 1548.66L4353.81 1545.7ZM4406.31 1554.1L4405.84 1557.06L4405.85 1557.06L4405.85 1557.06L4406.31 1554.1ZM4502.91 1595.4L4500.72 1597.45L4500.73 1597.46L4500.74 1597.47L4502.91 1595.4ZM4516.21 1741L4513.62 1739.5L4513.6 1739.52L4513.59 1739.55L4516.21 1741ZM4477.01 1783L4478.61 1785.54L4477.01 1783ZM4423.11 1804.7L4422.48 1801.77L4423.11 1804.7ZM4366.41 1808C4332.03 1808 4302.39 1805.21 4277.46 1799.67L4276.16 1805.53C4301.63 1811.19 4331.73 1814 4366.41 1814V1808ZM4277.42 1799.66C4252.8 1794.55 4231.5 1788.53 4213.49 1781.6L4211.33 1787.2C4229.72 1794.27 4251.35 1800.38 4276.2 1805.54L4277.42 1799.66ZM4215.39 1784.01L4202.79 1688.11L4196.84 1688.89L4209.44 1784.79L4215.39 1784.01ZM4200.16 1691.48L4265.96 1683.78L4265.26 1677.82L4199.46 1685.52L4200.16 1691.48ZM4262.65 1681.25L4270.35 1732.35L4276.28 1731.45L4268.58 1680.35L4262.65 1681.25ZM4272.33 1734.74C4286.03 1739.46 4300.2 1743 4314.83 1745.36L4315.79 1739.44C4301.49 1737.13 4287.66 1733.67 4274.29 1729.06L4272.33 1734.74ZM4314.83 1745.36C4329.47 1747.72 4344.8 1748.9 4360.81 1748.9V1742.9C4345.09 1742.9 4330.09 1741.74 4315.79 1739.44L4314.83 1745.36ZM4360.81 1748.9C4378.78 1748.9 4395.39 1746.77 4410.62 1742.49L4409 1736.71C4394.37 1740.83 4378.31 1742.9 4360.81 1742.9V1748.9ZM4410.71 1742.46C4425.99 1737.69 4438.35 1730.71 4447.63 1721.42L4443.39 1717.18C4434.94 1725.63 4423.5 1732.18 4408.92 1736.74L4410.71 1742.46ZM4447.69 1721.37C4457.13 1711.42 4461.81 1699 4461.81 1684.3H4455.81C4455.81 1697.6 4451.63 1708.51 4443.34 1717.23L4447.69 1721.37ZM4461.81 1684.3C4461.81 1669.12 4456.89 1655.82 4447.08 1644.53L4442.55 1648.47C4451.4 1658.65 4455.81 1670.54 4455.81 1684.3H4461.81ZM4447.12 1644.59C4442.26 1638.7 4434.83 1633.85 4425.12 1629.9C4415.39 1625.93 4403.19 1622.79 4388.59 1620.44L4387.63 1626.36C4401.96 1628.67 4413.68 1631.72 4422.85 1635.45C4432.04 1639.2 4438.49 1643.56 4442.5 1648.41L4447.12 1644.59ZM4388.6 1620.44L4338.2 1612.04L4337.22 1617.96L4387.62 1626.36L4388.6 1620.44ZM4338.24 1612.05C4296.58 1604.64 4264.98 1590.81 4243.14 1570.79L4239.08 1575.21C4262.04 1596.26 4294.84 1610.43 4337.19 1617.95L4338.24 1612.05ZM4243.14 1570.79C4221.42 1550.88 4210.51 1524.88 4210.51 1492.5H4204.51C4204.51 1526.39 4216 1554.05 4239.08 1575.21L4243.14 1570.79ZM4210.51 1492.5C4210.51 1466.48 4217.58 1444.76 4231.56 1427.17L4226.86 1423.43C4211.92 1442.24 4204.51 1465.32 4204.51 1492.5H4210.51ZM4231.56 1427.17C4245.64 1409.46 4264.75 1396.23 4289.02 1387.52L4287 1381.88C4261.81 1390.91 4241.72 1404.74 4226.86 1423.43L4231.56 1427.17ZM4289.07 1387.51C4313.41 1378.32 4340.81 1373.7 4371.31 1373.7V1367.7C4340.21 1367.7 4312.08 1372.41 4286.95 1381.89L4289.07 1387.51ZM4371.31 1373.7C4386.59 1373.7 4401.63 1374.63 4416.44 1376.48L4417.18 1370.52C4402.12 1368.64 4386.83 1367.7 4371.31 1367.7V1373.7ZM4416.44 1376.48C4431.24 1378.33 4445.58 1381.1 4459.44 1384.8L4460.98 1379C4446.85 1375.23 4432.25 1372.41 4417.18 1370.52L4416.44 1376.48ZM4459.44 1384.8C4473.29 1388.49 4487.15 1393.34 4501.02 1399.35L4503.4 1393.85C4489.28 1387.72 4475.14 1382.77 4460.98 1379L4459.44 1384.8ZM4499.24 1396.98L4512.54 1499.88L4518.49 1499.12L4505.19 1396.22L4499.24 1396.98ZM4515.19 1496.52L4444.49 1504.22L4445.14 1510.18L4515.84 1502.48L4515.19 1496.52ZM4447.78 1506.77L4438.68 1443.77L4432.74 1444.63L4441.84 1507.63L4447.78 1506.77ZM4436.7 1441.37C4427.17 1438.03 4416.5 1435.43 4404.69 1433.54L4403.74 1439.46C4415.26 1441.31 4425.58 1443.83 4434.72 1447.03L4436.7 1441.37ZM4404.7 1433.54C4393.33 1431.64 4381.26 1430.7 4368.51 1430.7V1436.7C4380.96 1436.7 4392.7 1437.62 4403.72 1439.46L4404.7 1433.54ZM4368.51 1430.7C4340.67 1430.7 4318.35 1435.65 4301.84 1445.85L4304.99 1450.95C4320.21 1441.55 4341.29 1436.7 4368.51 1436.7V1430.7ZM4301.86 1445.83C4285.67 1455.64 4277.31 1469.39 4277.31 1486.9H4283.31C4283.31 1471.74 4290.35 1459.82 4304.97 1450.97L4301.86 1445.83ZM4277.31 1486.9C4277.31 1504 4283.22 1517.73 4295.19 1527.7L4299.03 1523.1C4288.6 1514.4 4283.31 1502.46 4283.31 1486.9H4277.31ZM4295.3 1527.79C4307.54 1537.09 4327 1543.96 4353.28 1548.65L4354.34 1542.75C4328.35 1538.11 4310.02 1531.44 4298.93 1523.01L4295.3 1527.79ZM4353.34 1548.66L4405.84 1557.06L4406.79 1551.14L4354.29 1542.74L4353.34 1548.66ZM4405.85 1557.06C4450.84 1564.02 4482.25 1577.63 4500.72 1597.45L4505.11 1593.35C4485.3 1572.1 4452.31 1558.18 4406.77 1551.14L4405.85 1557.06ZM4500.74 1597.47C4519.26 1616.89 4528.61 1642.24 4528.61 1673.8H4534.61C4534.61 1640.96 4524.83 1614.04 4505.08 1593.33L4500.74 1597.47ZM4528.61 1673.8C4528.61 1700.5 4523.55 1722.34 4513.62 1739.5L4518.81 1742.5C4529.41 1724.19 4534.61 1701.23 4534.61 1673.8H4528.61ZM4513.59 1739.55C4504.02 1756.86 4491.3 1770.48 4475.42 1780.46L4478.61 1785.54C4495.39 1774.99 4508.8 1760.61 4518.84 1742.45L4513.59 1739.55ZM4475.42 1780.46C4459.39 1790.53 4441.75 1797.64 4422.48 1801.77L4423.74 1807.63C4443.67 1803.36 4461.97 1796 4478.61 1785.54L4475.42 1780.46ZM4422.48 1801.77C4403.07 1805.93 4384.38 1808 4366.41 1808V1814C4384.84 1814 4403.95 1811.87 4423.74 1807.63L4422.48 1801.77Z" fill="#B42C4C"/>
<g filter="url(#filter0_d_84_6)">
<path d="M4456.9 2836.5C4456.9 2840.97 4455.87 2845.03 4453.8 2848.7C4451.73 2852.3 4448.67 2855.17 4444.6 2857.3C4440.6 2859.43 4435.73 2860.5 4430 2860.5H4421.2V2883H4399V2812.2H4430C4438.67 2812.2 4445.3 2814.4 4449.9 2818.8C4454.57 2823.2 4456.9 2829.1 4456.9 2836.5ZM4427.5 2843C4432.1 2843 4434.4 2840.83 4434.4 2836.5C4434.4 2832.17 4432.1 2830 4427.5 2830H4421.2V2843H4427.5ZM4485.64 2812.2V2852.1C4485.64 2855.37 4486.34 2857.97 4487.74 2859.9C4489.21 2861.77 4491.54 2862.7 4494.74 2862.7C4497.94 2862.7 4500.31 2861.77 4501.84 2859.9C4503.37 2857.97 4504.14 2855.37 4504.14 2852.1V2812.2H4526.24V2852.1C4526.24 2858.83 4524.84 2864.6 4522.04 2869.4C4519.24 2874.13 4515.41 2877.7 4510.54 2880.1C4505.67 2882.5 4500.24 2883.7 4494.24 2883.7C4488.24 2883.7 4482.91 2882.5 4478.24 2880.1C4473.64 2877.7 4470.04 2874.13 4467.44 2869.4C4464.84 2864.67 4463.54 2858.9 4463.54 2852.1V2812.2H4485.64ZM4571.42 2883L4558.12 2857.6H4558.02V2883H4535.82V2812.2H4568.82C4574.55 2812.2 4579.45 2813.23 4583.52 2815.3C4587.58 2817.3 4590.62 2820.07 4592.62 2823.6C4594.68 2827.07 4595.72 2831 4595.72 2835.4C4595.72 2840.13 4594.38 2844.33 4591.72 2848C4589.12 2851.67 4585.35 2854.3 4580.42 2855.9L4595.82 2883H4571.42ZM4558.02 2842.8H4566.82C4568.95 2842.8 4570.55 2842.33 4571.62 2841.4C4572.68 2840.4 4573.22 2838.87 4573.22 2836.8C4573.22 2834.93 4572.65 2833.47 4571.52 2832.4C4570.45 2831.33 4568.88 2830.8 4566.82 2830.8H4558.02V2842.8ZM4600.81 2847.5C4600.81 2840.5 4602.21 2834.27 4605.01 2828.8C4607.88 2823.33 4611.94 2819.1 4617.21 2816.1C4622.48 2813.03 4628.68 2811.5 4635.81 2811.5C4641.94 2811.5 4647.41 2812.67 4652.21 2815C4657.08 2817.27 4661.01 2820.5 4664.01 2824.7C4667.08 2828.9 4669.11 2833.8 4670.11 2839.4H4646.71C4645.64 2837.07 4644.11 2835.27 4642.11 2834C4640.18 2832.67 4637.94 2832 4635.41 2832C4631.68 2832 4628.71 2833.4 4626.51 2836.2C4624.38 2839 4623.31 2842.77 4623.31 2847.5C4623.31 2852.23 4624.38 2856 4626.51 2858.8C4628.71 2861.6 4631.68 2863 4635.41 2863C4637.94 2863 4640.18 2862.37 4642.11 2861.1C4644.11 2859.77 4645.64 2857.93 4646.71 2855.6H4670.11C4669.11 2861.2 4667.08 2866.1 4664.01 2870.3C4661.01 2874.5 4657.08 2877.77 4652.21 2880.1C4647.41 2882.37 4641.94 2883.5 4635.81 2883.5C4628.68 2883.5 4622.48 2882 4617.21 2879C4611.94 2875.93 4607.88 2871.67 4605.01 2866.2C4602.21 2860.73 4600.81 2854.5 4600.81 2847.5ZM4743.6 2812.2V2883H4721.4V2855.4H4700.3V2883H4678.1V2812.2H4700.3V2837.7H4721.4V2812.2H4743.6ZM4798.99 2872.3H4775.39L4771.89 2883H4748.59L4774.49 2812.2H4800.09L4825.89 2883H4802.49L4798.99 2872.3ZM4793.59 2855.6L4787.19 2835.9L4780.79 2855.6H4793.59ZM4858.63 2883.7C4850.17 2883.7 4843.17 2881.73 4837.63 2877.8C4832.17 2873.8 4829.2 2867.97 4828.73 2860.3H4852.33C4852.67 2864.37 4854.47 2866.4 4857.73 2866.4C4858.93 2866.4 4859.93 2866.13 4860.73 2865.6C4861.6 2865 4862.03 2864.1 4862.03 2862.9C4862.03 2861.23 4861.13 2859.9 4859.33 2858.9C4857.53 2857.83 4854.73 2856.63 4850.93 2855.3C4846.4 2853.7 4842.63 2852.13 4839.63 2850.6C4836.7 2849.07 4834.17 2846.83 4832.03 2843.9C4829.9 2840.97 4828.87 2837.2 4828.93 2832.6C4828.93 2828 4830.1 2824.1 4832.43 2820.9C4834.83 2817.63 4838.07 2815.17 4842.13 2813.5C4846.27 2811.83 4850.9 2811 4856.03 2811C4864.7 2811 4871.57 2813 4876.63 2817C4881.77 2821 4884.47 2826.63 4884.73 2833.9H4860.83C4860.77 2831.9 4860.27 2830.47 4859.33 2829.6C4858.4 2828.73 4857.27 2828.3 4855.93 2828.3C4855 2828.3 4854.23 2828.63 4853.63 2829.3C4853.03 2829.9 4852.73 2830.77 4852.73 2831.9C4852.73 2833.5 4853.6 2834.83 4855.33 2835.9C4857.13 2836.9 4859.97 2838.13 4863.83 2839.6C4868.3 2841.27 4871.97 2842.87 4874.83 2844.4C4877.77 2845.93 4880.3 2848.07 4882.43 2850.8C4884.57 2853.53 4885.63 2856.97 4885.63 2861.1C4885.63 2865.43 4884.57 2869.33 4882.43 2872.8C4880.3 2876.2 4877.2 2878.87 4873.13 2880.8C4869.07 2882.73 4864.23 2883.7 4858.63 2883.7ZM4915.63 2829.9V2838.6H4937.63V2855.3H4915.63V2865.3H4940.63V2883H4893.43V2812.2H4940.63V2829.9H4915.63Z" fill="#B42C4C"/>
</g>
<defs>
<filter id="filter0_d_84_6" x="4299" y="2711" width="741.634" height="272.7" filterUnits="userSpaceOnUse" color-interpolation-filters="sRGB">
<feFlood flood-opacity="0" result="BackgroundImageFix"/>
<feColorMatrix in="SourceAlpha" type="matrix" values="0 0 0 0 0 0 0 0 0 0 0 0 0 0 0 0 0 0 127 0" result="hardAlpha"/>
<feOffset/>
<feGaussianBlur stdDeviation="50"/>
<feComposite in2="hardAlpha" operator="out"/>
<feColorMatrix type="matrix" values="0 0 0 0 0.843137 0 0 0 0 0.219608 0 0 0 0 0.368627 0 0 0 1 0"/>
<feBlend mode="normal" in2="BackgroundImageFix" result="effect1_dropShadow_84_6"/>
<feBlend mode="normal" in="SourceGraphic" in2="effect1_dropShadow_84_6" result="shape"/>
</filter>
<radialGradient id="paint0_radial_84_6" cx="0" cy="0" r="1" gradientUnits="userSpaceOnUse" gradientTransform="translate(2613 1567.5) rotate(90) scale(1567.5 2613)">
<stop stop-color="#313131"/>
<stop offset="1" stop-color="#313131"/>
</radialGradient>
</defs>
</svg>
