<svg width="3572" height="1704" viewBox="0 0 3572 1704" fill="none" xmlns="http://www.w3.org/2000/svg">
<rect width="3572" height="1704" fill="#FB7B6B"/>
<path d="M1472.78 965.299C1445.28 966.649 1422.79 942.917 1424.82 914.694C1426.85 886.471 1429.2 853.693 1431.5 821.629C1433.8 789.564 1476.97 775.032 1495.74 779.266C1514.5 783.5 1700.54 843.343 1800.47 829.712C1903.75 815.624 2018.65 695.438 2093.07 603.04C2120.76 568.676 2179.69 585.842 2183.16 630.391C2183.16 630.391 2200.59 854.491 2202.65 880.948C2204.71 907.405 2185.11 930.321 2159.33 931.586C2133.56 932.852 1500.27 963.949 1472.78 965.299Z" fill="#FFC09D"/>
<g style="mix-blend-mode:multiply">
<path d="M1426.78 899.299C1399.28 900.649 1376.79 876.917 1378.82 848.694C1380.85 820.471 1383.2 787.693 1385.5 755.629C1387.8 723.564 1430.97 709.032 1449.74 713.266C1468.5 717.5 1654.54 777.343 1754.47 763.712C1857.75 749.624 1972.65 629.438 2047.07 537.04C2074.76 502.676 2133.69 519.842 2137.16 564.391C2137.16 564.391 2154.59 788.491 2156.65 814.948C2158.71 841.405 2139.11 864.321 2113.33 865.586C2087.56 866.852 1454.27 897.949 1426.78 899.299Z" fill="#FFC09D"/>
</g>
<path d="M1599 902C1599 913.046 1590.05 922 1579 922C1567.95 922 1559 913.046 1559 902C1559 890.954 1567.95 882 1579 882C1590.05 882 1599 890.954 1599 902Z" fill="#313131"/>
<circle cx="2053" cy="832" r="20" fill="#313131"/>
<path d="M1430.62 465.344C1419.1 465.344 1408.99 462.976 1400.29 458.24C1391.58 453.504 1384.86 446.848 1380.13 438.272C1375.39 429.568 1373.02 419.648 1373.02 408.512C1373.02 392.256 1376.35 377.92 1383.01 365.504C1389.79 352.96 1399.2 343.232 1411.23 336.32C1423.39 329.28 1437.34 325.76 1453.09 325.76C1464.86 325.76 1475.1 328.128 1483.81 332.864C1492.64 337.472 1499.42 344.064 1504.16 352.64C1508.9 361.088 1511.26 370.88 1511.26 382.016C1511.26 398.144 1507.87 412.544 1501.09 425.216C1494.43 437.888 1484.96 447.744 1472.67 454.784C1460.51 461.824 1446.5 465.344 1430.62 465.344ZM1437.15 425.6C1443.81 425.6 1449.57 423.872 1454.43 420.416C1459.42 416.832 1463.2 412.16 1465.76 406.4C1468.32 400.512 1469.6 394.176 1469.6 387.392C1469.6 380.352 1467.68 374.912 1463.84 371.072C1460.13 367.104 1454.75 365.12 1447.71 365.12C1441.06 365.12 1435.23 366.848 1430.24 370.304C1425.25 373.76 1421.41 378.432 1418.72 384.32C1416.16 390.08 1414.88 396.352 1414.88 403.136C1414.88 410.176 1416.74 415.68 1420.45 419.648C1424.29 423.616 1429.86 425.6 1437.15 425.6ZM1647.02 363.392C1645.62 371.328 1642.35 378.048 1637.23 383.552C1632.11 388.928 1625.97 392.512 1618.8 394.304C1625.46 395.968 1630.51 399.168 1633.97 403.904C1637.55 408.512 1639.34 413.952 1639.34 420.224C1639.34 422.272 1639.15 424.448 1638.77 426.752C1636.72 438.656 1631.15 447.872 1622.06 454.4C1613.1 460.8 1601.26 464 1586.54 464H1515.31L1539.31 328.064H1608.62C1620.91 328.064 1630.45 330.496 1637.23 335.36C1644.14 340.096 1647.6 347.072 1647.6 356.288C1647.6 358.464 1647.41 360.832 1647.02 363.392ZM1602.1 371.648C1602.22 371.008 1602.29 370.176 1602.29 369.152C1602.29 366.592 1601.46 364.736 1599.79 363.584C1598.26 362.432 1595.82 361.856 1592.5 361.856H1575.98L1572.53 381.056H1589.04C1592.88 381.056 1595.89 380.288 1598.06 378.752C1600.24 377.216 1601.58 374.848 1602.1 371.648ZM1596.34 420.416C1596.46 419.776 1596.53 418.944 1596.53 417.92C1596.53 413.056 1593.26 410.624 1586.74 410.624H1567.34L1564.08 429.824H1583.47C1587.31 429.824 1590.26 429.12 1592.3 427.712C1594.48 426.176 1595.82 423.744 1596.34 420.416ZM1704.93 465.344C1688.29 465.344 1674.98 462.016 1664.99 455.36C1655.14 448.704 1650.21 438.976 1650.21 426.176C1650.21 424.896 1650.34 422.976 1650.59 420.416H1695.91C1695.52 424.384 1696.1 427.328 1697.63 429.248C1699.3 431.168 1701.99 432.128 1705.7 432.128C1708 432.128 1709.92 431.552 1711.46 430.4C1712.99 429.248 1713.76 427.584 1713.76 425.408C1713.76 422.336 1712.23 419.776 1709.15 417.728C1706.21 415.68 1701.41 413.248 1694.75 410.432C1687.46 407.36 1681.44 404.416 1676.71 401.6C1672.1 398.784 1668.07 394.944 1664.61 390.08C1661.15 385.216 1659.43 379.136 1659.43 371.84C1659.43 362.24 1661.79 353.984 1666.53 347.072C1671.39 340.032 1678.11 334.72 1686.69 331.136C1695.27 327.552 1705.06 325.76 1716.07 325.76C1725.92 325.76 1734.69 327.296 1742.37 330.368C1750.18 333.44 1756.26 337.92 1760.61 343.808C1765.09 349.568 1767.33 356.416 1767.33 364.352C1767.33 365.376 1767.2 367.168 1766.95 369.728H1721.06C1721.31 368.192 1721.44 367.168 1721.44 366.656C1721.44 364.224 1720.74 362.368 1719.33 361.088C1717.92 359.68 1716 358.976 1713.57 358.976C1711.39 358.976 1709.6 359.616 1708.19 360.896C1706.79 362.176 1706.08 363.84 1706.08 365.888C1706.08 368.704 1707.55 371.2 1710.5 373.376C1713.44 375.424 1718.11 377.984 1724.51 381.056C1731.81 384.512 1737.83 387.776 1742.56 390.848C1747.43 393.92 1751.59 398.016 1755.04 403.136C1758.5 408.128 1760.23 414.272 1760.23 421.568C1760.23 429.888 1757.99 437.376 1753.51 444.032C1749.15 450.688 1742.82 455.936 1734.5 459.776C1726.18 463.488 1716.32 465.344 1704.93 465.344ZM1900.5 328.064L1894.55 361.856H1858.45L1840.41 464H1797.78L1815.83 361.856H1780.12L1786.07 328.064H1900.5ZM1954.69 328.064L1930.69 464H1888.06L1912.06 328.064H1954.69ZM1958.19 395.84C1960.5 382.4 1965.3 370.432 1972.59 359.936C1979.89 349.44 1989.11 341.312 2000.24 335.552C2011.38 329.664 2023.79 326.72 2037.49 326.72C2049.27 326.72 2059.38 328.96 2067.83 333.44C2076.4 337.792 2082.93 344 2087.41 352.064C2091.89 360.128 2094.07 369.536 2093.94 380.288H2049.01C2047.73 375.808 2045.43 372.352 2042.1 369.92C2038.77 367.36 2034.67 366.08 2029.81 366.08C2022.64 366.08 2016.5 368.768 2011.38 374.144C2006.26 379.52 2002.93 386.752 2001.39 395.84C2000.88 398.4 2000.63 401.152 2000.63 404.096C2000.63 410.752 2002.23 416 2005.43 419.84C2008.75 423.68 2013.43 425.6 2019.44 425.6C2024.31 425.6 2028.85 424.384 2033.07 421.952C2037.3 419.392 2040.82 415.872 2043.63 411.392H2088.56C2084.72 422.144 2079.15 431.552 2071.86 439.616C2064.56 447.68 2055.86 453.952 2045.75 458.432C2035.76 462.784 2024.88 464.96 2013.11 464.96C2001.2 464.96 1991.03 462.784 1982.58 458.432C1974.13 453.952 1967.73 447.68 1963.38 439.616C1959.03 431.424 1956.85 421.952 1956.85 411.2C1956.85 405.952 1957.3 400.832 1958.19 395.84ZM2142.88 431.744H2183.97L2178.21 464H2094.5L2118.5 328.064H2161.12L2142.88 431.744ZM2252.3 361.856L2249.42 378.752H2291.66L2285.9 410.816H2243.66L2240.2 430.016H2288.2L2282.25 464H2191.62L2215.62 328.064H2306.25L2300.3 361.856H2252.3ZM2356.68 465.344C2340.04 465.344 2326.73 462.016 2316.74 455.36C2306.89 448.704 2301.96 438.976 2301.96 426.176C2301.96 424.896 2302.09 422.976 2302.34 420.416H2347.66C2347.27 424.384 2347.85 427.328 2349.38 429.248C2351.05 431.168 2353.74 432.128 2357.45 432.128C2359.75 432.128 2361.67 431.552 2363.21 430.4C2364.74 429.248 2365.51 427.584 2365.51 425.408C2365.51 422.336 2363.98 419.776 2360.9 417.728C2357.96 415.68 2353.16 413.248 2346.5 410.432C2339.21 407.36 2333.19 404.416 2328.46 401.6C2323.85 398.784 2319.82 394.944 2316.36 390.08C2312.9 385.216 2311.18 379.136 2311.18 371.84C2311.18 362.24 2313.54 353.984 2318.28 347.072C2323.14 340.032 2329.86 334.72 2338.44 331.136C2347.02 327.552 2356.81 325.76 2367.82 325.76C2377.67 325.76 2386.44 327.296 2394.12 330.368C2401.93 333.44 2408.01 337.92 2412.36 343.808C2416.84 349.568 2419.08 356.416 2419.08 364.352C2419.08 365.376 2418.95 367.168 2418.7 369.728H2372.81C2373.06 368.192 2373.19 367.168 2373.19 366.656C2373.19 364.224 2372.49 362.368 2371.08 361.088C2369.67 359.68 2367.75 358.976 2365.32 358.976C2363.14 358.976 2361.35 359.616 2359.94 360.896C2358.54 362.176 2357.83 363.84 2357.83 365.888C2357.83 368.704 2359.3 371.2 2362.25 373.376C2365.19 375.424 2369.86 377.984 2376.26 381.056C2383.56 384.512 2389.58 387.776 2394.31 390.848C2399.18 393.92 2403.34 398.016 2406.79 403.136C2410.25 408.128 2411.98 414.272 2411.98 421.568C2411.98 429.888 2409.74 437.376 2405.26 444.032C2400.9 450.688 2394.57 455.936 2386.25 459.776C2377.93 463.488 2368.07 465.344 2356.68 465.344Z" fill="#D7385E"/>
<path d="M1364 483.2H2421.58V492.8H1364V483.2Z" fill="#D7385E"/>
<path d="M1517.7 1257L1508.3 1248.17C1496.26 1255.34 1482.12 1258.92 1465.86 1258.92C1454.86 1258.92 1445.26 1257.19 1437.06 1253.74C1429 1250.28 1422.79 1245.42 1418.44 1239.14C1414.09 1232.74 1411.91 1225.45 1411.91 1217.26C1411.91 1209.45 1413.9 1202.34 1417.86 1195.94C1421.96 1189.42 1428.04 1183.91 1436.1 1179.43C1430.22 1172.14 1427.27 1164.46 1427.27 1156.39C1427.27 1149.48 1429.06 1143.14 1432.65 1137.38C1436.36 1131.62 1441.74 1127.08 1448.78 1123.75C1455.82 1120.3 1464.2 1118.57 1473.93 1118.57C1483.78 1118.57 1492.17 1120.36 1499.08 1123.94C1505.99 1127.4 1511.18 1132.01 1514.63 1137.77C1518.09 1143.53 1519.82 1149.74 1519.82 1156.39H1481.03C1481.03 1153.96 1480.33 1152.17 1478.92 1151.02C1477.51 1149.74 1475.85 1149.1 1473.93 1149.1C1471.88 1149.1 1470.09 1149.74 1468.55 1151.02C1467.14 1152.17 1466.44 1153.83 1466.44 1156.01C1466.44 1160.1 1469.26 1164.84 1474.89 1170.22L1505.8 1200.17C1507.59 1196.71 1509.19 1192.81 1510.6 1188.46L1511.18 1186.73H1552.46L1550.54 1191.72C1545.67 1204.52 1539.66 1215.91 1532.49 1225.9L1564.55 1257H1517.7ZM1468.94 1225.32C1473.54 1225.32 1477.83 1224.62 1481.8 1223.21L1459.14 1202.09C1456.97 1203.62 1455.3 1205.42 1454.15 1207.46C1453.13 1209.38 1452.62 1211.37 1452.62 1213.42C1452.62 1216.74 1454.02 1219.56 1456.84 1221.86C1459.78 1224.17 1463.82 1225.32 1468.94 1225.32ZM1659.97 1258.34C1643.72 1258.34 1630.28 1254.57 1619.65 1247.02C1609.16 1239.34 1603.46 1228.14 1602.56 1213.42H1647.88C1648.52 1221.22 1651.97 1225.13 1658.24 1225.13C1660.55 1225.13 1662.47 1224.62 1664 1223.59C1665.67 1222.44 1666.5 1220.71 1666.5 1218.41C1666.5 1215.21 1664.77 1212.65 1661.32 1210.73C1657.86 1208.68 1652.48 1206.38 1645.19 1203.82C1636.48 1200.74 1629.25 1197.74 1623.49 1194.79C1617.86 1191.85 1613 1187.56 1608.9 1181.93C1604.8 1176.3 1602.82 1169.06 1602.95 1160.23C1602.95 1151.4 1605.19 1143.91 1609.67 1137.77C1614.28 1131.5 1620.48 1126.76 1628.29 1123.56C1636.23 1120.36 1645.12 1118.76 1654.98 1118.76C1671.62 1118.76 1684.8 1122.6 1694.53 1130.28C1704.39 1137.96 1709.57 1148.78 1710.08 1162.73H1664.2C1664.07 1158.89 1663.11 1156.14 1661.32 1154.47C1659.52 1152.81 1657.35 1151.98 1654.79 1151.98C1653 1151.98 1651.52 1152.62 1650.37 1153.9C1649.22 1155.05 1648.64 1156.71 1648.64 1158.89C1648.64 1161.96 1650.31 1164.52 1653.64 1166.57C1657.09 1168.49 1662.53 1170.86 1669.96 1173.67C1678.53 1176.87 1685.57 1179.94 1691.08 1182.89C1696.71 1185.83 1701.57 1189.93 1705.67 1195.18C1709.76 1200.42 1711.81 1207.02 1711.81 1214.95C1711.81 1223.27 1709.76 1230.76 1705.67 1237.42C1701.57 1243.94 1695.62 1249.06 1687.81 1252.78C1680 1256.49 1670.72 1258.34 1659.97 1258.34ZM1833.54 1121.06V1154.86H1797.44V1257H1754.82V1154.86H1719.11V1121.06H1833.54ZM1886.76 1121.06V1197.67C1886.76 1203.94 1888.11 1208.94 1890.8 1212.65C1893.61 1216.23 1898.09 1218.02 1904.24 1218.02C1910.38 1218.02 1914.92 1216.23 1917.87 1212.65C1920.81 1208.94 1922.28 1203.94 1922.28 1197.67V1121.06H1964.72V1197.67C1964.72 1210.6 1962.03 1221.67 1956.65 1230.89C1951.28 1239.98 1943.92 1246.82 1934.57 1251.43C1925.23 1256.04 1914.8 1258.34 1903.28 1258.34C1891.76 1258.34 1881.52 1256.04 1872.56 1251.43C1863.72 1246.82 1856.81 1239.98 1851.82 1230.89C1846.83 1221.8 1844.33 1210.73 1844.33 1197.67V1121.06H1886.76ZM2079.1 1121.06V1154.86H2025.72V1173.67H2064.12V1205.74H2025.72V1257H1983.1V1121.06H2079.1ZM2189.54 1121.06V1154.86H2136.16V1173.67H2174.56V1205.74H2136.16V1257H2093.54V1121.06H2189.54Z" fill="#D7385E"/>
<path d="M1405 1276.2H2194.34V1285.8H1405V1276.2Z" fill="#D7385E"/>
<path d="M1364 1455.72C1364 1455.72 1391.17 1418.72 1411.28 1413.27C1440.34 1405.4 1475.79 1436.3 1504.81 1444.78C1562.97 1461.79 1601.19 1416.99 1660 1416.48C1709.69 1416.05 1709.02 1445.36 1758.67 1441.57C1808.93 1437.74 1832.73 1414.53 1883.03 1413.27C1951.95 1411.55 1984.75 1460.1 2053.64 1455.72C2098.72 1452.85 2113.37 1411.99 2158.47 1413.27C2191.07 1414.2 2221.18 1434.82 2252 1455.72" stroke="#FF988B" stroke-width="40"/>
</svg>
