<svg width="3572" height="1704" viewBox="0 0 3572 1704" fill="none" xmlns="http://www.w3.org/2000/svg">
<rect width="3572" height="1704" fill="#FB7B6B"/>
<rect x="1360" y="828.907" width="216" height="773.161" rx="108" transform="rotate(-88.3157 1360 828.907)" fill="#FFC09D"/>
<circle cx="1448" cy="689" r="20" fill="#313131"/>
<circle cx="1448" cy="753" r="20" fill="#313131"/>
<circle cx="1508" cy="689" r="20" fill="#313131"/>
<circle cx="1508" cy="753" r="20" fill="#313131"/>
<circle cx="1972" cy="701" r="20" fill="#313131"/>
<circle cx="1972" cy="765" r="20" fill="#313131"/>
<circle cx="2032" cy="701" r="20" fill="#313131"/>
<circle cx="2032" cy="765" r="20" fill="#313131"/>
<path d="M1516.95 1199L1491.42 1150.23H1491.22V1199H1448.6V1063.06H1511.96C1522.97 1063.06 1532.38 1065.05 1540.18 1069.02C1547.99 1072.86 1553.82 1078.17 1557.66 1084.95C1561.62 1091.61 1563.61 1099.16 1563.61 1107.61C1563.61 1116.7 1561.05 1124.76 1555.93 1131.8C1550.94 1138.84 1543.7 1143.9 1534.23 1146.97L1563.8 1199H1516.95ZM1491.22 1121.82H1508.12C1512.22 1121.82 1515.29 1120.92 1517.34 1119.13C1519.38 1117.21 1520.41 1114.26 1520.41 1110.3C1520.41 1106.71 1519.32 1103.9 1517.14 1101.85C1515.1 1099.8 1512.09 1098.78 1508.12 1098.78H1491.22V1121.82ZM1664.39 1178.46H1619.08L1612.36 1199H1567.62L1617.35 1063.06H1666.51L1716.04 1199H1671.11L1664.39 1178.46ZM1654.03 1146.39L1641.74 1108.57L1629.45 1146.39H1654.03ZM1889.12 1063.06V1199H1846.69V1131.22L1825.76 1199H1789.28L1768.35 1131.22V1199H1725.73V1063.06H1777.95L1807.9 1144.66L1837.09 1063.06H1889.12ZM2019.52 1109.72C2019.52 1118.3 2017.53 1126.1 2013.57 1133.14C2009.6 1140.06 2003.71 1145.56 1995.9 1149.66C1988.22 1153.75 1978.88 1155.8 1967.87 1155.8H1950.97V1199H1908.35V1063.06H1967.87C1984.51 1063.06 1997.25 1067.29 2006.08 1075.74C2015.04 1084.18 2019.52 1095.51 2019.52 1109.72ZM1963.07 1122.2C1971.9 1122.2 1976.32 1118.04 1976.32 1109.72C1976.32 1101.4 1971.9 1097.24 1963.07 1097.24H1950.97V1122.2H1963.07ZM2086.22 1200.34C2069.97 1200.34 2056.53 1196.57 2045.9 1189.02C2035.41 1181.34 2029.71 1170.14 2028.81 1155.42H2074.13C2074.77 1163.22 2078.22 1167.13 2084.49 1167.13C2086.8 1167.13 2088.72 1166.62 2090.25 1165.59C2091.92 1164.44 2092.75 1162.71 2092.75 1160.41C2092.75 1157.21 2091.02 1154.65 2087.57 1152.73C2084.11 1150.68 2078.73 1148.38 2071.44 1145.82C2062.73 1142.74 2055.5 1139.74 2049.74 1136.79C2044.11 1133.85 2039.25 1129.56 2035.15 1123.93C2031.05 1118.3 2029.07 1111.06 2029.2 1102.23C2029.2 1093.4 2031.44 1085.91 2035.92 1079.77C2040.53 1073.5 2046.73 1068.76 2054.54 1065.56C2062.48 1062.36 2071.37 1060.76 2081.23 1060.76C2097.87 1060.76 2111.05 1064.6 2120.78 1072.28C2130.64 1079.96 2135.82 1090.78 2136.33 1104.73H2090.45C2090.32 1100.89 2089.36 1098.14 2087.57 1096.47C2085.77 1094.81 2083.6 1093.98 2081.04 1093.98C2079.25 1093.98 2077.77 1094.62 2076.62 1095.9C2075.47 1097.05 2074.89 1098.71 2074.89 1100.89C2074.89 1103.96 2076.56 1106.52 2079.89 1108.57C2083.34 1110.49 2088.78 1112.86 2096.21 1115.67C2104.78 1118.87 2111.82 1121.94 2117.33 1124.89C2122.96 1127.83 2127.82 1131.93 2131.92 1137.18C2136.01 1142.42 2138.06 1149.02 2138.06 1156.95C2138.06 1165.27 2136.01 1172.76 2131.92 1179.42C2127.82 1185.94 2121.87 1191.06 2114.06 1194.78C2106.25 1198.49 2096.97 1200.34 2086.22 1200.34Z" fill="#D7385E"/>
<path d="M1439 1218.2H2143.44V1227.8H1439V1218.2Z" fill="#D7385E"/>
<path d="M2548.99 1359.88L2477.39 1275.46C2455.96 1250.19 2459.07 1212.33 2484.34 1190.89L2536.52 1146.64C2549.03 1136.03 2565.33 1131.06 2581.72 1131.69C2621.67 1133.23 2697.96 1131.71 2733.8 1101.3C2769.65 1070.9 2783.61 995.887 2788.61 956.219C2790.66 939.948 2798.23 924.674 2810.74 914.067L2862.92 869.809C2888.19 848.376 2926.05 851.487 2947.49 876.759L3019.09 961.18C3040.52 986.452 3037.41 1024.31 3012.14 1045.75L2633.56 1366.83C2608.29 1388.27 2570.42 1385.16 2548.99 1359.88Z" fill="#FF988B" stroke="#FF988B"/>
<path d="M1077.35 961.763L992 861.131L1029.77 829.098C1029.77 829.098 1085.95 851.225 1101.96 837.648C1117.97 824.07 1105.31 765.033 1105.31 765.033L1143.07 733L1228.42 833.632L1077.35 961.763Z" fill="#FF988B" stroke="#FF988B"/>
<path d="M2584.07 952.763L2669.42 852.131L2631.65 820.098C2631.65 820.098 2575.48 842.225 2559.47 828.648C2543.46 815.07 2556.12 756.033 2556.12 756.033L2518.35 724L2433 824.632L2584.07 952.763Z" fill="#FF988B" stroke="#FF988B"/>
<path d="M1017.28 1383.54L1099.7 1286.36C1121.13 1261.09 1118.02 1223.23 1092.75 1201.8L1032.05 1150.31C1019.54 1139.71 1003.28 1134.72 986.897 1135.41C944.611 1137.18 860.906 1136 821.88 1102.9C782.854 1069.8 768.024 987.409 762.865 945.402C760.866 929.125 753.299 913.9 740.792 903.292L680.09 851.809C654.819 830.376 616.956 833.487 595.523 858.759L513.105 955.934C491.671 981.206 494.783 1019.07 520.054 1040.5L932.71 1390.49C957.982 1411.92 995.844 1408.81 1017.28 1383.54Z" fill="#D7385E" stroke="#FFC09D"/>
<path d="M1230 416.753L1294.45 400.315M1487.78 351L1423.34 367.438M1423.34 367.438L1358.89 383.876L1294.45 400.315M1423.34 367.438L1294.45 400.315M1423.34 367.438L1459.61 509.66M1294.45 400.315L1330.72 542.536M1248.14 487.863L1505.92 422.111" stroke="#D7385E" stroke-width="50" stroke-linecap="round"/>
<path d="M1972 416.753L2036.45 400.315M2229.78 351L2165.34 367.438M2165.34 367.438L2100.89 383.876L2036.45 400.315M2165.34 367.438L2036.45 400.315M2165.34 367.438L2201.61 509.66M2036.45 400.315L2072.72 542.536M1990.14 487.863L2247.92 422.111" stroke="#D7385E" stroke-width="50" stroke-linecap="round"/>
<path d="M139 799.753L203.446 783.315M396.785 734L332.339 750.438M332.339 750.438L267.892 766.876L203.446 783.315M332.339 750.438L203.446 783.315M332.339 750.438L368.615 892.66M203.446 783.315L239.722 925.536M157.138 870.863L414.923 805.111" stroke="#FF988B" stroke-width="50" stroke-linecap="round"/>
<path d="M3062 123.753L3126.45 107.315M3319.78 58L3255.34 74.4381M3255.34 74.4381L3190.89 90.8763L3126.45 107.315M3255.34 74.4381L3126.45 107.315M3255.34 74.4381L3291.61 216.66M3126.45 107.315L3162.72 249.536M3080.14 194.863L3337.92 129.111" stroke="#FF988B" stroke-width="50" stroke-linecap="round"/>
<path d="M757.297 461.226L667.941 266.501C667.863 266.331 667.627 266.305 667.577 266.485C665.203 275.055 631.495 395.006 587.036 460.724C547.732 518.825 474.626 572.082 412.784 610.155C412.558 610.295 416.464 617.849 416.706 617.738L757.199 461.492C757.299 461.446 757.343 461.327 757.297 461.226Z" fill="#FF988B"/>
<path d="M2957.38 592.461L3043.4 508.345C3043.47 508.28 3043.58 508.315 3043.57 508.408C3043.11 513.158 3036.62 582.971 3046.72 626.43C3056.19 667.175 3086.75 712.726 3112.58 745.722C3112.66 745.827 3109.74 748.43 3109.65 748.334L2957.38 592.603C2957.34 592.563 2957.34 592.5 2957.38 592.461Z" fill="#FF988B"/>
</svg>
